<svg width="243" height="71" viewBox="0 0 243 71" fill="none" xmlns="http://www.w3.org/2000/svg">
<g filter="url(#filter0_d_236_122)">
<path d="M4 13C4 7.47715 8.47715 3 14 3H229C234.523 3 239 7.47715 239 13V56C239 61.5228 234.523 66 229 66H14C8.47715 66 4 61.5228 4 56V13Z" fill="url(#paint0_linear_236_122)"/>
<path d="M42.4956 25.12C41.5656 25.12 40.7106 25.055 39.9306 24.925V23.95C40.2806 24 40.6656 24.045 41.0856 24.085C41.5056 24.115 41.8606 24.13 42.1506 24.13C42.5506 24.13 42.8656 24.105 43.0956 24.055C43.3356 23.995 43.5306 23.895 43.6806 23.755C43.8206 23.625 43.9106 23.435 43.9506 23.185C44.0006 22.935 44.0256 22.6 44.0256 22.18C44.0256 21.63 44.0056 21.245 43.9656 21.025C43.9256 20.805 43.8306 20.65 43.6806 20.56C43.5406 20.46 43.2856 20.38 42.9156 20.32L41.1756 20.05C40.7556 19.98 40.4406 19.84 40.2306 19.63C40.0206 19.41 39.8806 19.13 39.8106 18.79C39.7506 18.45 39.7206 17.995 39.7206 17.425C39.7206 16.385 39.9406 15.65 40.3806 15.22C40.8206 14.78 41.5256 14.56 42.4956 14.56C43.4256 14.56 44.1856 14.64 44.7756 14.8V15.73C44.1056 15.61 43.4306 15.55 42.7506 15.55C42.3206 15.55 41.9806 15.59 41.7306 15.67C41.4806 15.74 41.2906 15.85 41.1606 16C41.0306 16.15 40.9456 16.335 40.9056 16.555C40.8656 16.775 40.8456 17.055 40.8456 17.395C40.8456 17.855 40.8656 18.19 40.9056 18.4C40.9456 18.6 41.0256 18.74 41.1456 18.82C41.2656 18.9 41.4656 18.965 41.7456 19.015L43.4256 19.285C43.8456 19.355 44.1756 19.46 44.4156 19.6C44.6556 19.74 44.8406 19.98 44.9706 20.32C45.0906 20.61 45.1506 21.185 45.1506 22.045C45.1506 22.815 45.0656 23.42 44.8956 23.86C44.7356 24.3 44.4606 24.62 44.0706 24.82C43.6906 25.02 43.1656 25.12 42.4956 25.12ZM46.821 25V14.68H51.696V15.67H47.946V19.285H51.201V20.275H47.946V24.01H51.696V25H46.821ZM58.2453 25L57.5253 22.135H54.3603L53.6553 25H52.5303L55.2303 14.68H56.7003L59.4003 25H58.2453ZM55.9803 16.045H55.9053L54.6303 21.145H57.2553L55.9803 16.045ZM62.9155 25.12C61.9855 25.12 61.1305 25.055 60.3505 24.925V23.95C60.7005 24 61.0855 24.045 61.5055 24.085C61.9255 24.115 62.2805 24.13 62.5705 24.13C62.9705 24.13 63.2855 24.105 63.5155 24.055C63.7555 23.995 63.9505 23.895 64.1005 23.755C64.2405 23.625 64.3305 23.435 64.3705 23.185C64.4205 22.935 64.4455 22.6 64.4455 22.18C64.4455 21.63 64.4255 21.245 64.3855 21.025C64.3455 20.805 64.2505 20.65 64.1005 20.56C63.9605 20.46 63.7055 20.38 63.3355 20.32L61.5955 20.05C61.1755 19.98 60.8605 19.84 60.6505 19.63C60.4405 19.41 60.3005 19.13 60.2305 18.79C60.1705 18.45 60.1405 17.995 60.1405 17.425C60.1405 16.385 60.3605 15.65 60.8005 15.22C61.2405 14.78 61.9455 14.56 62.9155 14.56C63.8455 14.56 64.6055 14.64 65.1955 14.8V15.73C64.5255 15.61 63.8505 15.55 63.1705 15.55C62.7405 15.55 62.4005 15.59 62.1505 15.67C61.9005 15.74 61.7105 15.85 61.5805 16C61.4505 16.15 61.3655 16.335 61.3255 16.555C61.2855 16.775 61.2655 17.055 61.2655 17.395C61.2655 17.855 61.2855 18.19 61.3255 18.4C61.3655 18.6 61.4455 18.74 61.5655 18.82C61.6855 18.9 61.8855 18.965 62.1655 19.015L63.8455 19.285C64.2655 19.355 64.5955 19.46 64.8355 19.6C65.0755 19.74 65.2605 19.98 65.3905 20.32C65.5105 20.61 65.5705 21.185 65.5705 22.045C65.5705 22.815 65.4855 23.42 65.3155 23.86C65.1555 24.3 64.8805 24.62 64.4905 24.82C64.1105 25.02 63.5855 25.12 62.9155 25.12ZM70.0759 25.12C69.0959 25.12 68.3959 24.985 67.9759 24.715C67.5559 24.445 67.2859 23.97 67.1659 23.29C67.0459 22.6 66.9859 21.45 66.9859 19.84C66.9859 18.23 67.0459 17.085 67.1659 16.405C67.2859 15.715 67.5559 15.235 67.9759 14.965C68.3959 14.695 69.0959 14.56 70.0759 14.56C71.0559 14.56 71.7559 14.695 72.1759 14.965C72.5959 15.235 72.8659 15.715 72.9859 16.405C73.1059 17.085 73.1659 18.23 73.1659 19.84C73.1659 21.45 73.1059 22.6 72.9859 23.29C72.8659 23.97 72.5959 24.445 72.1759 24.715C71.7559 24.985 71.0559 25.12 70.0759 25.12ZM70.0759 24.13C70.7159 24.13 71.1609 24.055 71.4109 23.905C71.6609 23.755 71.8259 23.4 71.9059 22.84C71.9859 22.28 72.0259 21.28 72.0259 19.84C72.0259 18.4 71.9859 17.4 71.9059 16.84C71.8259 16.28 71.6609 15.925 71.4109 15.775C71.1609 15.625 70.7159 15.55 70.0759 15.55C69.4359 15.55 68.9909 15.625 68.7409 15.775C68.4909 15.925 68.3259 16.28 68.2459 16.84C68.1659 17.4 68.1259 18.4 68.1259 19.84C68.1259 21.28 68.1659 22.28 68.2459 22.84C68.3259 23.4 68.4909 23.755 68.7409 23.905C68.9909 24.055 69.4359 24.13 70.0759 24.13ZM79.6996 25L76.1446 17.065H76.0846V25H75.0046V14.68H76.1896L79.6846 22.48H79.7446V14.68H80.8246V25H79.6996Z" fill="white"/>
<path d="M158.119 25V20.305H154.534V25H153.424V14.68H154.534V19.285H158.119V14.68H159.229V25H158.119ZM166.269 25L165.549 22.135H162.384L161.679 25H160.554L163.254 14.68H164.724L167.424 25H166.269ZM164.004 16.045H163.929L162.654 21.145H165.279L164.004 16.045ZM168.746 14.68H171.881C172.731 14.68 173.341 14.9 173.711 15.34C174.081 15.78 174.266 16.42 174.266 17.26C174.266 17.97 174.141 18.525 173.891 18.925C173.651 19.315 173.266 19.57 172.736 19.69V19.75C173.356 19.88 173.781 20.16 174.011 20.59C174.241 21.01 174.356 21.575 174.356 22.285C174.356 23.125 174.176 23.79 173.816 24.28C173.456 24.76 172.791 25 171.821 25H168.746V14.68ZM171.566 19.27C172.096 19.27 172.491 19.125 172.751 18.835C173.011 18.545 173.141 18.09 173.141 17.47C173.141 17.02 173.096 16.67 173.006 16.42C172.916 16.16 172.756 15.97 172.526 15.85C172.306 15.73 171.986 15.67 171.566 15.67H169.856V19.27H171.566ZM171.611 24.01C172.231 24.01 172.651 23.87 172.871 23.59C173.101 23.31 173.216 22.83 173.216 22.15C173.216 21.46 173.096 20.975 172.856 20.695C172.616 20.405 172.201 20.26 171.611 20.26H169.856V24.01H171.611ZM176.174 25V14.68H177.299V25H176.174ZM180.91 25V15.7H178.615V14.68H184.33V15.7H182.035V25H180.91ZM189.779 25L189.059 22.135H185.894L185.189 25H184.064L186.764 14.68H188.234L190.934 25H189.779ZM187.514 16.045H187.439L186.164 21.145H188.789L187.514 16.045ZM192.965 25V15.7H190.67V14.68H196.385V15.7H194.09V25H192.965Z" fill="white"/>
<path d="M35.0642 52.196C34.5229 52.196 34.0375 52.1307 33.6082 52C33.1789 51.8787 32.7962 51.7107 32.4602 51.496C32.1335 51.272 31.8489 51.0247 31.6062 50.754L32.5722 49.452C32.8895 49.7413 33.2349 49.9933 33.6082 50.208C33.9909 50.4133 34.4155 50.516 34.8822 50.516C35.2369 50.516 35.5449 50.46 35.8062 50.348C36.0769 50.236 36.2822 50.0727 36.4222 49.858C36.5715 49.6433 36.6462 49.382 36.6462 49.074C36.6462 48.7287 36.5622 48.4347 36.3942 48.192C36.2355 47.94 35.9509 47.7487 35.5402 47.618C35.1295 47.4873 34.5509 47.422 33.8042 47.422V45.938C34.4389 45.938 34.9382 45.8727 35.3022 45.742C35.6662 45.602 35.9229 45.4153 36.0722 45.182C36.2309 44.9393 36.3102 44.664 36.3102 44.356C36.3102 43.9547 36.1889 43.642 35.9462 43.418C35.7035 43.1847 35.3629 43.068 34.9242 43.068C34.5602 43.068 34.2195 43.152 33.9022 43.32C33.5942 43.4787 33.2862 43.698 32.9782 43.978L31.9142 42.704C32.3715 42.3213 32.8522 42.018 33.3562 41.794C33.8602 41.5607 34.4155 41.444 35.0222 41.444C35.6849 41.444 36.2682 41.5513 36.7722 41.766C37.2855 41.9807 37.6822 42.2933 37.9622 42.704C38.2422 43.1147 38.3822 43.614 38.3822 44.202C38.3822 44.762 38.2329 45.2427 37.9342 45.644C37.6355 46.0453 37.2109 46.3533 36.6602 46.568V46.638C37.0429 46.7407 37.3882 46.9087 37.6962 47.142C38.0135 47.366 38.2609 47.6507 38.4382 47.996C38.6249 48.3413 38.7182 48.7427 38.7182 49.2C38.7182 49.8253 38.5502 50.362 38.2142 50.81C37.8875 51.258 37.4442 51.6033 36.8842 51.846C36.3335 52.0793 35.7269 52.196 35.0642 52.196ZM43.28 40.772H50.266V42.41H43.28V40.772ZM43.294 44.118H50.336V45.714H43.294V44.118ZM43.21 47.422H50.238V49.06H43.21V47.422ZM42.118 40.772H43.854V45.406C43.854 46.0127 43.8167 46.666 43.742 47.366C43.6767 48.066 43.5507 48.7753 43.364 49.494C43.1773 50.2127 42.902 50.894 42.538 51.538C42.174 52.182 41.6933 52.756 41.096 53.26C41.012 53.1387 40.8907 52.9987 40.732 52.84C40.5827 52.6813 40.4193 52.5273 40.242 52.378C40.074 52.2287 39.9247 52.1167 39.794 52.042C40.326 51.594 40.746 51.0993 41.054 50.558C41.3713 50.0073 41.6047 49.438 41.754 48.85C41.9127 48.262 42.0107 47.674 42.048 47.086C42.0947 46.498 42.118 45.9333 42.118 45.392V40.772ZM49.482 40.772H51.274V51.118C51.274 51.622 51.204 52.0093 51.064 52.28C50.9333 52.5507 50.7047 52.756 50.378 52.896C50.042 53.0453 49.622 53.134 49.118 53.162C48.614 53.1993 47.998 53.218 47.27 53.218C47.2327 53.05 47.1767 52.8587 47.102 52.644C47.0273 52.4293 46.9433 52.2147 46.85 52C46.7567 51.7853 46.6633 51.6033 46.57 51.454C46.8967 51.4727 47.228 51.4867 47.564 51.496C47.9093 51.496 48.2127 51.496 48.474 51.496C48.7447 51.496 48.936 51.496 49.048 51.496C49.2067 51.496 49.3187 51.468 49.384 51.412C49.4493 51.3467 49.482 51.2393 49.482 51.09V40.772ZM59.87 47.282C59.562 46.9647 59.2587 46.7173 58.96 46.54C58.6613 46.3627 58.2693 46.274 57.784 46.274C57.336 46.274 56.916 46.4327 56.524 46.75C56.1413 47.058 55.8193 47.4593 55.558 47.954L54.018 47.114C54.494 46.246 55.0587 45.602 55.712 45.182C56.3653 44.7527 57.07 44.538 57.826 44.538C58.498 44.538 59.0953 44.664 59.618 44.916C60.15 45.168 60.654 45.5553 61.13 46.078C61.438 46.3953 61.7413 46.6427 62.04 46.82C62.348 46.9973 62.74 47.086 63.216 47.086C63.664 47.086 64.0793 46.932 64.462 46.624C64.854 46.3067 65.1807 45.9007 65.442 45.406L66.982 46.246C66.506 47.114 65.9413 47.7627 65.288 48.192C64.6347 48.612 63.93 48.822 63.174 48.822C62.5113 48.822 61.914 48.696 61.382 48.444C60.85 48.192 60.346 47.8047 59.87 47.282ZM71.378 52.196C70.8273 52.196 70.3373 52.1307 69.908 52C69.4787 51.8693 69.096 51.6967 68.76 51.482C68.424 51.2673 68.1253 51.034 67.864 50.782L68.816 49.466C69.012 49.662 69.222 49.8393 69.446 49.998C69.6793 50.1567 69.9313 50.2827 70.202 50.376C70.482 50.4693 70.7807 50.516 71.098 50.516C71.4527 50.516 71.7653 50.4413 72.036 50.292C72.316 50.1427 72.5353 49.928 72.694 49.648C72.8527 49.3587 72.932 49.0133 72.932 48.612C72.932 48.0147 72.7687 47.5527 72.442 47.226C72.1247 46.8993 71.7047 46.736 71.182 46.736C70.8833 46.736 70.6267 46.778 70.412 46.862C70.1973 46.9367 69.936 47.072 69.628 47.268L68.69 46.666L68.97 41.626H74.514V43.362H70.748L70.552 45.56C70.7573 45.4667 70.958 45.3967 71.154 45.35C71.35 45.3033 71.5647 45.28 71.798 45.28C72.3767 45.28 72.9087 45.3967 73.394 45.63C73.8793 45.854 74.2667 46.2087 74.556 46.694C74.8453 47.1793 74.99 47.8 74.99 48.556C74.99 49.3213 74.8173 49.9793 74.472 50.53C74.136 51.0713 73.6927 51.4867 73.142 51.776C72.6007 52.056 72.0127 52.196 71.378 52.196ZM79.5378 40.772H86.5238V42.41H79.5378V40.772ZM79.5518 44.118H86.5938V45.714H79.5518V44.118ZM79.4678 47.422H86.4958V49.06H79.4678V47.422ZM78.3758 40.772H80.1118V45.406C80.1118 46.0127 80.0745 46.666 79.9998 47.366C79.9345 48.066 79.8085 48.7753 79.6218 49.494C79.4351 50.2127 79.1598 50.894 78.7958 51.538C78.4318 52.182 77.9511 52.756 77.3538 53.26C77.2698 53.1387 77.1485 52.9987 76.9898 52.84C76.8405 52.6813 76.6771 52.5273 76.4998 52.378C76.3318 52.2287 76.1825 52.1167 76.0518 52.042C76.5838 51.594 77.0038 51.0993 77.3118 50.558C77.6291 50.0073 77.8625 49.438 78.0118 48.85C78.1705 48.262 78.2685 47.674 78.3058 47.086C78.3525 46.498 78.3758 45.9333 78.3758 45.392V40.772ZM85.7398 40.772H87.5318V51.118C87.5318 51.622 87.4618 52.0093 87.3218 52.28C87.1911 52.5507 86.9625 52.756 86.6358 52.896C86.2998 53.0453 85.8798 53.134 85.3758 53.162C84.8718 53.1993 84.2558 53.218 83.5278 53.218C83.4905 53.05 83.4345 52.8587 83.3598 52.644C83.2851 52.4293 83.2011 52.2147 83.1078 52C83.0145 51.7853 82.9211 51.6033 82.8278 51.454C83.1545 51.4727 83.4858 51.4867 83.8218 51.496C84.1671 51.496 84.4705 51.496 84.7318 51.496C85.0025 51.496 85.1938 51.496 85.3058 51.496C85.4645 51.496 85.5765 51.468 85.6418 51.412C85.7071 51.3467 85.7398 51.2393 85.7398 51.09V40.772Z" fill="white"/>
<path d="M146.164 44.16V45.014H150.504V44.16H146.164ZM146.164 42.032V42.886H150.504V42.032H146.164ZM144.582 40.66H152.156V46.386H144.582V40.66ZM143.28 51.398H153.066V52.854H143.28V51.398ZM143.84 47.772L145.184 47.31C145.371 47.6367 145.539 47.9913 145.688 48.374C145.847 48.7567 145.982 49.1347 146.094 49.508C146.215 49.8813 146.304 50.2127 146.36 50.502L144.904 51.034C144.876 50.7353 144.806 50.3993 144.694 50.026C144.591 49.6433 144.465 49.256 144.316 48.864C144.167 48.472 144.008 48.108 143.84 47.772ZM151.414 47.254L153.024 47.702C152.865 48.0847 152.697 48.4767 152.52 48.878C152.343 49.2793 152.165 49.662 151.988 50.026C151.82 50.3807 151.657 50.6933 151.498 50.964L150.252 50.544C150.392 50.2453 150.537 49.9093 150.686 49.536C150.835 49.1533 150.971 48.7613 151.092 48.36C151.223 47.9587 151.33 47.59 151.414 47.254ZM146.374 46.722H147.914V52.196H146.374V46.722ZM148.754 46.722H150.322V52.196H148.754V46.722ZM140.718 41.5L141.642 40.268C141.931 40.3707 142.235 40.5013 142.552 40.66C142.869 40.8093 143.168 40.9727 143.448 41.15C143.737 41.318 143.971 41.4813 144.148 41.64L143.168 42.998C143 42.8393 142.776 42.6713 142.496 42.494C142.225 42.3073 141.931 42.1253 141.614 41.948C141.306 41.7707 141.007 41.6213 140.718 41.5ZM139.892 45.042L140.816 43.838C141.105 43.95 141.413 44.09 141.74 44.258C142.076 44.426 142.389 44.6033 142.678 44.79C142.977 44.9673 143.215 45.1447 143.392 45.322L142.412 46.666C142.244 46.4887 142.015 46.3067 141.726 46.12C141.446 45.924 141.143 45.7327 140.816 45.546C140.499 45.35 140.191 45.182 139.892 45.042ZM140.186 51.958C140.382 51.594 140.597 51.174 140.83 50.698C141.073 50.2127 141.315 49.6993 141.558 49.158C141.81 48.6167 142.039 48.0753 142.244 47.534L143.56 48.5C143.373 48.9947 143.173 49.4987 142.958 50.012C142.753 50.516 142.543 51.0153 142.328 51.51C142.113 51.9953 141.894 52.4667 141.67 52.924L140.186 51.958ZM162.152 40.1H163.72V49.984H162.152V40.1ZM158.008 45.742L165.26 42.648L165.862 44.09L158.624 47.226L158.008 45.742ZM159.394 41.458H160.99V50.53C160.99 50.8007 161.009 51.006 161.046 51.146C161.093 51.2767 161.186 51.3653 161.326 51.412C161.475 51.4587 161.69 51.482 161.97 51.482C162.054 51.482 162.185 51.482 162.362 51.482C162.549 51.482 162.754 51.482 162.978 51.482C163.211 51.482 163.44 51.482 163.664 51.482C163.897 51.482 164.103 51.482 164.28 51.482C164.467 51.482 164.607 51.482 164.7 51.482C164.952 51.482 165.143 51.4353 165.274 51.342C165.405 51.2487 165.503 51.076 165.568 50.824C165.633 50.572 165.685 50.2033 165.722 49.718C165.899 49.8487 166.128 49.9747 166.408 50.096C166.697 50.208 166.959 50.2873 167.192 50.334C167.117 50.9967 167.001 51.5193 166.842 51.902C166.683 52.2847 166.445 52.56 166.128 52.728C165.811 52.896 165.381 52.98 164.84 52.98C164.747 52.98 164.597 52.98 164.392 52.98C164.187 52.98 163.958 52.98 163.706 52.98C163.454 52.98 163.202 52.98 162.95 52.98C162.698 52.98 162.469 52.98 162.264 52.98C162.068 52.98 161.928 52.98 161.844 52.98C161.209 52.98 160.71 52.91 160.346 52.77C159.991 52.63 159.744 52.3827 159.604 52.028C159.464 51.6733 159.394 51.174 159.394 50.53V41.458ZM164.938 42.83H164.826L165.12 42.62L165.428 42.424L166.59 42.844L166.534 43.124C166.534 43.7867 166.529 44.3933 166.52 44.944C166.52 45.4853 166.515 45.966 166.506 46.386C166.506 46.7967 166.497 47.142 166.478 47.422C166.469 47.702 166.455 47.912 166.436 48.052C166.417 48.3787 166.347 48.6353 166.226 48.822C166.105 48.9993 165.937 49.1347 165.722 49.228C165.517 49.3213 165.274 49.3773 164.994 49.396C164.723 49.4147 164.476 49.424 164.252 49.424C164.233 49.2093 164.191 48.9667 164.126 48.696C164.061 48.416 163.986 48.1873 163.902 48.01C164.023 48.0193 164.149 48.0287 164.28 48.038C164.411 48.038 164.509 48.038 164.574 48.038C164.658 48.038 164.723 48.0193 164.77 47.982C164.826 47.9447 164.863 47.8607 164.882 47.73C164.891 47.6647 164.901 47.5153 164.91 47.282C164.919 47.0487 164.924 46.736 164.924 46.344C164.924 45.9427 164.924 45.4527 164.924 44.874C164.933 44.286 164.938 43.6047 164.938 42.83ZM153.976 43.348H158.61V44.944H153.976V43.348ZM155.614 40.296H157.182V49.578H155.614V40.296ZM153.794 49.592C154.177 49.452 154.625 49.284 155.138 49.088C155.651 48.8827 156.193 48.6587 156.762 48.416C157.341 48.1733 157.915 47.9353 158.484 47.702L158.862 49.186C158.115 49.5593 157.355 49.928 156.58 50.292C155.815 50.656 155.11 50.9827 154.466 51.272L153.794 49.592ZM171.07 52.966C170.79 52.6113 170.477 52.252 170.132 51.888C169.787 51.524 169.437 51.1693 169.082 50.824C168.727 50.4693 168.387 50.152 168.06 49.872L169.516 48.612C169.852 48.8827 170.211 49.2047 170.594 49.578C170.977 49.942 171.341 50.3107 171.686 50.684C172.041 51.0573 172.335 51.3887 172.568 51.678L171.07 52.966ZM182.228 43.544H186.12V45.238H182.228V43.544ZM187.66 40.114H189.452V51.076C189.452 51.58 189.391 51.972 189.27 52.252C189.149 52.532 188.939 52.7467 188.64 52.896C188.341 53.0453 187.959 53.1433 187.492 53.19C187.035 53.246 186.484 53.274 185.84 53.274C185.821 53.0967 185.775 52.8913 185.7 52.658C185.635 52.434 185.555 52.21 185.462 51.986C185.369 51.7527 185.275 51.5567 185.182 51.398C185.639 51.4167 186.069 51.426 186.47 51.426C186.871 51.426 187.142 51.426 187.282 51.426C187.422 51.426 187.52 51.398 187.576 51.342C187.632 51.286 187.66 51.1973 187.66 51.076V40.114ZM185.546 43.544H185.896L186.204 43.474L187.352 43.894C187.147 45.1727 186.839 46.3347 186.428 47.38C186.027 48.4253 185.551 49.3447 185 50.138C184.459 50.922 183.852 51.5613 183.18 52.056C183.087 51.916 182.956 51.762 182.788 51.594C182.62 51.4167 182.443 51.2487 182.256 51.09C182.079 50.9313 181.92 50.81 181.78 50.726C182.424 50.2873 182.998 49.7367 183.502 49.074C184.006 48.402 184.431 47.632 184.776 46.764C185.131 45.8867 185.387 44.9347 185.546 43.908V43.544ZM189.34 42.158C189.564 43.0913 189.849 43.9873 190.194 44.846C190.549 45.7047 190.964 46.5073 191.44 47.254C191.916 48.0007 192.467 48.668 193.092 49.256C193.727 49.8347 194.436 50.3107 195.22 50.684C195.08 50.796 194.926 50.9407 194.758 51.118C194.59 51.2953 194.431 51.4867 194.282 51.692C194.142 51.888 194.021 52.07 193.918 52.238C192.835 51.622 191.916 50.8287 191.16 49.858C190.404 48.878 189.774 47.758 189.27 46.498C188.766 45.238 188.346 43.8847 188.01 42.438L189.34 42.158ZM193.274 42.298L194.856 43.404C194.455 43.8147 194.03 44.2393 193.582 44.678C193.134 45.1167 192.686 45.532 192.238 45.924C191.799 46.316 191.384 46.6567 190.992 46.946L189.774 46.008C190.157 45.6907 190.558 45.322 190.978 44.902C191.407 44.482 191.823 44.048 192.224 43.6C192.625 43.1427 192.975 42.7087 193.274 42.298ZM200.008 41.024H207.106V42.62H200.008V41.024ZM206.462 41.024H208.142C208.142 41.024 208.142 41.0753 208.142 41.178C208.142 41.2713 208.142 41.3787 208.142 41.5C208.142 41.612 208.137 41.7053 208.128 41.78C208.091 43.1427 208.058 44.3047 208.03 45.266C208.002 46.218 207.96 47.002 207.904 47.618C207.848 48.234 207.783 48.7147 207.708 49.06C207.643 49.4053 207.554 49.6573 207.442 49.816C207.274 50.0493 207.097 50.2173 206.91 50.32C206.723 50.4227 206.509 50.4927 206.266 50.53C206.042 50.5673 205.757 50.5907 205.412 50.6C205.076 50.6 204.731 50.5953 204.376 50.586C204.367 50.3527 204.315 50.0867 204.222 49.788C204.138 49.4893 204.026 49.2327 203.886 49.018C204.213 49.046 204.516 49.0647 204.796 49.074C205.076 49.074 205.286 49.074 205.426 49.074C205.547 49.074 205.645 49.06 205.72 49.032C205.804 48.9947 205.879 48.934 205.944 48.85C206.019 48.7473 206.084 48.542 206.14 48.234C206.196 47.9167 206.243 47.4687 206.28 46.89C206.317 46.3113 206.35 45.5693 206.378 44.664C206.415 43.7587 206.443 42.662 206.462 41.374V41.024ZM202.514 41.598H204.222C204.203 42.3353 204.166 43.0633 204.11 43.782C204.054 44.4913 203.961 45.182 203.83 45.854C203.699 46.5167 203.513 47.1467 203.27 47.744C203.037 48.3413 202.724 48.8967 202.332 49.41C201.94 49.914 201.445 50.3667 200.848 50.768C200.745 50.5627 200.587 50.3387 200.372 50.096C200.157 49.844 199.952 49.648 199.756 49.508C200.269 49.172 200.689 48.7847 201.016 48.346C201.352 47.9073 201.618 47.4313 201.814 46.918C202.01 46.4047 202.155 45.8633 202.248 45.294C202.341 44.7153 202.407 44.118 202.444 43.502C202.481 42.8767 202.505 42.242 202.514 41.598ZM199.378 45.56V50.726H197.74V47.114H196.116V45.56H199.378ZM199.378 49.998C199.667 50.4553 200.073 50.7913 200.596 51.006C201.119 51.2207 201.744 51.342 202.472 51.37C202.883 51.3887 203.368 51.4027 203.928 51.412C204.497 51.412 205.095 51.4073 205.72 51.398C206.345 51.3887 206.957 51.37 207.554 51.342C208.161 51.314 208.697 51.2813 209.164 51.244C209.108 51.3747 209.043 51.5427 208.968 51.748C208.893 51.9533 208.823 52.1633 208.758 52.378C208.702 52.5927 208.66 52.784 208.632 52.952C208.212 52.98 207.731 52.9987 207.19 53.008C206.649 53.0267 206.093 53.036 205.524 53.036C204.955 53.0453 204.404 53.0453 203.872 53.036C203.34 53.0267 202.864 53.0127 202.444 52.994C201.585 52.9567 200.853 52.8213 200.246 52.588C199.639 52.364 199.103 51.9813 198.636 51.44C198.328 51.7013 198.011 51.972 197.684 52.252C197.367 52.532 197.017 52.8213 196.634 53.12L195.808 51.37C196.135 51.174 196.475 50.9593 196.83 50.726C197.185 50.4927 197.525 50.25 197.852 49.998H199.378ZM196.13 41.444L197.376 40.436C197.665 40.6227 197.959 40.842 198.258 41.094C198.557 41.3367 198.837 41.5887 199.098 41.85C199.359 42.102 199.569 42.3353 199.728 42.55L198.398 43.67C198.258 43.446 198.062 43.2033 197.81 42.942C197.567 42.6807 197.297 42.4193 196.998 42.158C196.699 41.8873 196.41 41.6493 196.13 41.444Z" fill="white"/>
</g>
<defs>
<filter id="filter0_d_236_122" x="0" y="0" width="243" height="71" filterUnits="userSpaceOnUse" color-interpolation-filters="sRGB">
<feFlood flood-opacity="0" result="BackgroundImageFix"/>
<feColorMatrix in="SourceAlpha" type="matrix" values="0 0 0 0 0 0 0 0 0 0 0 0 0 0 0 0 0 0 127 0" result="hardAlpha"/>
<feOffset dy="1"/>
<feGaussianBlur stdDeviation="2"/>
<feComposite in2="hardAlpha" operator="out"/>
<feColorMatrix type="matrix" values="0 0 0 0 0.776471 0 0 0 0 0.207843 0 0 0 0 0.466667 0 0 0 0.25 0"/>
<feBlend mode="normal" in2="BackgroundImageFix" result="effect1_dropShadow_236_122"/>
<feBlend mode="normal" in="SourceGraphic" in2="effect1_dropShadow_236_122" result="shape"/>
</filter>
<linearGradient id="paint0_linear_236_122" x1="4" y1="34.5" x2="239" y2="34.5" gradientUnits="userSpaceOnUse">
<stop stop-color="#D699B5"/>
<stop offset="1" stop-color="#C63577"/>
</linearGradient>
</defs>
</svg>
