<svg width="30" height="26" viewBox="0 0 30 26" fill="none" xmlns="http://www.w3.org/2000/svg">
<path d="M21.7241 6.5C21.7241 6.79667 21.6331 7.08668 21.4626 7.33336C21.2921 7.58003 21.0498 7.77229 20.7662 7.88582C20.4827 7.99935 20.1707 8.02906 19.8697 7.97118C19.5687 7.9133 19.2922 7.77044 19.0752 7.56066C18.8582 7.35088 18.7104 7.08361 18.6505 6.79264C18.5906 6.50166 18.6214 6.20006 18.7388 5.92598C18.8563 5.65189 19.0551 5.41762 19.3103 5.2528C19.5655 5.08797 19.8655 5 20.1724 5C20.584 5 20.9786 5.15804 21.2696 5.43934C21.5607 5.72064 21.7241 6.10218 21.7241 6.5ZM30 8C30.0001 8.16468 29.9581 8.32683 29.8778 8.47206C29.7975 8.61729 29.6814 8.7411 29.5397 8.8325L26.8966 10.535V13C26.8928 16.4467 25.4747 19.7512 22.9535 22.1884C20.4323 24.6256 17.0138 25.9964 13.4483 26H2.06897C1.67917 26 1.29731 25.8936 0.967364 25.6929C0.637418 25.4923 0.372812 25.2057 0.204027 24.866C0.0352414 24.5264 -0.030856 24.1476 0.0133484 23.7732C0.0575528 23.3988 0.210261 23.0441 0.453881 22.75L0.466812 22.735L11.3793 10.0787V7.61125C11.3793 3.43375 14.8435 0.0200003 19.1004 3.32598e-07H19.1379C20.7861 -0.000474005 22.3916 0.506424 23.7217 1.44722C25.0518 2.38802 26.0375 3.71384 26.5358 5.2325L29.5397 7.1675C29.6814 7.2589 29.7975 7.38271 29.8778 7.52794C29.9581 7.67317 30.0001 7.83532 30 8ZM27.1009 8L25.0733 6.6925C24.8618 6.55652 24.7094 6.35007 24.6453 6.1125C24.3276 4.93448 23.6145 3.89164 22.6179 3.14742C21.6212 2.40319 20.3973 1.99964 19.1379 2H19.1095C15.9879 2.015 13.4483 4.53125 13.4483 7.61125V10.44C13.4487 10.6742 13.364 10.9012 13.2091 11.0813L2.06897 24H5.54742L14.7207 13.36C14.8067 13.2562 14.9132 13.17 15.034 13.1065C15.1549 13.0429 15.2876 13.0033 15.4244 12.99C15.5613 12.9766 15.6996 12.9898 15.8311 13.0287C15.9626 13.0677 16.0848 13.1316 16.1905 13.2167C16.2962 13.3018 16.3832 13.4064 16.4466 13.5245C16.5099 13.6425 16.5483 13.7716 16.5594 13.9041C16.5705 14.0366 16.5542 14.17 16.5113 14.2963C16.4685 14.4227 16.4 14.5395 16.3099 14.64L8.24354 24H13.4483C16.4652 23.9967 19.3576 22.8367 21.4909 20.7745C23.6242 18.7123 24.8242 15.9164 24.8276 13V10C24.8275 9.83532 24.8694 9.67317 24.9497 9.52794C25.0301 9.38271 25.1462 9.2589 25.2879 9.1675L27.1009 8Z" fill="#3CCE79"/>
</svg>
