<svg width="243" height="71" viewBox="0 0 243 71" fill="none" xmlns="http://www.w3.org/2000/svg">
<g filter="url(#filter0_d_302_282)">
<path d="M4 13C4 7.47715 8.47715 3 14 3H229C234.523 3 239 7.47715 239 13V56C239 61.5228 234.523 66 229 66H14C8.47715 66 4 61.5228 4 56V13Z" fill="url(#paint0_linear_302_282)"/>
<path d="M42.4956 25.12C41.5656 25.12 40.7106 25.055 39.9306 24.925V23.95C40.2806 24 40.6656 24.045 41.0856 24.085C41.5056 24.115 41.8606 24.13 42.1506 24.13C42.5506 24.13 42.8656 24.105 43.0956 24.055C43.3356 23.995 43.5306 23.895 43.6806 23.755C43.8206 23.625 43.9106 23.435 43.9506 23.185C44.0006 22.935 44.0256 22.6 44.0256 22.18C44.0256 21.63 44.0056 21.245 43.9656 21.025C43.9256 20.805 43.8306 20.65 43.6806 20.56C43.5406 20.46 43.2856 20.38 42.9156 20.32L41.1756 20.05C40.7556 19.98 40.4406 19.84 40.2306 19.63C40.0206 19.41 39.8806 19.13 39.8106 18.79C39.7506 18.45 39.7206 17.995 39.7206 17.425C39.7206 16.385 39.9406 15.65 40.3806 15.22C40.8206 14.78 41.5256 14.56 42.4956 14.56C43.4256 14.56 44.1856 14.64 44.7756 14.8V15.73C44.1056 15.61 43.4306 15.55 42.7506 15.55C42.3206 15.55 41.9806 15.59 41.7306 15.67C41.4806 15.74 41.2906 15.85 41.1606 16C41.0306 16.15 40.9456 16.335 40.9056 16.555C40.8656 16.775 40.8456 17.055 40.8456 17.395C40.8456 17.855 40.8656 18.19 40.9056 18.4C40.9456 18.6 41.0256 18.74 41.1456 18.82C41.2656 18.9 41.4656 18.965 41.7456 19.015L43.4256 19.285C43.8456 19.355 44.1756 19.46 44.4156 19.6C44.6556 19.74 44.8406 19.98 44.9706 20.32C45.0906 20.61 45.1506 21.185 45.1506 22.045C45.1506 22.815 45.0656 23.42 44.8956 23.86C44.7356 24.3 44.4606 24.62 44.0706 24.82C43.6906 25.02 43.1656 25.12 42.4956 25.12ZM46.821 25V14.68H51.696V15.67H47.946V19.285H51.201V20.275H47.946V24.01H51.696V25H46.821ZM58.2453 25L57.5253 22.135H54.3603L53.6553 25H52.5303L55.2303 14.68H56.7003L59.4003 25H58.2453ZM55.9803 16.045H55.9053L54.6303 21.145H57.2553L55.9803 16.045ZM62.9155 25.12C61.9855 25.12 61.1305 25.055 60.3505 24.925V23.95C60.7005 24 61.0855 24.045 61.5055 24.085C61.9255 24.115 62.2805 24.13 62.5705 24.13C62.9705 24.13 63.2855 24.105 63.5155 24.055C63.7555 23.995 63.9505 23.895 64.1005 23.755C64.2405 23.625 64.3305 23.435 64.3705 23.185C64.4205 22.935 64.4455 22.6 64.4455 22.18C64.4455 21.63 64.4255 21.245 64.3855 21.025C64.3455 20.805 64.2505 20.65 64.1005 20.56C63.9605 20.46 63.7055 20.38 63.3355 20.32L61.5955 20.05C61.1755 19.98 60.8605 19.84 60.6505 19.63C60.4405 19.41 60.3005 19.13 60.2305 18.79C60.1705 18.45 60.1405 17.995 60.1405 17.425C60.1405 16.385 60.3605 15.65 60.8005 15.22C61.2405 14.78 61.9455 14.56 62.9155 14.56C63.8455 14.56 64.6055 14.64 65.1955 14.8V15.73C64.5255 15.61 63.8505 15.55 63.1705 15.55C62.7405 15.55 62.4005 15.59 62.1505 15.67C61.9005 15.74 61.7105 15.85 61.5805 16C61.4505 16.15 61.3655 16.335 61.3255 16.555C61.2855 16.775 61.2655 17.055 61.2655 17.395C61.2655 17.855 61.2855 18.19 61.3255 18.4C61.3655 18.6 61.4455 18.74 61.5655 18.82C61.6855 18.9 61.8855 18.965 62.1655 19.015L63.8455 19.285C64.2655 19.355 64.5955 19.46 64.8355 19.6C65.0755 19.74 65.2605 19.98 65.3905 20.32C65.5105 20.61 65.5705 21.185 65.5705 22.045C65.5705 22.815 65.4855 23.42 65.3155 23.86C65.1555 24.3 64.8805 24.62 64.4905 24.82C64.1105 25.02 63.5855 25.12 62.9155 25.12ZM70.0759 25.12C69.0959 25.12 68.3959 24.985 67.9759 24.715C67.5559 24.445 67.2859 23.97 67.1659 23.29C67.0459 22.6 66.9859 21.45 66.9859 19.84C66.9859 18.23 67.0459 17.085 67.1659 16.405C67.2859 15.715 67.5559 15.235 67.9759 14.965C68.3959 14.695 69.0959 14.56 70.0759 14.56C71.0559 14.56 71.7559 14.695 72.1759 14.965C72.5959 15.235 72.8659 15.715 72.9859 16.405C73.1059 17.085 73.1659 18.23 73.1659 19.84C73.1659 21.45 73.1059 22.6 72.9859 23.29C72.8659 23.97 72.5959 24.445 72.1759 24.715C71.7559 24.985 71.0559 25.12 70.0759 25.12ZM70.0759 24.13C70.7159 24.13 71.1609 24.055 71.4109 23.905C71.6609 23.755 71.8259 23.4 71.9059 22.84C71.9859 22.28 72.0259 21.28 72.0259 19.84C72.0259 18.4 71.9859 17.4 71.9059 16.84C71.8259 16.28 71.6609 15.925 71.4109 15.775C71.1609 15.625 70.7159 15.55 70.0759 15.55C69.4359 15.55 68.9909 15.625 68.7409 15.775C68.4909 15.925 68.3259 16.28 68.2459 16.84C68.1659 17.4 68.1259 18.4 68.1259 19.84C68.1259 21.28 68.1659 22.28 68.2459 22.84C68.3259 23.4 68.4909 23.755 68.7409 23.905C68.9909 24.055 69.4359 24.13 70.0759 24.13ZM79.6996 25L76.1446 17.065H76.0846V25H75.0046V14.68H76.1896L79.6846 22.48H79.7446V14.68H80.8246V25H79.6996Z" fill="white"/>
<path d="M158.119 25V20.305H154.534V25H153.424V14.68H154.534V19.285H158.119V14.68H159.229V25H158.119ZM166.269 25L165.549 22.135H162.384L161.679 25H160.554L163.254 14.68H164.724L167.424 25H166.269ZM164.004 16.045H163.929L162.654 21.145H165.279L164.004 16.045ZM168.746 14.68H171.881C172.731 14.68 173.341 14.9 173.711 15.34C174.081 15.78 174.266 16.42 174.266 17.26C174.266 17.97 174.141 18.525 173.891 18.925C173.651 19.315 173.266 19.57 172.736 19.69V19.75C173.356 19.88 173.781 20.16 174.011 20.59C174.241 21.01 174.356 21.575 174.356 22.285C174.356 23.125 174.176 23.79 173.816 24.28C173.456 24.76 172.791 25 171.821 25H168.746V14.68ZM171.566 19.27C172.096 19.27 172.491 19.125 172.751 18.835C173.011 18.545 173.141 18.09 173.141 17.47C173.141 17.02 173.096 16.67 173.006 16.42C172.916 16.16 172.756 15.97 172.526 15.85C172.306 15.73 171.986 15.67 171.566 15.67H169.856V19.27H171.566ZM171.611 24.01C172.231 24.01 172.651 23.87 172.871 23.59C173.101 23.31 173.216 22.83 173.216 22.15C173.216 21.46 173.096 20.975 172.856 20.695C172.616 20.405 172.201 20.26 171.611 20.26H169.856V24.01H171.611ZM176.174 25V14.68H177.299V25H176.174ZM180.91 25V15.7H178.615V14.68H184.33V15.7H182.035V25H180.91ZM189.779 25L189.059 22.135H185.894L185.189 25H184.064L186.764 14.68H188.234L190.934 25H189.779ZM187.514 16.045H187.439L186.164 21.145H188.789L187.514 16.045ZM192.965 25V15.7H190.67V14.68H196.385V15.7H194.09V25H192.965Z" fill="white"/>
<path d="M35.6662 52.196C35.1809 52.196 34.7095 52.0933 34.2522 51.888C33.8042 51.6827 33.4075 51.37 33.0622 50.95C32.7169 50.5207 32.4415 49.9793 32.2362 49.326C32.0402 48.6633 31.9422 47.8747 31.9422 46.96C31.9422 45.9987 32.0495 45.168 32.2642 44.468C32.4882 43.768 32.7869 43.1987 33.1602 42.76C33.5335 42.312 33.9582 41.9807 34.4342 41.766C34.9195 41.5513 35.4282 41.444 35.9602 41.444C36.5949 41.444 37.1409 41.5607 37.5982 41.794C38.0649 42.018 38.4522 42.2933 38.7602 42.62L37.6682 43.852C37.4909 43.6467 37.2575 43.4693 36.9682 43.32C36.6789 43.1707 36.3849 43.096 36.0862 43.096C35.6662 43.096 35.2835 43.2173 34.9382 43.46C34.6022 43.7027 34.3315 44.104 34.1262 44.664C33.9209 45.224 33.8182 45.9893 33.8182 46.96C33.8182 47.856 33.8975 48.5747 34.0562 49.116C34.2242 49.648 34.4435 50.0353 34.7142 50.278C34.9849 50.5207 35.2882 50.642 35.6242 50.642C35.8855 50.642 36.1189 50.572 36.3242 50.432C36.5389 50.2827 36.7115 50.068 36.8422 49.788C36.9729 49.4987 37.0382 49.144 37.0382 48.724C37.0382 48.3133 36.9729 47.9773 36.8422 47.716C36.7209 47.4547 36.5482 47.2587 36.3242 47.128C36.1095 46.9973 35.8529 46.932 35.5542 46.932C35.2742 46.932 34.9802 47.0207 34.6722 47.198C34.3642 47.366 34.0795 47.6647 33.8182 48.094L33.7202 46.708C33.9069 46.4467 34.1262 46.2227 34.3782 46.036C34.6395 45.8493 34.9055 45.7093 35.1762 45.616C35.4562 45.5227 35.7082 45.476 35.9322 45.476C36.5109 45.476 37.0242 45.5927 37.4722 45.826C37.9295 46.0593 38.2842 46.414 38.5362 46.89C38.7882 47.366 38.9142 47.9773 38.9142 48.724C38.9142 49.4333 38.7649 50.0493 38.4662 50.572C38.1769 51.0853 37.7849 51.4867 37.2902 51.776C36.7955 52.056 36.2542 52.196 35.6662 52.196ZM43.28 40.772H50.266V42.41H43.28V40.772ZM43.294 44.118H50.336V45.714H43.294V44.118ZM43.21 47.422H50.238V49.06H43.21V47.422ZM42.118 40.772H43.854V45.406C43.854 46.0127 43.8167 46.666 43.742 47.366C43.6767 48.066 43.5507 48.7753 43.364 49.494C43.1773 50.2127 42.902 50.894 42.538 51.538C42.174 52.182 41.6933 52.756 41.096 53.26C41.012 53.1387 40.8907 52.9987 40.732 52.84C40.5827 52.6813 40.4193 52.5273 40.242 52.378C40.074 52.2287 39.9247 52.1167 39.794 52.042C40.326 51.594 40.746 51.0993 41.054 50.558C41.3713 50.0073 41.6047 49.438 41.754 48.85C41.9127 48.262 42.0107 47.674 42.048 47.086C42.0947 46.498 42.118 45.9333 42.118 45.392V40.772ZM49.482 40.772H51.274V51.118C51.274 51.622 51.204 52.0093 51.064 52.28C50.9333 52.5507 50.7047 52.756 50.378 52.896C50.042 53.0453 49.622 53.134 49.118 53.162C48.614 53.1993 47.998 53.218 47.27 53.218C47.2327 53.05 47.1767 52.8587 47.102 52.644C47.0273 52.4293 46.9433 52.2147 46.85 52C46.7567 51.7853 46.6633 51.6033 46.57 51.454C46.8967 51.4727 47.228 51.4867 47.564 51.496C47.9093 51.496 48.2127 51.496 48.474 51.496C48.7447 51.496 48.936 51.496 49.048 51.496C49.2067 51.496 49.3187 51.468 49.384 51.412C49.4493 51.3467 49.482 51.2393 49.482 51.09V40.772ZM59.87 47.282C59.562 46.9647 59.2587 46.7173 58.96 46.54C58.6613 46.3627 58.2693 46.274 57.784 46.274C57.336 46.274 56.916 46.4327 56.524 46.75C56.1413 47.058 55.8193 47.4593 55.558 47.954L54.018 47.114C54.494 46.246 55.0587 45.602 55.712 45.182C56.3653 44.7527 57.07 44.538 57.826 44.538C58.498 44.538 59.0953 44.664 59.618 44.916C60.15 45.168 60.654 45.5553 61.13 46.078C61.438 46.3953 61.7413 46.6427 62.04 46.82C62.348 46.9973 62.74 47.086 63.216 47.086C63.664 47.086 64.0793 46.932 64.462 46.624C64.854 46.3067 65.1807 45.9007 65.442 45.406L66.982 46.246C66.506 47.114 65.9413 47.7627 65.288 48.192C64.6347 48.612 63.93 48.822 63.174 48.822C62.5113 48.822 61.914 48.696 61.382 48.444C60.85 48.192 60.346 47.8047 59.87 47.282ZM71.63 52.196C70.9673 52.196 70.3747 52.0793 69.852 51.846C69.3293 51.6127 68.914 51.286 68.606 50.866C68.3073 50.446 68.158 49.9653 68.158 49.424C68.158 48.976 68.2373 48.584 68.396 48.248C68.564 47.9027 68.7833 47.604 69.054 47.352C69.3247 47.1 69.6187 46.89 69.936 46.722V46.652C69.544 46.372 69.2173 46.0313 68.956 45.63C68.6947 45.2193 68.564 44.7433 68.564 44.202C68.564 43.642 68.6993 43.1567 68.97 42.746C69.2407 42.3353 69.6093 42.018 70.076 41.794C70.552 41.57 71.0887 41.458 71.686 41.458C72.302 41.458 72.834 41.5747 73.282 41.808C73.73 42.032 74.0753 42.3493 74.318 42.76C74.57 43.1707 74.696 43.656 74.696 44.216C74.696 44.552 74.6307 44.8693 74.5 45.168C74.3787 45.4667 74.2153 45.7373 74.01 45.98C73.814 46.2133 73.5993 46.414 73.366 46.582V46.652C73.6927 46.82 73.9867 47.03 74.248 47.282C74.5093 47.534 74.7193 47.8373 74.878 48.192C75.0367 48.5373 75.116 48.948 75.116 49.424C75.116 49.9467 74.9667 50.418 74.668 50.838C74.3787 51.258 73.9727 51.5893 73.45 51.832C72.9273 52.0747 72.3207 52.196 71.63 52.196ZM72.274 46.078C72.526 45.8073 72.7127 45.5273 72.834 45.238C72.9553 44.9487 73.016 44.65 73.016 44.342C73.016 44.062 72.96 43.8147 72.848 43.6C72.7453 43.376 72.5913 43.2033 72.386 43.082C72.1807 42.9607 71.9333 42.9 71.644 42.9C71.2893 42.9 70.9907 43.012 70.748 43.236C70.5053 43.46 70.384 43.782 70.384 44.202C70.384 44.5193 70.4633 44.7947 70.622 45.028C70.79 45.252 71.0187 45.448 71.308 45.616C71.5973 45.7747 71.9193 45.9287 72.274 46.078ZM71.672 50.74C71.9707 50.74 72.232 50.6887 72.456 50.586C72.6893 50.474 72.8713 50.3153 73.002 50.11C73.1327 49.8953 73.198 49.6433 73.198 49.354C73.198 49.0833 73.1373 48.85 73.016 48.654C72.904 48.4487 72.7453 48.2713 72.54 48.122C72.3347 47.9633 72.092 47.8187 71.812 47.688C71.532 47.5573 71.224 47.4173 70.888 47.268C70.608 47.5013 70.3793 47.786 70.202 48.122C70.0247 48.4487 69.936 48.808 69.936 49.2C69.936 49.508 70.0107 49.7787 70.16 50.012C70.3187 50.236 70.5287 50.4133 70.79 50.544C71.0513 50.6747 71.3453 50.74 71.672 50.74ZM79.5378 40.772H86.5238V42.41H79.5378V40.772ZM79.5518 44.118H86.5938V45.714H79.5518V44.118ZM79.4678 47.422H86.4958V49.06H79.4678V47.422ZM78.3758 40.772H80.1118V45.406C80.1118 46.0127 80.0745 46.666 79.9998 47.366C79.9345 48.066 79.8085 48.7753 79.6218 49.494C79.4351 50.2127 79.1598 50.894 78.7958 51.538C78.4318 52.182 77.9511 52.756 77.3538 53.26C77.2698 53.1387 77.1485 52.9987 76.9898 52.84C76.8405 52.6813 76.6771 52.5273 76.4998 52.378C76.3318 52.2287 76.1825 52.1167 76.0518 52.042C76.5838 51.594 77.0038 51.0993 77.3118 50.558C77.6291 50.0073 77.8625 49.438 78.0118 48.85C78.1705 48.262 78.2685 47.674 78.3058 47.086C78.3525 46.498 78.3758 45.9333 78.3758 45.392V40.772ZM85.7398 40.772H87.5318V51.118C87.5318 51.622 87.4618 52.0093 87.3218 52.28C87.1911 52.5507 86.9625 52.756 86.6358 52.896C86.2998 53.0453 85.8798 53.134 85.3758 53.162C84.8718 53.1993 84.2558 53.218 83.5278 53.218C83.4905 53.05 83.4345 52.8587 83.3598 52.644C83.2851 52.4293 83.2011 52.2147 83.1078 52C83.0145 51.7853 82.9211 51.6033 82.8278 51.454C83.1545 51.4727 83.4858 51.4867 83.8218 51.496C84.1671 51.496 84.4705 51.496 84.7318 51.496C85.0025 51.496 85.1938 51.496 85.3058 51.496C85.4645 51.496 85.5765 51.468 85.6418 51.412C85.7071 51.3467 85.7398 51.2393 85.7398 51.09V40.772Z" fill="white"/>
<path d="M147.354 41.262H159.646V42.704H147.354V41.262ZM152.548 40.086H154.27V41.976H152.548V40.086ZM147.9 46.918H158.148V48.304H149.538V53.26H147.9V46.918ZM157.518 46.918H159.198V51.482C159.198 51.8647 159.151 52.1727 159.058 52.406C158.965 52.6487 158.783 52.8353 158.512 52.966C158.241 53.0873 157.919 53.162 157.546 53.19C157.173 53.218 156.729 53.232 156.216 53.232C156.188 52.9987 156.123 52.728 156.02 52.42C155.917 52.1213 155.81 51.8693 155.698 51.664C156.025 51.6733 156.337 51.6827 156.636 51.692C156.944 51.692 157.145 51.6873 157.238 51.678C157.35 51.6687 157.425 51.65 157.462 51.622C157.499 51.594 157.518 51.538 157.518 51.454V46.918ZM150.798 48.948H152.254V52.742H150.798V48.948ZM151.54 48.948H156.174V52.098H151.54V50.964H154.704V50.082H151.54V48.948ZM151.246 44.356V45.21H155.642V44.356H151.246ZM149.65 43.236H157.35V46.33H149.65V43.236ZM162.348 40.688H164.042V44.818C164.042 45.434 164.019 46.106 163.972 46.834C163.935 47.562 163.855 48.3087 163.734 49.074C163.613 49.83 163.44 50.5673 163.216 51.286C162.992 51.9953 162.698 52.6393 162.334 53.218C162.222 53.1247 162.077 53.022 161.9 52.91C161.723 52.798 161.536 52.6907 161.34 52.588C161.153 52.4853 160.99 52.406 160.85 52.35C161.195 51.818 161.471 51.2347 161.676 50.6C161.881 49.956 162.031 49.298 162.124 48.626C162.217 47.954 162.278 47.2913 162.306 46.638C162.334 45.9847 162.348 45.378 162.348 44.818V40.688ZM163.314 40.688H173.142V43.992H163.314V42.718H171.448V41.976H163.314V40.688ZM165.596 44.076L166.87 43.656C167.029 43.8147 167.173 43.9967 167.304 44.202C167.444 44.398 167.542 44.5753 167.598 44.734L166.254 45.196C166.207 45.0373 166.123 44.8553 166.002 44.65C165.881 44.4353 165.745 44.244 165.596 44.076ZM170.426 43.656L171.896 44.02C171.709 44.2533 171.527 44.4633 171.35 44.65C171.173 44.8367 171.009 45 170.86 45.14L169.67 44.776C169.801 44.6173 169.936 44.4307 170.076 44.216C170.225 44.0013 170.342 43.8147 170.426 43.656ZM165.022 48.934H172.638V53.26H170.944V49.956H166.632V53.26H165.022V48.934ZM166.016 47.044V47.604H171.504V47.044H166.016ZM166.016 45.63V46.176H171.504V45.63H166.016ZM164.462 44.72H173.128V48.514H164.462V44.72ZM167.948 45.098H169.488V47.968H167.948V45.098ZM166.072 50.46H171.546V51.356H166.072V50.46ZM166.072 51.888H171.546V52.896H166.072V51.888ZM181.164 44.16V45.014H185.504V44.16H181.164ZM181.164 42.032V42.886H185.504V42.032H181.164ZM179.582 40.66H187.156V46.386H179.582V40.66ZM178.28 51.398H188.066V52.854H178.28V51.398ZM178.84 47.772L180.184 47.31C180.371 47.6367 180.539 47.9913 180.688 48.374C180.847 48.7567 180.982 49.1347 181.094 49.508C181.215 49.8813 181.304 50.2127 181.36 50.502L179.904 51.034C179.876 50.7353 179.806 50.3993 179.694 50.026C179.591 49.6433 179.465 49.256 179.316 48.864C179.167 48.472 179.008 48.108 178.84 47.772ZM186.414 47.254L188.024 47.702C187.865 48.0847 187.697 48.4767 187.52 48.878C187.343 49.2793 187.165 49.662 186.988 50.026C186.82 50.3807 186.657 50.6933 186.498 50.964L185.252 50.544C185.392 50.2453 185.537 49.9093 185.686 49.536C185.835 49.1533 185.971 48.7613 186.092 48.36C186.223 47.9587 186.33 47.59 186.414 47.254ZM181.374 46.722H182.914V52.196H181.374V46.722ZM183.754 46.722H185.322V52.196H183.754V46.722ZM175.718 41.5L176.642 40.268C176.931 40.3707 177.235 40.5013 177.552 40.66C177.869 40.8093 178.168 40.9727 178.448 41.15C178.737 41.318 178.971 41.4813 179.148 41.64L178.168 42.998C178 42.8393 177.776 42.6713 177.496 42.494C177.225 42.3073 176.931 42.1253 176.614 41.948C176.306 41.7707 176.007 41.6213 175.718 41.5ZM174.892 45.042L175.816 43.838C176.105 43.95 176.413 44.09 176.74 44.258C177.076 44.426 177.389 44.6033 177.678 44.79C177.977 44.9673 178.215 45.1447 178.392 45.322L177.412 46.666C177.244 46.4887 177.015 46.3067 176.726 46.12C176.446 45.924 176.143 45.7327 175.816 45.546C175.499 45.35 175.191 45.182 174.892 45.042ZM175.186 51.958C175.382 51.594 175.597 51.174 175.83 50.698C176.073 50.2127 176.315 49.6993 176.558 49.158C176.81 48.6167 177.039 48.0753 177.244 47.534L178.56 48.5C178.373 48.9947 178.173 49.4987 177.958 50.012C177.753 50.516 177.543 51.0153 177.328 51.51C177.113 51.9953 176.894 52.4667 176.67 52.924L175.186 51.958ZM191.048 40.73H201.814V42.242H191.048V40.73ZM190.054 40.73H191.706V44.888C191.706 45.4947 191.687 46.1573 191.65 46.876C191.622 47.5947 191.557 48.332 191.454 49.088C191.361 49.844 191.216 50.5813 191.02 51.3C190.833 52.0093 190.586 52.6533 190.278 53.232C190.175 53.1293 190.031 53.022 189.844 52.91C189.667 52.8073 189.48 52.7047 189.284 52.602C189.097 52.5087 188.934 52.4387 188.794 52.392C189.093 51.86 189.326 51.2767 189.494 50.642C189.662 49.998 189.783 49.34 189.858 48.668C189.942 47.9867 189.993 47.324 190.012 46.68C190.04 46.036 190.054 45.4387 190.054 44.888V40.73ZM194.282 46.442V47.254H199.056V46.442H194.282ZM194.282 44.482V45.28H199.056V44.482H194.282ZM192.644 43.222H200.792V48.514H192.644V43.222ZM195.864 47.814H197.488V51.622C197.488 51.9953 197.441 52.294 197.348 52.518C197.264 52.742 197.091 52.91 196.83 53.022C196.569 53.134 196.251 53.1993 195.878 53.218C195.505 53.246 195.071 53.26 194.576 53.26C194.539 53.0453 194.473 52.798 194.38 52.518C194.296 52.238 194.203 51.9907 194.1 51.776C194.408 51.7853 194.711 51.7947 195.01 51.804C195.309 51.804 195.505 51.7993 195.598 51.79C195.701 51.79 195.771 51.776 195.808 51.748C195.845 51.72 195.864 51.664 195.864 51.58V47.814ZM195.584 42.116L197.6 42.256C197.497 42.6107 197.395 42.942 197.292 43.25C197.199 43.5487 197.119 43.8053 197.054 44.02L195.318 43.838C195.355 43.67 195.388 43.4833 195.416 43.278C195.453 43.0727 195.486 42.872 195.514 42.676C195.551 42.4707 195.575 42.284 195.584 42.116ZM198.174 49.69L199.462 48.892C199.77 49.1533 200.092 49.4473 200.428 49.774C200.764 50.1007 201.077 50.4273 201.366 50.754C201.665 51.0713 201.898 51.37 202.066 51.65L200.68 52.532C200.531 52.2613 200.316 51.9627 200.036 51.636C199.756 51.3 199.453 50.964 199.126 50.628C198.809 50.2827 198.491 49.97 198.174 49.69ZM193.498 48.962L195.122 49.41C194.795 50.026 194.385 50.6233 193.89 51.202C193.405 51.7713 192.915 52.2473 192.42 52.63C192.308 52.5367 192.168 52.4247 192 52.294C191.841 52.1727 191.673 52.056 191.496 51.944C191.319 51.8227 191.165 51.7247 191.034 51.65C191.538 51.342 192.009 50.95 192.448 50.474C192.887 49.9887 193.237 49.4847 193.498 48.962Z" fill="white"/>
</g>
<defs>
<filter id="filter0_d_302_282" x="0" y="0" width="243" height="71" filterUnits="userSpaceOnUse" color-interpolation-filters="sRGB">
<feFlood flood-opacity="0" result="BackgroundImageFix"/>
<feColorMatrix in="SourceAlpha" type="matrix" values="0 0 0 0 0 0 0 0 0 0 0 0 0 0 0 0 0 0 127 0" result="hardAlpha"/>
<feOffset dy="1"/>
<feGaussianBlur stdDeviation="2"/>
<feComposite in2="hardAlpha" operator="out"/>
<feColorMatrix type="matrix" values="0 0 0 0 0.776471 0 0 0 0 0.207843 0 0 0 0 0.466667 0 0 0 0.25 0"/>
<feBlend mode="normal" in2="BackgroundImageFix" result="effect1_dropShadow_302_282"/>
<feBlend mode="normal" in="SourceGraphic" in2="effect1_dropShadow_302_282" result="shape"/>
</filter>
<linearGradient id="paint0_linear_302_282" x1="4" y1="34.5" x2="239" y2="34.5" gradientUnits="userSpaceOnUse">
<stop stop-color="#E6AD16"/>
<stop offset="1" stop-color="#BAC635"/>
</linearGradient>
</defs>
</svg>
