<svg width="168" height="146" viewBox="0 0 168 146" fill="none" xmlns="http://www.w3.org/2000/svg">
<path d="M53.998 10.386H57.75V11.436H53.998V10.386ZM53.998 12.794H57.764V13.844H53.998V12.794ZM51.198 15.23H60.9V16.448H51.198V15.23ZM50.372 7.852H61.614V17.176H60.27V9.084H51.66V17.176H50.372V7.852ZM53.41 8.65H54.614V15.79H53.41V8.65ZM57.218 8.65H58.422V15.748H57.218V8.65ZM55.132 5.64L56.686 5.976C56.5367 6.46133 56.3827 6.956 56.224 7.46C56.0747 7.964 55.93 8.39333 55.79 8.748L54.586 8.426C54.6607 8.16467 54.7353 7.87067 54.81 7.544C54.8847 7.21733 54.95 6.886 55.006 6.55C55.062 6.214 55.104 5.91067 55.132 5.64ZM49.77 5.052H62.286V6.312H49.77V5.052ZM65.702 5.402H66.99V17.162H65.702V5.402ZM63.658 8.048H68.488V9.28H63.658V8.048ZM65.814 8.608L66.612 8.944C66.472 9.448 66.304 9.97067 66.108 10.512C65.912 11.044 65.6973 11.5713 65.464 12.094C65.24 12.6167 64.9973 13.1067 64.736 13.564C64.4747 14.0213 64.2133 14.4133 63.952 14.74C63.8773 14.5533 63.7747 14.3433 63.644 14.11C63.5227 13.8673 63.4107 13.6667 63.308 13.508C63.5507 13.228 63.7933 12.8967 64.036 12.514C64.288 12.122 64.526 11.7067 64.75 11.268C64.974 10.82 65.1747 10.3673 65.352 9.91C65.5387 9.45267 65.6927 9.01867 65.814 8.608ZM67.816 4.352L68.712 5.374C68.2827 5.542 67.7927 5.696 67.242 5.836C66.7007 5.96667 66.1453 6.08333 65.576 6.186C65.0067 6.27933 64.456 6.35867 63.924 6.424C63.896 6.27467 63.8447 6.102 63.77 5.906C63.6953 5.71 63.6207 5.542 63.546 5.402C64.05 5.318 64.5633 5.22467 65.086 5.122C65.618 5.01933 66.122 4.90267 66.598 4.772C67.074 4.64133 67.48 4.50133 67.816 4.352ZM66.878 9.882C66.9713 9.95667 67.1067 10.0827 67.284 10.26C67.4613 10.4373 67.6527 10.6287 67.858 10.834C68.0633 11.0393 68.25 11.2353 68.418 11.422C68.5953 11.5993 68.7167 11.73 68.782 11.814L68.012 12.85C67.928 12.7007 67.8113 12.5187 67.662 12.304C67.522 12.08 67.3633 11.8467 67.186 11.604C67.0087 11.3613 66.8407 11.1327 66.682 10.918C66.5327 10.7033 66.402 10.5307 66.29 10.4L66.878 9.882ZM71.736 4.184H73.052V8.538H71.736V4.184ZM68.852 4.898H76.132V5.752H68.852V4.898ZM69.146 6.354H75.796V7.18H69.146V6.354ZM68.418 7.796H76.454V8.678H68.418V7.796ZM70.532 11.702V12.472H74.452V11.702H70.532ZM70.532 13.284V14.068H74.452V13.284H70.532ZM70.532 10.134V10.89H74.452V10.134H70.532ZM69.328 9.28H75.712V14.922H69.328V9.28ZM73.038 15.552L73.934 14.908C74.2513 15.0853 74.5733 15.272 74.9 15.468C75.2267 15.664 75.5393 15.8553 75.838 16.042C76.146 16.238 76.4073 16.4107 76.622 16.56L75.46 17.19C75.2733 17.05 75.0447 16.8867 74.774 16.7C74.5127 16.5133 74.2327 16.3173 73.934 16.112C73.6353 15.916 73.3367 15.7293 73.038 15.552ZM70.896 14.852L71.974 15.538C71.694 15.7527 71.3627 15.9673 70.98 16.182C70.6067 16.406 70.21 16.6067 69.79 16.784C69.3793 16.9707 68.9827 17.1247 68.6 17.246C68.5067 17.1153 68.376 16.966 68.208 16.798C68.0493 16.6393 67.9047 16.504 67.774 16.392C68.1567 16.28 68.544 16.14 68.936 15.972C69.3373 15.804 69.7107 15.622 70.056 15.426C70.4013 15.23 70.6813 15.0387 70.896 14.852ZM85.064 6.424C84.9707 7.14267 84.8493 7.90333 84.7 8.706C84.56 9.49933 84.3687 10.288 84.126 11.072C83.846 12.024 83.5287 12.8313 83.174 13.494C82.8287 14.1473 82.4507 14.6467 82.04 14.992C81.6293 15.3373 81.1953 15.51 80.738 15.51C80.2713 15.51 79.8373 15.3513 79.436 15.034C79.0347 14.7073 78.708 14.2547 78.456 13.676C78.204 13.088 78.078 12.4067 78.078 11.632C78.078 10.848 78.2367 10.106 78.554 9.406C78.8807 8.706 79.3287 8.08533 79.898 7.544C80.4673 7.00267 81.13 6.578 81.886 6.27C82.642 5.962 83.4587 5.808 84.336 5.808C85.176 5.808 85.932 5.94333 86.604 6.214C87.2853 6.48467 87.864 6.86267 88.34 7.348C88.8253 7.824 89.194 8.384 89.446 9.028C89.698 9.672 89.824 10.358 89.824 11.086C89.824 12.066 89.6187 12.9387 89.208 13.704C88.8067 14.46 88.214 15.0807 87.43 15.566C86.646 16.042 85.6847 16.364 84.546 16.532L83.72 15.216C83.9627 15.188 84.1867 15.16 84.392 15.132C84.5973 15.0947 84.7887 15.0573 84.966 15.02C85.414 14.9173 85.8387 14.7587 86.24 14.544C86.6507 14.3293 87.0147 14.0587 87.332 13.732C87.6493 13.396 87.8967 13.004 88.074 12.556C88.2607 12.108 88.354 11.604 88.354 11.044C88.354 10.484 88.2653 9.966 88.088 9.49C87.9107 9.00467 87.6493 8.58467 87.304 8.23C86.9587 7.87533 86.534 7.6 86.03 7.404C85.526 7.19867 84.9567 7.096 84.322 7.096C83.5567 7.096 82.8753 7.23133 82.278 7.502C81.6807 7.77267 81.172 8.132 80.752 8.58C80.3413 9.01867 80.0287 9.49467 79.814 10.008C79.5993 10.5213 79.492 11.016 79.492 11.492C79.492 12.024 79.5573 12.4673 79.688 12.822C79.8187 13.1673 79.982 13.424 80.178 13.592C80.374 13.76 80.5747 13.844 80.78 13.844C80.9853 13.844 81.1953 13.7413 81.41 13.536C81.6247 13.3213 81.8393 12.9853 82.054 12.528C82.278 12.0707 82.4973 11.4873 82.712 10.778C82.9267 10.106 83.104 9.392 83.244 8.636C83.3933 7.87067 83.5007 7.124 83.566 6.396L85.064 6.424ZM101.766 4.898L102.494 4.226C102.821 4.41267 103.161 4.64133 103.516 4.912C103.88 5.18267 104.155 5.43 104.342 5.654L103.586 6.41C103.409 6.186 103.147 5.934 102.802 5.654C102.457 5.36467 102.111 5.11267 101.766 4.898ZM97.482 10.456H100.156V14.306H97.482V13.312H99.232V11.436H97.482V10.456ZM103.026 8.622L104.174 8.832C103.745 10.708 103.115 12.3367 102.284 13.718C101.463 15.0993 100.408 16.224 99.12 17.092C99.064 17.0173 98.98 16.924 98.868 16.812C98.7653 16.7 98.658 16.588 98.546 16.476C98.434 16.3733 98.3313 16.2847 98.238 16.21C99.5073 15.454 100.529 14.432 101.304 13.144C102.079 11.856 102.653 10.3487 103.026 8.622ZM95.242 6.34H96.404V10.176C96.404 10.6987 96.3853 11.2633 96.348 11.87C96.3107 12.4767 96.2407 13.0973 96.138 13.732C96.0447 14.3573 95.9 14.9687 95.704 15.566C95.5173 16.154 95.2653 16.6953 94.948 17.19C94.8827 17.1153 94.7847 17.0313 94.654 16.938C94.5327 16.854 94.4067 16.77 94.276 16.686C94.1453 16.602 94.0333 16.5413 93.94 16.504C94.332 15.8973 94.6213 15.2253 94.808 14.488C94.9947 13.7413 95.1113 12.9947 95.158 12.248C95.214 11.5013 95.242 10.8107 95.242 10.176V6.34ZM95.956 6.34H104.314V7.516H95.956V6.34ZM96.936 8.496H100.142V9.49H96.936V8.496ZM96.964 10.456H97.86V15.104H96.964V10.456ZM92.134 5.248L92.876 4.296C93.1467 4.39867 93.4267 4.534 93.716 4.702C94.0147 4.86067 94.2947 5.024 94.556 5.192C94.8267 5.35067 95.0413 5.50933 95.2 5.668L94.416 6.732C94.2573 6.57333 94.0473 6.40533 93.786 6.228C93.534 6.05067 93.2633 5.878 92.974 5.71C92.6847 5.53267 92.4047 5.37867 92.134 5.248ZM91.462 9.042L92.204 8.062C92.4747 8.16467 92.7547 8.29067 93.044 8.44C93.3427 8.58 93.6227 8.734 93.884 8.902C94.1547 9.06067 94.374 9.21467 94.542 9.364L93.758 10.442C93.6087 10.2927 93.4033 10.134 93.142 9.966C92.89 9.78867 92.6147 9.62067 92.316 9.462C92.0267 9.294 91.742 9.154 91.462 9.042ZM91.616 16.224C91.812 15.8507 92.022 15.4073 92.246 14.894C92.47 14.3713 92.694 13.8207 92.918 13.242C93.1513 12.6633 93.3567 12.0987 93.534 11.548L94.598 12.248C94.43 12.752 94.2433 13.2793 94.038 13.83C93.842 14.3713 93.6413 14.908 93.436 15.44C93.2307 15.9627 93.0253 16.4527 92.82 16.91L91.616 16.224ZM100.296 4.324H101.514C101.533 5.50933 101.57 6.65733 101.626 7.768C101.691 8.87867 101.775 9.90533 101.878 10.848C101.99 11.7907 102.116 12.6167 102.256 13.326C102.405 14.0353 102.564 14.5907 102.732 14.992C102.909 15.384 103.096 15.5847 103.292 15.594C103.404 15.6033 103.497 15.426 103.572 15.062C103.656 14.698 103.721 14.18 103.768 13.508C103.843 13.592 103.941 13.6807 104.062 13.774C104.183 13.858 104.305 13.9373 104.426 14.012C104.557 14.0867 104.655 14.1427 104.72 14.18C104.617 14.9827 104.487 15.5987 104.328 16.028C104.179 16.4573 104.011 16.7513 103.824 16.91C103.637 17.078 103.455 17.162 103.278 17.162C102.849 17.1527 102.475 16.938 102.158 16.518C101.841 16.098 101.57 15.5053 101.346 14.74C101.131 13.9653 100.949 13.046 100.8 11.982C100.66 10.918 100.548 9.742 100.464 8.454C100.38 7.15667 100.324 5.78 100.296 4.324ZM111.328 4.184H112.672V11.17C112.672 11.5527 112.625 11.8467 112.532 12.052C112.439 12.2573 112.257 12.416 111.986 12.528C111.725 12.6307 111.389 12.7007 110.978 12.738C110.567 12.766 110.068 12.78 109.48 12.78C109.461 12.584 109.405 12.3553 109.312 12.094C109.219 11.8327 109.121 11.6087 109.018 11.422C109.307 11.422 109.587 11.4267 109.858 11.436C110.129 11.436 110.362 11.436 110.558 11.436C110.763 11.436 110.908 11.436 110.992 11.436C111.123 11.4267 111.211 11.4033 111.258 11.366C111.305 11.3287 111.328 11.2587 111.328 11.156V4.184ZM114.366 6.41L115.57 5.78C115.971 6.24667 116.368 6.75533 116.76 7.306C117.152 7.85667 117.511 8.40267 117.838 8.944C118.165 9.476 118.412 9.966 118.58 10.414L117.236 11.128C117.087 10.6987 116.858 10.2087 116.55 9.658C116.242 9.10733 115.897 8.552 115.514 7.992C115.141 7.42267 114.758 6.89533 114.366 6.41ZM115.164 10.12L116.564 10.526C116.228 11.562 115.794 12.458 115.262 13.214C114.73 13.9607 114.081 14.5953 113.316 15.118C112.56 15.6407 111.678 16.07 110.67 16.406C109.671 16.7513 108.528 17.022 107.24 17.218C107.184 17.0127 107.086 16.784 106.946 16.532C106.815 16.28 106.68 16.07 106.54 15.902C107.744 15.762 108.813 15.552 109.746 15.272C110.689 14.9827 111.51 14.614 112.21 14.166C112.91 13.7087 113.503 13.1487 113.988 12.486C114.473 11.8233 114.865 11.0347 115.164 10.12ZM108.178 5.948L109.634 6.298C109.41 6.86733 109.144 7.46 108.836 8.076C108.537 8.68267 108.201 9.266 107.828 9.826C107.464 10.3767 107.072 10.8667 106.652 11.296C106.549 11.2027 106.428 11.1093 106.288 11.016C106.148 10.9133 106.003 10.8153 105.854 10.722C105.714 10.6287 105.583 10.554 105.462 10.498C105.863 10.106 106.237 9.65333 106.582 9.14C106.937 8.62667 107.249 8.09467 107.52 7.544C107.8 6.984 108.019 6.452 108.178 5.948Z" fill="#DE534B"/>
<path d="M64 37C70.3824 37 76.6722 38.5273 82.3439 41.4542C88.0156 44.3812 92.9045 48.6228 96.6024 53.8249C100.3 59.0269 102.7 65.0383 103.6 71.3569C104.5 77.6755 103.876 84.1178 101.778 90.1457C99.6806 96.1736 96.1711 101.612 91.5428 106.007C86.9145 110.402 81.3017 113.625 75.1733 115.408C69.045 117.191 62.579 117.481 56.3154 116.255C50.0519 115.029 44.1727 112.322 39.169 108.36L41.5377 105.368C46.0641 108.952 51.3825 111.401 57.0485 112.51C62.7145 113.619 68.5637 113.357 74.1075 111.744C79.6512 110.131 84.7285 107.215 88.9154 103.24C93.1022 99.2642 96.2769 94.3445 98.1743 88.8917C100.072 83.4388 100.637 77.611 99.8223 71.8952C99.0078 66.1794 96.8373 60.7415 93.4923 56.0357C90.1472 51.3299 85.7246 47.4928 80.594 44.8451C75.4633 42.1974 69.7736 40.8158 64 40.8158V37Z" fill="white"/>
<path d="M45.6 71.745C46.32 73.095 46.68 74.82 46.68 76.92C46.68 78.66 46.395 80.22 45.825 81.6C45.045 83.37 43.83 84.765 42.18 85.785C40.53 86.805 38.58 87.315 36.33 87.315C34.02 87.315 32.025 86.79 30.345 85.74C28.665 84.66 27.45 83.175 26.7 81.285C26.16 79.965 25.89 78.495 25.89 76.875V63.33C25.89 61.71 26.31 60.285 27.15 59.055C28.02 57.795 29.22 56.835 30.75 56.175C32.28 55.485 34.035 55.14 36.015 55.14C37.965 55.14 39.69 55.485 41.19 56.175C42.69 56.835 43.845 57.78 44.655 59.01C45.495 60.21 45.915 61.605 45.915 63.195V64.455C45.915 64.605 45.855 64.74 45.735 64.86C45.645 64.95 45.525 64.995 45.375 64.995H40.11C39.96 64.995 39.825 64.95 39.705 64.86C39.615 64.74 39.57 64.605 39.57 64.455V64.05C39.57 63.06 39.24 62.235 38.58 61.575C37.92 60.915 37.065 60.585 36.015 60.585C34.905 60.585 33.99 60.93 33.27 61.62C32.58 62.28 32.235 63.135 32.235 64.185V68.415C32.235 68.505 32.265 68.565 32.325 68.595C32.385 68.595 32.445 68.565 32.505 68.505C33.735 67.455 35.37 66.93 37.41 66.93C39.21 66.93 40.815 67.35 42.225 68.19C43.665 69 44.79 70.185 45.6 71.745ZM39.66 79.845C40.11 79.065 40.335 78.12 40.335 77.01C40.335 75.81 40.095 74.82 39.615 74.04C38.865 72.84 37.77 72.24 36.33 72.24C34.71 72.24 33.585 72.855 32.955 74.085C32.505 74.865 32.28 75.87 32.28 77.1C32.28 78.18 32.475 79.095 32.865 79.845C33.525 81.165 34.665 81.825 36.285 81.825C37.845 81.825 38.97 81.165 39.66 79.845ZM60.9499 87.495C57.6499 87.495 55.0399 86.58 53.1199 84.75C51.1999 82.89 50.2399 80.37 50.2399 77.19V65.31C50.2399 62.19 51.1999 59.715 53.1199 57.885C55.0399 56.055 57.6499 55.14 60.9499 55.14C64.2499 55.14 66.8599 56.055 68.7799 57.885C70.7299 59.715 71.7049 62.19 71.7049 65.31V77.19C71.7049 80.37 70.7299 82.89 68.7799 84.75C66.8599 86.58 64.2499 87.495 60.9499 87.495ZM60.9499 82.05C62.2999 82.05 63.3649 81.645 64.1449 80.835C64.9549 79.995 65.3599 78.885 65.3599 77.505V65.13C65.3599 63.75 64.9549 62.655 64.1449 61.845C63.3649 61.005 62.2999 60.585 60.9499 60.585C59.6299 60.585 58.5649 61.005 57.7549 61.845C56.9749 62.655 56.5849 63.75 56.5849 65.13V77.505C56.5849 78.885 56.9749 79.995 57.7549 80.835C58.5649 81.645 59.6299 82.05 60.9499 82.05Z" fill="#DE534B"/>
<path d="M81.712 79.392C81.2747 79.392 80.8693 79.2853 80.496 79.072C80.1333 78.8587 79.8453 78.5707 79.632 78.208C79.4187 77.8453 79.312 77.4453 79.312 77.008C79.312 76.5813 79.4187 76.1867 79.632 75.824C79.8453 75.4613 80.1333 75.1787 80.496 74.976C80.8693 74.7627 81.2747 74.656 81.712 74.656C82.1387 74.656 82.5333 74.7627 82.896 74.976C83.2587 75.1893 83.5467 75.4773 83.76 75.84C83.9733 76.192 84.08 76.5813 84.08 77.008C84.08 77.4453 83.9733 77.8453 83.76 78.208C83.5467 78.5707 83.2587 78.8587 82.896 79.072C82.5333 79.2853 82.1387 79.392 81.712 79.392ZM81.248 86C81.184 86 81.1413 85.984 81.12 85.952C81.0987 85.9093 81.104 85.8613 81.136 85.808L87.184 74.912C87.2267 74.8373 87.2907 74.8 87.376 74.8H88.16C88.224 74.8 88.2667 74.8213 88.288 74.864C88.3093 74.896 88.304 74.9387 88.272 74.992L82.224 85.888C82.192 85.9627 82.128 86 82.032 86H81.248ZM81.712 78.448C82.1067 78.448 82.4373 78.3093 82.704 78.032C82.9707 77.7547 83.104 77.4133 83.104 77.008C83.104 76.6133 82.9653 76.2827 82.688 76.016C82.4213 75.7387 82.096 75.6 81.712 75.6C81.3173 75.6 80.9813 75.7387 80.704 76.016C80.4267 76.2827 80.288 76.6133 80.288 77.008C80.288 77.4133 80.4267 77.7547 80.704 78.032C80.9813 78.3093 81.3173 78.448 81.712 78.448ZM87.808 86.144C87.3707 86.144 86.9653 86.0373 86.592 85.824C86.2293 85.6107 85.9413 85.3227 85.728 84.96C85.5147 84.5973 85.408 84.2027 85.408 83.776C85.408 83.3493 85.5147 82.9547 85.728 82.592C85.9413 82.2293 86.2293 81.9413 86.592 81.728C86.9653 81.5147 87.3707 81.408 87.808 81.408C88.2347 81.408 88.6293 81.5147 88.992 81.728C89.3547 81.9413 89.6427 82.2293 89.856 82.592C90.0693 82.9547 90.176 83.3493 90.176 83.776C90.176 84.2027 90.0693 84.5973 89.856 84.96C89.6427 85.3227 89.3547 85.6107 88.992 85.824C88.6293 86.0373 88.2347 86.144 87.808 86.144ZM87.808 85.2C88.2027 85.2 88.5333 85.0613 88.8 84.784C89.0667 84.5067 89.2 84.1707 89.2 83.776C89.2 83.3813 89.0613 83.0453 88.784 82.768C88.5173 82.4907 88.192 82.352 87.808 82.352C87.4133 82.352 87.0773 82.4907 86.8 82.768C86.5227 83.0453 86.384 83.3813 86.384 83.776C86.384 84.1707 86.5227 84.5067 86.8 84.784C87.0773 85.0613 87.4133 85.2 87.808 85.2Z" fill="#DE534B"/>
<path d="M122.878 73.834L124.03 72.754C124.438 72.97 124.864 73.24 125.308 73.564C125.764 73.888 126.112 74.188 126.352 74.464L125.146 75.652C124.918 75.376 124.588 75.064 124.156 74.716C123.724 74.368 123.298 74.074 122.878 73.834ZM117.55 80.854H120.808V85.93H117.55V84.346H119.386V82.42H117.55V80.854ZM124.3 78.424L126.172 78.784C125.62 81.184 124.81 83.29 123.742 85.102C122.686 86.902 121.348 88.366 119.728 89.494C119.644 89.374 119.512 89.224 119.332 89.044C119.152 88.876 118.972 88.702 118.792 88.522C118.612 88.354 118.45 88.216 118.306 88.108C119.902 87.136 121.186 85.828 122.158 84.184C123.13 82.528 123.844 80.608 124.3 78.424ZM114.328 75.364H116.2V80.404C116.2 81.076 116.176 81.814 116.128 82.618C116.092 83.41 116.014 84.226 115.894 85.066C115.774 85.894 115.594 86.698 115.354 87.478C115.126 88.258 114.82 88.96 114.436 89.584C114.328 89.476 114.172 89.35 113.968 89.206C113.764 89.062 113.56 88.924 113.356 88.792C113.152 88.66 112.972 88.564 112.816 88.504C113.284 87.724 113.62 86.86 113.824 85.912C114.04 84.964 114.178 84.016 114.238 83.068C114.298 82.108 114.328 81.22 114.328 80.404V75.364ZM115.48 75.364H126.208V77.254H115.48V75.364ZM116.812 78.262H120.646V79.846H116.812V78.262ZM116.722 80.854H118.126V86.884H116.722V80.854ZM110.35 74.374L111.556 72.808C111.904 72.952 112.264 73.126 112.636 73.33C113.02 73.522 113.38 73.72 113.716 73.924C114.064 74.128 114.346 74.332 114.562 74.536L113.266 76.264C113.074 76.06 112.81 75.85 112.474 75.634C112.15 75.406 111.802 75.184 111.43 74.968C111.058 74.74 110.698 74.542 110.35 74.374ZM109.504 79.252L110.692 77.668C111.04 77.788 111.4 77.944 111.772 78.136C112.156 78.316 112.516 78.508 112.852 78.712C113.188 78.916 113.464 79.114 113.68 79.306L112.42 81.052C112.216 80.86 111.952 80.656 111.628 80.44C111.304 80.212 110.95 79.996 110.566 79.792C110.194 79.588 109.84 79.408 109.504 79.252ZM109.594 88.162C109.834 87.67 110.092 87.1 110.368 86.452C110.644 85.792 110.92 85.096 111.196 84.364C111.472 83.62 111.73 82.888 111.97 82.168L113.698 83.266C113.494 83.938 113.272 84.622 113.032 85.318C112.792 86.002 112.546 86.68 112.294 87.352C112.054 88.012 111.808 88.642 111.556 89.242L109.594 88.162ZM120.808 72.916H122.788C122.8 74.38 122.842 75.802 122.914 77.182C122.986 78.562 123.082 79.846 123.202 81.034C123.334 82.222 123.478 83.26 123.634 84.148C123.79 85.036 123.958 85.732 124.138 86.236C124.318 86.74 124.51 86.998 124.714 87.01C124.846 87.022 124.954 86.806 125.038 86.362C125.122 85.918 125.188 85.276 125.236 84.436C125.344 84.58 125.5 84.73 125.704 84.886C125.908 85.03 126.106 85.168 126.298 85.3C126.502 85.42 126.658 85.504 126.766 85.552C126.622 86.656 126.43 87.496 126.19 88.072C125.962 88.648 125.716 89.038 125.452 89.242C125.188 89.458 124.93 89.566 124.678 89.566C124.126 89.554 123.64 89.284 123.22 88.756C122.812 88.228 122.464 87.472 122.176 86.488C121.888 85.504 121.648 84.328 121.456 82.96C121.276 81.592 121.132 80.062 121.024 78.37C120.928 76.678 120.856 74.86 120.808 72.916ZM134.902 72.7H137.116V81.484C137.116 82.048 137.044 82.498 136.9 82.834C136.768 83.158 136.504 83.41 136.108 83.59C135.724 83.758 135.256 83.866 134.704 83.914C134.152 83.962 133.504 83.986 132.76 83.986C132.712 83.662 132.61 83.29 132.454 82.87C132.31 82.438 132.16 82.066 132.004 81.754C132.34 81.766 132.676 81.778 133.012 81.79C133.348 81.79 133.648 81.79 133.912 81.79C134.176 81.79 134.362 81.79 134.47 81.79C134.638 81.79 134.752 81.766 134.812 81.718C134.872 81.67 134.902 81.574 134.902 81.43V72.7ZM138.808 75.724L140.824 74.698C141.316 75.298 141.808 75.952 142.3 76.66C142.792 77.356 143.242 78.052 143.65 78.748C144.058 79.444 144.37 80.08 144.586 80.656L142.372 81.844C142.192 81.292 141.91 80.662 141.526 79.954C141.154 79.234 140.728 78.508 140.248 77.776C139.78 77.044 139.3 76.36 138.808 75.724ZM139.636 80.314L141.94 80.98C141.496 82.372 140.932 83.566 140.248 84.562C139.564 85.546 138.736 86.374 137.764 87.046C136.804 87.706 135.688 88.246 134.416 88.666C133.144 89.086 131.692 89.428 130.06 89.692C129.952 89.344 129.79 88.966 129.574 88.558C129.358 88.15 129.136 87.808 128.908 87.532C130.408 87.364 131.74 87.118 132.904 86.794C134.068 86.47 135.082 86.032 135.946 85.48C136.822 84.916 137.56 84.214 138.16 83.374C138.772 82.534 139.264 81.514 139.636 80.314ZM130.78 74.986L133.192 75.544C132.904 76.288 132.568 77.062 132.184 77.866C131.8 78.658 131.374 79.414 130.906 80.134C130.45 80.854 129.964 81.484 129.448 82.024C129.28 81.88 129.076 81.73 128.836 81.574C128.608 81.406 128.368 81.25 128.116 81.106C127.876 80.95 127.666 80.83 127.486 80.746C127.99 80.254 128.452 79.684 128.872 79.036C129.304 78.376 129.682 77.692 130.006 76.984C130.342 76.276 130.6 75.61 130.78 74.986Z" fill="#DE534B"/>
<path d="M2.254 139.688H6.678V140.556H2.254V139.688ZM2.254 141.424H6.678V142.306H2.254V141.424ZM0.644 135.614H7.028V136.678H0.644V135.614ZM2.198 143.258H6.916V144.238H2.198V143.258ZM4.046 138.358H5.166V143.594H4.046V138.358ZM2.828 137.924H6.874V138.82H2.828V144.868H1.666V138.848L2.548 137.924H2.828ZM4.55 136.818L5.754 137.042C5.614 137.303 5.474 137.56 5.334 137.812C5.194 138.055 5.06333 138.269 4.942 138.456L4.018 138.218C4.12067 138.013 4.22333 137.779 4.326 137.518C4.42867 137.257 4.50333 137.023 4.55 136.818ZM2.072 132.17L3.248 132.45C3.06133 133.057 2.814 133.645 2.506 134.214C2.20733 134.783 1.88533 135.264 1.54 135.656C1.47467 135.591 1.37667 135.511 1.246 135.418C1.12467 135.325 0.998667 135.236 0.868 135.152C0.746667 135.059 0.639333 134.989 0.546 134.942C0.882 134.597 1.18067 134.177 1.442 133.682C1.70333 133.187 1.91333 132.683 2.072 132.17ZM3.388 133.962L4.55 134.256C4.30733 135.04 4.01333 135.796 3.668 136.524C3.332 137.243 2.94933 137.915 2.52 138.54C2.09067 139.156 1.62867 139.697 1.134 140.164C1.08733 140.071 1.01733 139.963 0.924 139.842C0.830667 139.711 0.732667 139.581 0.63 139.45C0.527333 139.319 0.434 139.212 0.35 139.128C1.04067 138.54 1.64733 137.793 2.17 136.888C2.69267 135.973 3.09867 134.998 3.388 133.962ZM2.282 133.388H6.832V134.452H1.792L2.282 133.388ZM8.554 136.188V137.42H11.648V136.188H8.554ZM8.554 138.47V139.716H11.648V138.47H8.554ZM8.554 133.906V135.124H11.648V133.906H8.554ZM7.378 132.744H12.88V140.892H7.378V132.744ZM10.29 140.038H11.452V143.482C11.452 143.65 11.466 143.757 11.494 143.804C11.522 143.841 11.592 143.86 11.704 143.86C11.732 143.86 11.7833 143.86 11.858 143.86C11.942 143.86 12.026 143.86 12.11 143.86C12.194 143.86 12.2547 143.86 12.292 143.86C12.3667 143.86 12.4227 143.823 12.46 143.748C12.5067 143.664 12.5393 143.501 12.558 143.258C12.5767 143.006 12.5907 142.623 12.6 142.11C12.7213 142.203 12.8847 142.297 13.09 142.39C13.3047 142.474 13.4913 142.535 13.65 142.572C13.622 143.207 13.5613 143.697 13.468 144.042C13.384 144.397 13.258 144.639 13.09 144.77C12.922 144.901 12.698 144.966 12.418 144.966C12.3527 144.966 12.2593 144.966 12.138 144.966C12.0167 144.966 11.8953 144.966 11.774 144.966C11.662 144.966 11.5733 144.966 11.508 144.966C11.172 144.966 10.9153 144.919 10.738 144.826C10.5607 144.742 10.4393 144.588 10.374 144.364C10.318 144.149 10.29 143.86 10.29 143.496V140.038ZM8.344 140.374H9.478C9.41267 141.102 9.29133 141.769 9.114 142.376C8.93667 142.983 8.652 143.524 8.26 144C7.87733 144.467 7.33133 144.863 6.622 145.19C6.55667 145.05 6.44933 144.882 6.3 144.686C6.16 144.499 6.02933 144.35 5.908 144.238C6.53333 143.986 7.00933 143.673 7.336 143.3C7.66267 142.917 7.90067 142.479 8.05 141.984C8.19933 141.489 8.29733 140.953 8.344 140.374ZM22.092 138.4H23.422V143.328C23.422 143.561 23.4547 143.715 23.52 143.79C23.5947 143.865 23.758 143.902 24.01 143.902C24.0753 143.902 24.178 143.902 24.318 143.902C24.458 143.902 24.612 143.902 24.78 143.902C24.9573 143.902 25.1207 143.902 25.27 143.902C25.4287 143.902 25.5453 143.902 25.62 143.902C25.788 143.902 25.914 143.846 25.998 143.734C26.0913 143.622 26.1567 143.403 26.194 143.076C26.2313 142.749 26.2593 142.259 26.278 141.606C26.3713 141.681 26.488 141.755 26.628 141.83C26.7773 141.895 26.9267 141.956 27.076 142.012C27.2347 142.068 27.3747 142.115 27.496 142.152C27.4493 142.936 27.3653 143.547 27.244 143.986C27.132 144.415 26.9547 144.714 26.712 144.882C26.4787 145.059 26.152 145.148 25.732 145.148C25.6573 145.148 25.5313 145.148 25.354 145.148C25.1767 145.148 24.9853 145.148 24.78 145.148C24.5747 145.148 24.3833 145.148 24.206 145.148C24.038 145.148 23.9167 145.148 23.842 145.148C23.3847 145.148 23.0253 145.092 22.764 144.98C22.512 144.868 22.3347 144.681 22.232 144.42C22.1387 144.159 22.092 143.799 22.092 143.342V138.4ZM18.354 138.47H19.768C19.7027 139.254 19.6 139.991 19.46 140.682C19.32 141.363 19.0913 141.989 18.774 142.558C18.466 143.118 18.0273 143.617 17.458 144.056C16.8887 144.504 16.1467 144.882 15.232 145.19C15.176 145.069 15.1013 144.933 15.008 144.784C14.924 144.644 14.826 144.504 14.714 144.364C14.6113 144.233 14.5087 144.126 14.406 144.042C15.246 143.79 15.918 143.482 16.422 143.118C16.926 142.754 17.3087 142.339 17.57 141.872C17.8313 141.396 18.0133 140.873 18.116 140.304C18.228 139.735 18.3073 139.123 18.354 138.47ZM15.834 133.276L17.024 132.828C17.2573 133.183 17.4813 133.565 17.696 133.976C17.92 134.387 18.1207 134.793 18.298 135.194C18.4753 135.586 18.6013 135.941 18.676 136.258L17.402 136.762C17.3273 136.454 17.206 136.099 17.038 135.698C16.8793 135.297 16.6927 134.886 16.478 134.466C16.2727 134.037 16.058 133.64 15.834 133.276ZM24.976 132.702L26.362 133.178C26.166 133.589 25.9513 134.013 25.718 134.452C25.494 134.881 25.27 135.292 25.046 135.684C24.8313 136.076 24.6213 136.417 24.416 136.706L23.268 136.272C23.464 135.955 23.6693 135.591 23.884 135.18C24.0987 134.76 24.2993 134.335 24.486 133.906C24.682 133.467 24.8453 133.066 24.976 132.702ZM14.728 137.434H27.3V138.694H14.728V137.434ZM20.286 132.184H21.63V137.952H20.286V132.184ZM31.556 138.4H38.43V139.464H31.556V138.4ZM31.318 140.78H38.696V141.886H31.318V140.78ZM35.77 138.722H36.96V144.924H35.77V138.722ZM32.97 138.778H34.104V141.396C34.104 141.611 34.076 141.877 34.02 142.194C33.9733 142.511 33.88 142.852 33.74 143.216C33.6 143.571 33.4087 143.916 33.166 144.252C32.9233 144.588 32.606 144.887 32.214 145.148C32.1207 145.027 31.99 144.887 31.822 144.728C31.654 144.579 31.5 144.457 31.36 144.364C31.7987 144.093 32.13 143.776 32.354 143.412C32.5873 143.039 32.746 142.67 32.83 142.306C32.9233 141.942 32.97 141.634 32.97 141.382V138.778ZM29.848 134.676H33.6V135.586H29.848V134.676ZM36.33 134.676H40.096V135.586H36.33V134.676ZM39.578 132.758H40.894V143.566C40.894 143.921 40.8473 144.201 40.754 144.406C40.67 144.621 40.516 144.784 40.292 144.896C40.0587 145.008 39.76 145.078 39.396 145.106C39.032 145.134 38.5793 145.148 38.038 145.148C38.0287 145.027 38.0007 144.887 37.954 144.728C37.9167 144.569 37.87 144.406 37.814 144.238C37.7673 144.079 37.7113 143.944 37.646 143.832C38.0007 143.841 38.3367 143.846 38.654 143.846C38.9713 143.846 39.186 143.846 39.298 143.846C39.4007 143.837 39.4707 143.813 39.508 143.776C39.5547 143.729 39.578 143.655 39.578 143.552V132.758ZM29.974 132.758H34.426V137.588H29.974V136.608H33.18V133.724H29.974V132.758ZM40.25 132.758V133.724H36.792V136.636H40.25V137.602H35.532V132.758H40.25ZM29.176 132.758H30.478V145.19H29.176V132.758ZM45.178 137.056H52.85V138.316H45.178V137.056ZM43.722 132.758H47.81V133.906H43.722V132.758ZM43.386 140.178H54.558V141.41H43.386V140.178ZM47.348 132.758H47.586L47.824 132.702L48.706 133.122C48.4633 133.822 48.146 134.471 47.754 135.068C47.3713 135.665 46.9327 136.211 46.438 136.706C45.9527 137.201 45.4347 137.639 44.884 138.022C44.3333 138.405 43.764 138.727 43.176 138.988C43.092 138.839 42.9707 138.666 42.812 138.47C42.6533 138.265 42.504 138.106 42.364 137.994C42.8867 137.779 43.4 137.504 43.904 137.168C44.4173 136.823 44.898 136.435 45.346 136.006C45.794 135.567 46.1907 135.096 46.536 134.592C46.8813 134.079 47.152 133.547 47.348 132.996V132.758ZM46.536 137.672H47.852V140.08C47.852 140.575 47.8053 141.065 47.712 141.55C47.628 142.035 47.4507 142.502 47.18 142.95C46.9187 143.398 46.5267 143.818 46.004 144.21C45.4813 144.602 44.786 144.947 43.918 145.246C43.862 145.143 43.7827 145.022 43.68 144.882C43.5867 144.751 43.484 144.621 43.372 144.49C43.2693 144.369 43.1713 144.271 43.078 144.196C43.8433 143.944 44.4593 143.659 44.926 143.342C45.3927 143.025 45.738 142.684 45.962 142.32C46.1953 141.956 46.3493 141.587 46.424 141.214C46.4987 140.831 46.536 140.449 46.536 140.066V137.672ZM50.302 132.212C50.61 133.033 51.0253 133.813 51.548 134.55C52.08 135.278 52.6913 135.927 53.382 136.496C54.0727 137.056 54.8287 137.499 55.65 137.826C55.5473 137.91 55.44 138.022 55.328 138.162C55.216 138.293 55.104 138.428 54.992 138.568C54.8893 138.708 54.8053 138.839 54.74 138.96C53.8813 138.568 53.0927 138.055 52.374 137.42C51.6647 136.785 51.0347 136.057 50.484 135.236C49.9427 134.405 49.49 133.509 49.126 132.548L50.302 132.212ZM43.442 134.984L44.282 134.284C44.478 134.415 44.688 134.569 44.912 134.746C45.136 134.923 45.346 135.096 45.542 135.264C45.7473 135.432 45.9153 135.586 46.046 135.726L45.178 136.51C45.0567 136.37 44.898 136.211 44.702 136.034C44.506 135.857 44.296 135.675 44.072 135.488C43.8573 135.301 43.6473 135.133 43.442 134.984ZM52.612 132.366L53.634 133.066C53.27 133.411 52.878 133.757 52.458 134.102C52.038 134.447 51.6553 134.737 51.31 134.97L50.512 134.354C50.736 134.186 50.9787 133.99 51.24 133.766C51.5013 133.533 51.7533 133.295 51.996 133.052C52.2387 132.8 52.444 132.571 52.612 132.366ZM54.292 133.962L55.272 134.662C54.8893 135.017 54.4693 135.376 54.012 135.74C53.564 136.095 53.1533 136.398 52.78 136.65L51.968 136.02C52.2107 135.852 52.472 135.651 52.752 135.418C53.0413 135.175 53.3213 134.928 53.592 134.676C53.8627 134.415 54.096 134.177 54.292 133.962ZM49.994 137.728H51.366V143.342C51.366 143.575 51.394 143.725 51.45 143.79C51.5153 143.855 51.66 143.888 51.884 143.888C51.9307 143.888 52.0147 143.888 52.136 143.888C52.2667 143.888 52.4067 143.888 52.556 143.888C52.7053 143.888 52.8407 143.888 52.962 143.888C53.0927 143.888 53.1907 143.888 53.256 143.888C53.396 143.888 53.4987 143.846 53.564 143.762C53.6387 143.678 53.69 143.515 53.718 143.272C53.746 143.029 53.7693 142.67 53.788 142.194C53.9373 142.306 54.1287 142.413 54.362 142.516C54.5953 142.609 54.8053 142.679 54.992 142.726C54.9453 143.333 54.866 143.804 54.754 144.14C54.6513 144.485 54.488 144.728 54.264 144.868C54.0493 145.008 53.7553 145.078 53.382 145.078C53.3073 145.078 53.1907 145.078 53.032 145.078C52.8733 145.078 52.7007 145.078 52.514 145.078C52.3367 145.078 52.1687 145.078 52.01 145.078C51.8513 145.078 51.7393 145.078 51.674 145.078C51.226 145.078 50.8807 145.027 50.638 144.924C50.3953 144.821 50.2273 144.639 50.134 144.378C50.0407 144.126 49.994 143.781 49.994 143.342V137.728ZM59.71 144.854C59.4207 144.499 59.0987 144.135 58.744 143.762C58.3987 143.389 58.044 143.029 57.68 142.684C57.3253 142.339 56.9847 142.031 56.658 141.76L57.806 140.752C58.142 141.023 58.4967 141.34 58.87 141.704C59.2433 142.059 59.6073 142.427 59.962 142.81C60.326 143.183 60.6387 143.529 60.9 143.846L59.71 144.854ZM73.22 135.516V136.272H80.99V135.516H73.22ZM73.22 133.962V134.704H80.99V133.962H73.22ZM72.002 133.094H82.264V137.14H72.002V133.094ZM74.886 132.184H76.174V136.86H74.886V132.184ZM77.924 132.184H79.24V136.86H77.924V132.184ZM72.548 137.7H82.936V138.68H72.548V137.7ZM71.876 137.7H73.15V139.534C73.15 139.945 73.1267 140.397 73.08 140.892C73.0427 141.387 72.968 141.886 72.856 142.39C72.7533 142.894 72.604 143.389 72.408 143.874C72.212 144.359 71.9553 144.803 71.638 145.204C71.5633 145.129 71.456 145.05 71.316 144.966C71.176 144.882 71.036 144.798 70.896 144.714C70.756 144.63 70.63 144.569 70.518 144.532C70.9193 144.028 71.218 143.482 71.414 142.894C71.61 142.297 71.736 141.704 71.792 141.116C71.848 140.528 71.876 139.991 71.876 139.506V137.7ZM73.892 139.282H81.788V140.15H73.892V139.282ZM72.408 140.78H83.286V141.746H72.408V140.78ZM74.172 141.046H75.46V144.238L74.172 144.35V141.046ZM72.982 143.874C73.6353 143.809 74.424 143.725 75.348 143.622C76.272 143.51 77.21 143.398 78.162 143.286L78.19 144.35C77.294 144.462 76.398 144.574 75.502 144.686C74.6153 144.798 73.822 144.896 73.122 144.98L72.982 143.874ZM81.76 141.578L82.684 142.362C82.3667 142.511 82.0307 142.656 81.676 142.796C81.3307 142.936 80.99 143.067 80.654 143.188C80.318 143.3 80.0053 143.398 79.716 143.482L79.072 142.852C79.352 142.759 79.6553 142.637 79.982 142.488C80.3087 142.339 80.6307 142.18 80.948 142.012C81.2653 141.844 81.536 141.699 81.76 141.578ZM77.672 141.074C77.9613 141.643 78.372 142.133 78.904 142.544C79.4453 142.955 80.1033 143.286 80.878 143.538C81.6527 143.79 82.5347 143.958 83.524 144.042C83.4307 144.135 83.3327 144.247 83.23 144.378C83.1367 144.518 83.048 144.658 82.964 144.798C82.8893 144.938 82.8193 145.064 82.754 145.176C81.6993 145.036 80.7707 144.803 79.968 144.476C79.1653 144.159 78.4793 143.739 77.91 143.216C77.35 142.684 76.8973 142.049 76.552 141.312L77.672 141.074ZM92.792 132.184H94.038V141.984H92.792V132.184ZM88.494 137.896L95.914 134.76L96.404 135.88L88.998 139.072L88.494 137.896ZM89.95 133.514H91.224V142.754C91.224 143.015 91.2473 143.216 91.294 143.356C91.3407 143.487 91.4387 143.575 91.588 143.622C91.7467 143.669 91.9753 143.692 92.274 143.692C92.358 143.692 92.5027 143.692 92.708 143.692C92.9133 143.692 93.142 143.692 93.394 143.692C93.6553 143.692 93.9167 143.692 94.178 143.692C94.4393 143.692 94.6773 143.692 94.892 143.692C95.1067 143.692 95.2653 143.692 95.368 143.692C95.6293 143.692 95.8253 143.641 95.956 143.538C96.096 143.435 96.1987 143.249 96.264 142.978C96.3293 142.707 96.376 142.315 96.404 141.802C96.5533 141.905 96.74 142.003 96.964 142.096C97.1973 142.189 97.4027 142.255 97.58 142.292C97.524 142.945 97.426 143.459 97.286 143.832C97.146 144.205 96.9313 144.471 96.642 144.63C96.362 144.798 95.9653 144.882 95.452 144.882C95.368 144.882 95.214 144.882 94.99 144.882C94.7753 144.882 94.5233 144.882 94.234 144.882C93.954 144.882 93.6693 144.882 93.38 144.882C93.1 144.882 92.8527 144.882 92.638 144.882C92.4233 144.882 92.274 144.882 92.19 144.882C91.6207 144.882 91.168 144.821 90.832 144.7C90.5053 144.579 90.2767 144.359 90.146 144.042C90.0153 143.734 89.95 143.3 89.95 142.74V133.514ZM95.662 134.914H95.55L95.816 134.704L96.054 134.522L96.992 134.872L96.936 135.096C96.936 135.759 96.9313 136.375 96.922 136.944C96.922 137.504 96.9173 138.008 96.908 138.456C96.8987 138.895 96.8847 139.268 96.866 139.576C96.8567 139.875 96.838 140.094 96.81 140.234C96.782 140.533 96.7027 140.761 96.572 140.92C96.4507 141.079 96.2827 141.191 96.068 141.256C95.8813 141.331 95.6573 141.377 95.396 141.396C95.1347 141.405 94.9013 141.41 94.696 141.41C94.6773 141.233 94.64 141.037 94.584 140.822C94.528 140.598 94.4673 140.416 94.402 140.276C94.542 140.285 94.696 140.29 94.864 140.29C95.032 140.29 95.1487 140.29 95.214 140.29C95.3167 140.29 95.396 140.271 95.452 140.234C95.5173 140.187 95.564 140.094 95.592 139.954C95.6107 139.87 95.6247 139.697 95.634 139.436C95.6433 139.175 95.648 138.834 95.648 138.414C95.6573 137.985 95.662 137.476 95.662 136.888C95.662 136.3 95.662 135.642 95.662 134.914ZM84.532 135.502H89.068V136.748H84.532V135.502ZM86.268 132.352H87.514V141.536H86.268V132.352ZM84.392 141.732C84.7653 141.592 85.1993 141.424 85.694 141.228C86.198 141.023 86.73 140.803 87.29 140.57C87.8593 140.337 88.424 140.103 88.984 139.87L89.278 141.046C88.5313 141.401 87.7753 141.755 87.01 142.11C86.2447 142.465 85.5447 142.782 84.91 143.062L84.392 141.732ZM105.434 133.234H110.964V134.48H105.434V133.234ZM104.846 137.21H111.454V138.47H104.846V137.21ZM106.736 137.896L108.178 138.162C108.085 138.647 107.977 139.151 107.856 139.674C107.744 140.197 107.627 140.719 107.506 141.242C107.385 141.755 107.259 142.245 107.128 142.712C107.007 143.179 106.885 143.599 106.764 143.972L105.574 143.692C105.686 143.319 105.798 142.889 105.91 142.404C106.022 141.919 106.129 141.415 106.232 140.892C106.344 140.369 106.442 139.851 106.526 139.338C106.619 138.825 106.689 138.344 106.736 137.896ZM104.496 143.482C105.009 143.454 105.602 143.417 106.274 143.37C106.955 143.323 107.674 143.272 108.43 143.216C109.195 143.16 109.961 143.104 110.726 143.048L110.74 144.238C110.031 144.313 109.317 144.383 108.598 144.448C107.879 144.513 107.189 144.574 106.526 144.63C105.873 144.686 105.275 144.737 104.734 144.784L104.496 143.482ZM108.78 140.682L109.914 140.234C110.166 140.701 110.404 141.2 110.628 141.732C110.861 142.255 111.062 142.773 111.23 143.286C111.398 143.799 111.524 144.261 111.608 144.672L110.376 145.162C110.311 144.751 110.199 144.289 110.04 143.776C109.881 143.253 109.69 142.726 109.466 142.194C109.251 141.653 109.023 141.149 108.78 140.682ZM98.714 133.612H104.748V134.774H98.714V133.612ZM98.504 141.662H104.888V142.824H98.504V141.662ZM101.136 132.184H102.382V136.16H101.136V132.184ZM101.248 136.146H102.242V140.15H102.354V145.176H101.136V140.15H101.248V136.146ZM100.072 138.638V139.716H103.488V138.638H100.072ZM100.072 136.664V137.728H103.488V136.664H100.072ZM99.022 135.712H104.566V140.668H99.022V135.712ZM119.112 132.156L120.358 132.352C120.069 133.08 119.681 133.799 119.196 134.508C118.72 135.217 118.099 135.866 117.334 136.454C117.231 136.314 117.091 136.165 116.914 136.006C116.746 135.838 116.587 135.717 116.438 135.642C116.914 135.315 117.325 134.956 117.67 134.564C118.015 134.172 118.309 133.771 118.552 133.36C118.795 132.949 118.981 132.548 119.112 132.156ZM119.322 133.22H122.206V134.27H118.692L119.322 133.22ZM119.686 136.202H120.652C120.624 136.687 120.559 137.117 120.456 137.49C120.363 137.863 120.199 138.19 119.966 138.47C119.733 138.741 119.401 138.974 118.972 139.17C118.916 139.058 118.832 138.932 118.72 138.792C118.608 138.643 118.496 138.526 118.384 138.442C118.888 138.227 119.224 137.943 119.392 137.588C119.56 137.233 119.658 136.771 119.686 136.202ZM121.422 136.244H122.402V137.658C122.402 137.77 122.416 137.84 122.444 137.868C122.481 137.896 122.561 137.91 122.682 137.91C122.719 137.91 122.789 137.91 122.892 137.91C122.995 137.91 123.102 137.91 123.214 137.91C123.326 137.91 123.405 137.91 123.452 137.91C123.545 137.91 123.606 137.905 123.634 137.896C123.671 137.877 123.695 137.845 123.704 137.798C123.807 137.863 123.942 137.929 124.11 137.994C124.278 138.05 124.432 138.092 124.572 138.12C124.516 138.363 124.409 138.535 124.25 138.638C124.101 138.731 123.886 138.778 123.606 138.778C123.559 138.778 123.489 138.778 123.396 138.778C123.303 138.778 123.195 138.778 123.074 138.778C122.962 138.778 122.855 138.778 122.752 138.778C122.659 138.778 122.593 138.778 122.556 138.778C122.239 138.778 122.001 138.745 121.842 138.68C121.683 138.615 121.571 138.503 121.506 138.344C121.45 138.185 121.422 137.957 121.422 137.658V136.244ZM116.69 140.598H125.356V141.704H116.69V140.598ZM121.688 140.962C121.949 141.802 122.393 142.483 123.018 143.006C123.653 143.519 124.502 143.865 125.566 144.042C125.426 144.163 125.281 144.331 125.132 144.546C124.992 144.77 124.88 144.966 124.796 145.134C124.012 144.957 123.34 144.691 122.78 144.336C122.22 143.981 121.758 143.538 121.394 143.006C121.039 142.465 120.755 141.835 120.54 141.116L121.688 140.962ZM118.51 135.488H124.026V136.538H118.51V140.122H117.404V135.488H117.418H118.51ZM123.704 135.488H124.838V140.08H123.704V135.488ZM121.772 133.22H122.052L122.234 133.164L123.074 133.71C122.953 133.99 122.803 134.284 122.626 134.592C122.458 134.9 122.281 135.199 122.094 135.488C121.907 135.768 121.725 136.015 121.548 136.23C121.436 136.155 121.291 136.062 121.114 135.95C120.946 135.838 120.792 135.749 120.652 135.684C120.792 135.488 120.932 135.255 121.072 134.984C121.221 134.713 121.357 134.443 121.478 134.172C121.609 133.901 121.707 133.663 121.772 133.458V133.22ZM120.414 139.394H121.632C121.576 140.169 121.469 140.869 121.31 141.494C121.161 142.119 120.918 142.67 120.582 143.146C120.246 143.613 119.77 144.019 119.154 144.364C118.547 144.709 117.759 144.994 116.788 145.218C116.732 145.059 116.639 144.877 116.508 144.672C116.387 144.476 116.261 144.317 116.13 144.196C117.017 144.019 117.731 143.79 118.272 143.51C118.823 143.23 119.243 142.899 119.532 142.516C119.831 142.124 120.041 141.671 120.162 141.158C120.283 140.635 120.367 140.047 120.414 139.394ZM112.35 139.352C112.901 139.203 113.563 139.021 114.338 138.806C115.113 138.582 115.897 138.349 116.69 138.106L116.858 139.31C116.139 139.543 115.411 139.777 114.674 140.01C113.937 140.234 113.265 140.439 112.658 140.626L112.35 139.352ZM112.56 134.928H116.816V136.16H112.56V134.928ZM114.184 132.198H115.416V143.72C115.416 144.047 115.379 144.303 115.304 144.49C115.229 144.677 115.094 144.826 114.898 144.938C114.711 145.041 114.469 145.106 114.17 145.134C113.881 145.171 113.507 145.19 113.05 145.19C113.041 145.022 112.999 144.817 112.924 144.574C112.859 144.341 112.784 144.135 112.7 143.958C112.98 143.967 113.237 143.972 113.47 143.972C113.703 143.972 113.862 143.967 113.946 143.958C114.03 143.958 114.091 143.944 114.128 143.916C114.165 143.879 114.184 143.813 114.184 143.72V132.198ZM132.328 134.396C132.739 134.461 133.201 134.508 133.714 134.536C134.237 134.564 134.773 134.573 135.324 134.564C135.875 134.555 136.402 134.536 136.906 134.508C137.41 134.48 137.844 134.443 138.208 134.396V135.824C137.807 135.861 137.354 135.894 136.85 135.922C136.346 135.941 135.823 135.95 135.282 135.95C134.75 135.95 134.227 135.941 133.714 135.922C133.201 135.894 132.743 135.861 132.342 135.824L132.328 134.396ZM133.126 140.22C133.07 140.463 133.023 140.682 132.986 140.878C132.958 141.074 132.944 141.27 132.944 141.466C132.944 141.625 132.977 141.774 133.042 141.914C133.117 142.054 133.233 142.175 133.392 142.278C133.56 142.381 133.784 142.465 134.064 142.53C134.353 142.586 134.708 142.614 135.128 142.614C135.763 142.614 136.355 142.586 136.906 142.53C137.466 142.465 138.035 142.367 138.614 142.236L138.642 143.734C138.203 143.818 137.69 143.888 137.102 143.944C136.523 143.991 135.856 144.014 135.1 144.014C133.915 144.014 133.037 143.823 132.468 143.44C131.908 143.048 131.628 142.511 131.628 141.83C131.628 141.578 131.647 141.317 131.684 141.046C131.721 140.766 131.782 140.453 131.866 140.108L133.126 140.22ZM129.892 133.388C129.864 133.472 129.827 133.584 129.78 133.724C129.743 133.855 129.705 133.99 129.668 134.13C129.64 134.261 129.617 134.368 129.598 134.452C129.551 134.685 129.495 134.97 129.43 135.306C129.374 135.633 129.313 135.992 129.248 136.384C129.192 136.767 129.136 137.159 129.08 137.56C129.033 137.952 128.991 138.335 128.954 138.708C128.926 139.081 128.912 139.422 128.912 139.73C128.912 139.973 128.917 140.22 128.926 140.472C128.945 140.715 128.968 140.967 128.996 141.228C129.08 141.041 129.164 140.845 129.248 140.64C129.332 140.425 129.416 140.215 129.5 140.01C129.584 139.805 129.663 139.618 129.738 139.45L130.438 140.01C130.317 140.355 130.186 140.738 130.046 141.158C129.906 141.578 129.78 141.979 129.668 142.362C129.565 142.735 129.491 143.039 129.444 143.272C129.425 143.365 129.407 143.477 129.388 143.608C129.369 143.729 129.365 143.832 129.374 143.916C129.374 143.981 129.374 144.061 129.374 144.154C129.383 144.257 129.393 144.35 129.402 144.434L128.128 144.518C127.988 144.033 127.867 143.393 127.764 142.6C127.661 141.807 127.61 140.939 127.61 139.996C127.61 139.473 127.633 138.946 127.68 138.414C127.727 137.873 127.783 137.35 127.848 136.846C127.913 136.342 127.979 135.88 128.044 135.46C128.119 135.04 128.175 134.69 128.212 134.41C128.24 134.233 128.263 134.041 128.282 133.836C128.31 133.631 128.329 133.435 128.338 133.248L129.892 133.388ZM147.756 132.898C147.737 133.019 147.719 133.169 147.7 133.346C147.691 133.514 147.677 133.696 147.658 133.892C147.649 134.079 147.644 134.251 147.644 134.41C147.635 134.727 147.63 135.101 147.63 135.53C147.639 135.959 147.644 136.398 147.644 136.846C147.644 137.229 147.653 137.681 147.672 138.204C147.7 138.717 147.728 139.249 147.756 139.8C147.784 140.341 147.807 140.85 147.826 141.326C147.854 141.793 147.868 142.175 147.868 142.474C147.868 142.773 147.821 143.057 147.728 143.328C147.635 143.599 147.481 143.837 147.266 144.042C147.061 144.257 146.781 144.425 146.426 144.546C146.071 144.667 145.637 144.728 145.124 144.728C144.471 144.728 143.878 144.649 143.346 144.49C142.823 144.341 142.408 144.093 142.1 143.748C141.792 143.403 141.638 142.945 141.638 142.376C141.638 141.919 141.769 141.508 142.03 141.144C142.301 140.78 142.707 140.491 143.248 140.276C143.789 140.052 144.471 139.94 145.292 139.94C146.001 139.94 146.687 140.019 147.35 140.178C148.013 140.337 148.638 140.551 149.226 140.822C149.814 141.083 150.351 141.377 150.836 141.704C151.321 142.031 151.741 142.357 152.096 142.684L151.256 144C150.911 143.655 150.514 143.314 150.066 142.978C149.618 142.642 149.128 142.339 148.596 142.068C148.064 141.788 147.504 141.569 146.916 141.41C146.328 141.251 145.726 141.172 145.11 141.172C144.457 141.172 143.953 141.275 143.598 141.48C143.243 141.685 143.066 141.965 143.066 142.32C143.066 142.684 143.239 142.955 143.584 143.132C143.939 143.309 144.41 143.398 144.998 143.398C145.483 143.398 145.838 143.286 146.062 143.062C146.286 142.838 146.398 142.483 146.398 141.998C146.398 141.755 146.389 141.419 146.37 140.99C146.351 140.551 146.333 140.08 146.314 139.576C146.295 139.063 146.277 138.568 146.258 138.092C146.239 137.607 146.23 137.191 146.23 136.846C146.23 136.566 146.225 136.277 146.216 135.978C146.216 135.679 146.216 135.395 146.216 135.124C146.216 134.844 146.216 134.606 146.216 134.41C146.207 134.205 146.197 134.009 146.188 133.822C146.179 133.626 146.165 133.449 146.146 133.29C146.127 133.131 146.104 133.001 146.076 132.898H147.756ZM146.874 135.656C147.098 135.656 147.401 135.656 147.784 135.656C148.167 135.647 148.582 135.633 149.03 135.614C149.487 135.586 149.945 135.558 150.402 135.53C150.869 135.502 151.293 135.465 151.676 135.418L151.732 136.734C151.349 136.771 150.925 136.804 150.458 136.832C149.991 136.86 149.529 136.883 149.072 136.902C148.624 136.921 148.204 136.939 147.812 136.958C147.429 136.967 147.121 136.972 146.888 136.972L146.874 135.656ZM158.599 132.87C158.543 133.085 158.482 133.346 158.417 133.654C158.351 133.953 158.291 134.265 158.235 134.592C158.179 134.919 158.127 135.236 158.081 135.544C158.043 135.843 158.015 136.104 157.997 136.328C158.155 136.011 158.351 135.689 158.585 135.362C158.827 135.035 159.107 134.737 159.425 134.466C159.742 134.195 160.087 133.976 160.461 133.808C160.834 133.64 161.231 133.556 161.651 133.556C162.285 133.556 162.85 133.757 163.345 134.158C163.849 134.55 164.245 135.11 164.535 135.838C164.824 136.566 164.969 137.434 164.969 138.442C164.969 139.413 164.824 140.262 164.535 140.99C164.245 141.718 163.835 142.334 163.303 142.838C162.771 143.342 162.136 143.753 161.399 144.07C160.661 144.397 159.849 144.639 158.963 144.798L158.123 143.524C158.888 143.403 159.597 143.235 160.251 143.02C160.904 142.796 161.473 142.493 161.959 142.11C162.444 141.727 162.817 141.237 163.079 140.64C163.349 140.043 163.485 139.31 163.485 138.442C163.485 137.714 163.405 137.079 163.247 136.538C163.088 135.997 162.855 135.577 162.547 135.278C162.239 134.979 161.861 134.83 161.413 134.83C160.983 134.83 160.573 134.97 160.181 135.25C159.789 135.53 159.434 135.889 159.117 136.328C158.809 136.767 158.557 137.238 158.361 137.742C158.174 138.246 158.062 138.731 158.025 139.198C158.006 139.431 157.997 139.674 157.997 139.926C158.006 140.178 158.034 140.472 158.081 140.808L156.709 140.906C156.681 140.645 156.648 140.318 156.611 139.926C156.573 139.525 156.555 139.095 156.555 138.638C156.555 138.302 156.569 137.943 156.597 137.56C156.625 137.168 156.657 136.771 156.695 136.37C156.732 135.959 156.774 135.563 156.821 135.18C156.877 134.797 156.923 134.447 156.961 134.13C156.998 133.887 157.021 133.654 157.031 133.43C157.049 133.206 157.063 132.996 157.073 132.8L158.599 132.87Z" fill="white"/>
</svg>
