<svg width="196" height="146" viewBox="0 0 196 146" fill="none" xmlns="http://www.w3.org/2000/svg">
<path d="M65.912 6.83H75.628V8.118H65.912V6.83ZM65.31 10.932H75.11V12.206H65.31V10.932ZM63.742 15.454H76.314V16.742H63.742V15.454ZM69.342 4.184H70.714V16.098H69.342V4.184ZM66.15 4.38L67.522 4.688C67.3167 5.40667 67.0693 6.116 66.78 6.816C66.5 7.50667 66.192 8.15067 65.856 8.748C65.52 9.336 65.17 9.854 64.806 10.302C64.7127 10.2273 64.5913 10.1433 64.442 10.05C64.302 9.94733 64.1573 9.84933 64.008 9.756C63.8587 9.65333 63.7233 9.574 63.602 9.518C63.9847 9.10733 64.3347 8.63133 64.652 8.09C64.9693 7.53933 65.254 6.94667 65.506 6.312C65.7673 5.67733 65.982 5.03333 66.15 4.38ZM84.364 4.184L85.568 4.408C85.4 5.18267 85.1853 5.92933 84.924 6.648C84.672 7.36667 84.378 8.03867 84.042 8.664C83.7153 9.28 83.3607 9.82133 82.978 10.288C82.9033 10.2227 82.8053 10.1433 82.684 10.05C82.5627 9.94733 82.4367 9.84933 82.306 9.756C82.1753 9.66267 82.0587 9.588 81.956 9.532C82.348 9.12133 82.6933 8.63133 82.992 8.062C83.3 7.49267 83.566 6.88133 83.79 6.228C84.0233 5.56533 84.2147 4.884 84.364 4.184ZM89.138 6.452H90.398C90.398 6.452 90.398 6.494 90.398 6.578C90.398 6.662 90.398 6.75533 90.398 6.858C90.398 6.95133 90.3933 7.03067 90.384 7.096C90.3093 8.68267 90.23 10.0267 90.146 11.128C90.0713 12.2293 89.992 13.1347 89.908 13.844C89.824 14.5533 89.726 15.1087 89.614 15.51C89.5113 15.9113 89.39 16.196 89.25 16.364C89.1007 16.5787 88.9467 16.728 88.788 16.812C88.6293 16.896 88.438 16.9567 88.214 16.994C88.0273 17.022 87.7893 17.036 87.5 17.036C87.22 17.0453 86.926 17.0407 86.618 17.022C86.6087 16.826 86.5713 16.602 86.506 16.35C86.45 16.1073 86.366 15.8973 86.254 15.72C86.5527 15.748 86.8233 15.7667 87.066 15.776C87.3087 15.776 87.4953 15.776 87.626 15.776C87.7473 15.776 87.8453 15.762 87.92 15.734C87.9947 15.6967 88.074 15.6313 88.158 15.538C88.2607 15.4073 88.3587 15.16 88.452 14.796C88.5453 14.432 88.6293 13.9093 88.704 13.228C88.788 12.5467 88.8627 11.6787 88.928 10.624C89.0027 9.56 89.0727 8.272 89.138 6.76V6.452ZM84.49 6.452H89.698V7.684H83.916L84.49 6.452ZM85.736 6.844L86.716 7.334C86.52 8.146 86.2493 8.97667 85.904 9.826C85.568 10.666 85.176 11.45 84.728 12.178C84.28 12.906 83.7947 13.508 83.272 13.984C83.1507 13.8627 82.992 13.732 82.796 13.592C82.6093 13.4427 82.4227 13.3213 82.236 13.228C82.6467 12.9013 83.034 12.5047 83.398 12.038C83.762 11.562 84.0933 11.0393 84.392 10.47C84.6907 9.89133 84.952 9.294 85.176 8.678C85.4 8.05267 85.5867 7.44133 85.736 6.844ZM87.71 6.97L88.746 7.446C88.578 8.37933 88.354 9.30333 88.074 10.218C87.794 11.1327 87.4627 12.01 87.08 12.85C86.7067 13.69 86.2773 14.4553 85.792 15.146C85.316 15.8367 84.7793 16.42 84.182 16.896C84.0607 16.7747 83.8927 16.6347 83.678 16.476C83.4727 16.3267 83.2767 16.2053 83.09 16.112C83.706 15.6733 84.2613 15.1273 84.756 14.474C85.2507 13.8113 85.6847 13.074 86.058 12.262C86.4407 11.45 86.7673 10.596 87.038 9.7C87.318 8.79467 87.542 7.88467 87.71 6.97ZM77.448 11.898C77.896 11.786 78.4047 11.6507 78.974 11.492C79.5527 11.3333 80.1593 11.1607 80.794 10.974C81.438 10.7873 82.082 10.6007 82.726 10.414L82.894 11.59C82.0167 11.8607 81.1253 12.136 80.22 12.416C79.3147 12.696 78.5027 12.948 77.784 13.172L77.448 11.898ZM80.01 4.184H81.242V17.176H80.01V4.184ZM78.232 4.982L79.352 5.164C79.2867 5.78933 79.2027 6.41 79.1 7.026C79.0067 7.642 78.8947 8.22067 78.764 8.762C78.6333 9.30333 78.4793 9.784 78.302 10.204C78.2273 10.148 78.1293 10.0827 78.008 10.008C77.896 9.93333 77.7747 9.85867 77.644 9.784C77.5227 9.70933 77.42 9.64867 77.336 9.602C77.504 9.21933 77.644 8.776 77.756 8.272C77.868 7.768 77.9613 7.236 78.036 6.676C78.12 6.116 78.1853 5.55133 78.232 4.982ZM78.456 6.984H82.558V8.244H78.218L78.456 6.984ZM94.458 7.446L95.34 6.69C95.6667 6.83 96.0027 7.00267 96.348 7.208C96.7027 7.404 97.034 7.60467 97.342 7.81C97.6593 8.01533 97.916 8.21133 98.112 8.398L97.174 9.238C96.9873 9.05133 96.74 8.85067 96.432 8.636C96.1333 8.42133 95.8113 8.21133 95.466 8.006C95.1207 7.79133 94.7847 7.60467 94.458 7.446ZM100.856 5.304H101.108L101.332 5.248L102.186 5.752C101.738 6.58267 101.159 7.32933 100.45 7.992C99.75 8.64533 98.9613 9.21933 98.084 9.714C97.216 10.1993 96.3013 10.6147 95.34 10.96C94.3787 11.3053 93.4173 11.5807 92.456 11.786C92.3907 11.618 92.2973 11.422 92.176 11.198C92.064 10.9647 91.952 10.778 91.84 10.638C92.7453 10.4793 93.6507 10.2507 94.556 9.952C95.4707 9.65333 96.3387 9.28467 97.16 8.846C97.9813 8.40733 98.7093 7.91267 99.344 7.362C99.988 6.802 100.492 6.18133 100.856 5.5V5.304ZM96.278 5.304H101.164V6.41H96.278V5.304ZM97.216 4.142L98.672 4.464C98 5.23867 97.1833 5.962 96.222 6.634C95.27 7.29667 94.1407 7.88933 92.834 8.412C92.778 8.3 92.6987 8.18333 92.596 8.062C92.4933 7.93133 92.3813 7.81 92.26 7.698C92.148 7.586 92.0407 7.49267 91.938 7.418C92.778 7.138 93.534 6.82067 94.206 6.466C94.878 6.102 95.466 5.724 95.97 5.332C96.474 4.93067 96.8893 4.534 97.216 4.142ZM96.292 12.654L97.258 11.898C97.594 12.066 97.944 12.2667 98.308 12.5C98.672 12.724 99.0127 12.9527 99.33 13.186C99.6567 13.4193 99.9227 13.6387 100.128 13.844L99.092 14.684C98.9053 14.4787 98.6533 14.2547 98.336 14.012C98.028 13.7693 97.692 13.5313 97.328 13.298C96.9733 13.0553 96.628 12.8407 96.292 12.654ZM102.774 10.288H103.04L103.278 10.232L104.16 10.694C103.721 11.73 103.143 12.6213 102.424 13.368C101.705 14.1147 100.875 14.7447 99.932 15.258C98.9987 15.762 97.986 16.168 96.894 16.476C95.8113 16.7933 94.682 17.036 93.506 17.204C93.4593 17.0173 93.38 16.8073 93.268 16.574C93.156 16.3407 93.044 16.1493 92.932 16C94.0333 15.8693 95.0973 15.6733 96.124 15.412C97.1507 15.1413 98.098 14.7867 98.966 14.348C99.8433 13.9093 100.609 13.3727 101.262 12.738C101.915 12.094 102.419 11.3427 102.774 10.484V10.288ZM98.42 10.288H103.124V11.408H98.42V10.288ZM99.484 8.958L100.94 9.294C100.203 10.162 99.2787 10.9647 98.168 11.702C97.0573 12.4393 95.732 13.0833 94.192 13.634C94.136 13.5313 94.0613 13.4147 93.968 13.284C93.8747 13.1533 93.7767 13.0273 93.674 12.906C93.5713 12.7847 93.4733 12.6867 93.38 12.612C94.36 12.304 95.242 11.954 96.026 11.562C96.81 11.17 97.4913 10.75 98.07 10.302C98.6487 9.854 99.12 9.406 99.484 8.958ZM110.558 5.864H118.216V6.928H110.558V5.864ZM110.95 7.726H117.908V8.748H110.95V7.726ZM110.264 9.602H118.426V10.708H110.264V9.602ZM116.074 4.156L117.39 4.506C117.203 4.814 117.017 5.122 116.83 5.43C116.653 5.72867 116.494 5.98067 116.354 6.186L115.318 5.878C115.449 5.63533 115.584 5.35067 115.724 5.024C115.873 4.69733 115.99 4.408 116.074 4.156ZM111.538 4.576L112.588 4.212C112.756 4.464 112.915 4.73933 113.064 5.038C113.223 5.33667 113.339 5.59333 113.414 5.808L112.294 6.228C112.238 6.004 112.135 5.738 111.986 5.43C111.846 5.11267 111.697 4.828 111.538 4.576ZM117.306 11.114L118.314 11.828C118.015 12.164 117.689 12.4953 117.334 12.822C116.989 13.1487 116.676 13.4333 116.396 13.676L115.528 13.032C115.715 12.864 115.915 12.6727 116.13 12.458C116.354 12.234 116.569 12.0053 116.774 11.772C116.979 11.5293 117.157 11.31 117.306 11.114ZM110.642 11.758L111.552 11.17C111.823 11.4313 112.093 11.73 112.364 12.066C112.635 12.3927 112.84 12.6867 112.98 12.948L112.028 13.606C111.897 13.354 111.701 13.0553 111.44 12.71C111.179 12.3553 110.913 12.038 110.642 11.758ZM109.718 15.258C110.157 15.0527 110.679 14.7913 111.286 14.474C111.893 14.1567 112.509 13.83 113.134 13.494L113.47 14.572C112.938 14.88 112.397 15.1927 111.846 15.51C111.305 15.8273 110.796 16.112 110.32 16.364L109.718 15.258ZM113.722 6.592H114.996V15.79C114.996 16.1167 114.959 16.3687 114.884 16.546C114.809 16.7327 114.674 16.8773 114.478 16.98C114.263 17.0827 113.993 17.1433 113.666 17.162C113.349 17.19 112.975 17.204 112.546 17.204C112.527 17.036 112.481 16.8307 112.406 16.588C112.341 16.3547 112.266 16.1587 112.182 16C112.453 16.0093 112.714 16.014 112.966 16.014C113.227 16.0233 113.4 16.0233 113.484 16.014C113.577 16.014 113.638 15.9953 113.666 15.958C113.703 15.9207 113.722 15.8647 113.722 15.79V6.592ZM114.926 11.058C115.141 11.7207 115.425 12.3413 115.78 12.92C116.135 13.4987 116.555 14.0073 117.04 14.446C117.535 14.8847 118.085 15.2347 118.692 15.496C118.608 15.5707 118.51 15.6733 118.398 15.804C118.295 15.9253 118.193 16.0513 118.09 16.182C117.997 16.322 117.917 16.448 117.852 16.56C117.236 16.2333 116.681 15.8087 116.186 15.286C115.701 14.754 115.276 14.1473 114.912 13.466C114.557 12.7847 114.263 12.052 114.03 11.268L114.926 11.058ZM105.686 7.166H110.264V8.398H105.686V7.166ZM107.534 4.184H108.738V17.162H107.534V4.184ZM107.506 7.95L108.276 8.216C108.173 8.76667 108.043 9.34067 107.884 9.938C107.725 10.5353 107.548 11.1233 107.352 11.702C107.156 12.2807 106.941 12.8173 106.708 13.312C106.484 13.8067 106.251 14.2313 106.008 14.586C105.943 14.4087 105.845 14.208 105.714 13.984C105.593 13.76 105.481 13.5733 105.378 13.424C105.602 13.116 105.821 12.7473 106.036 12.318C106.26 11.8887 106.465 11.4313 106.652 10.946C106.839 10.4513 107.002 9.94733 107.142 9.434C107.291 8.92067 107.413 8.426 107.506 7.95ZM108.668 9.07C108.752 9.16333 108.873 9.33133 109.032 9.574C109.191 9.80733 109.363 10.064 109.55 10.344C109.746 10.624 109.923 10.8853 110.082 11.128C110.241 11.3613 110.348 11.5293 110.404 11.632L109.704 12.598C109.62 12.4113 109.508 12.1827 109.368 11.912C109.228 11.632 109.074 11.3473 108.906 11.058C108.747 10.7593 108.593 10.4793 108.444 10.218C108.304 9.95667 108.187 9.75133 108.094 9.602L108.668 9.07ZM121.268 4.184H122.598V17.162H121.268V4.184ZM120.022 6.858L121.002 6.998C120.974 7.38067 120.927 7.80533 120.862 8.272C120.806 8.73867 120.731 9.196 120.638 9.644C120.554 10.092 120.451 10.4933 120.33 10.848L119.322 10.498C119.443 10.1807 119.551 9.812 119.644 9.392C119.737 8.972 119.817 8.54267 119.882 8.104C119.947 7.656 119.994 7.24067 120.022 6.858ZM122.514 6.858L123.424 6.466C123.629 6.83 123.825 7.23133 124.012 7.67C124.199 8.10867 124.329 8.47733 124.404 8.776L123.424 9.238C123.377 9.03267 123.307 8.79467 123.214 8.524C123.121 8.25333 123.009 7.96867 122.878 7.67C122.757 7.37133 122.635 7.10067 122.514 6.858ZM125.272 4.828L126.574 5.024C126.462 5.71467 126.322 6.39133 126.154 7.054C125.986 7.71667 125.795 8.33733 125.58 8.916C125.375 9.48533 125.141 9.98933 124.88 10.428C124.796 10.372 124.679 10.3067 124.53 10.232C124.39 10.148 124.245 10.0733 124.096 10.008C123.947 9.93333 123.816 9.87267 123.704 9.826C123.965 9.42467 124.194 8.958 124.39 8.426C124.595 7.88467 124.773 7.306 124.922 6.69C125.071 6.074 125.188 5.45333 125.272 4.828ZM125.496 7.096H131.992V8.342H125.104L125.496 7.096ZM127.61 4.24H128.94V16.154H127.61V4.24ZM124.754 11.002H131.684V12.234H124.754V11.002ZM123.704 15.44H132.37V16.7H123.704V15.44Z" fill="#DE534B"/>
<path d="M78 37C86.5095 37 94.7972 39.7137 101.659 44.7468C108.52 49.7798 113.598 56.8699 116.153 64.9865C118.709 73.1031 118.61 81.8233 115.87 89.8796C113.13 97.9358 107.892 104.908 100.918 109.784L98.7315 106.656C105.04 102.246 109.779 95.9387 112.257 88.6509C114.736 81.3632 114.826 73.4749 112.514 66.1325C110.202 58.7902 105.609 52.3765 99.4017 47.8236C93.1948 43.2706 85.6977 40.8158 78 40.8158V37Z" fill="white"/>
<path d="M62.57 73.275C62.72 73.275 62.84 73.335 62.93 73.455C63.05 73.545 63.11 73.665 63.11 73.815V78.36C63.11 78.51 63.05 78.645 62.93 78.765C62.84 78.855 62.72 78.9 62.57 78.9H60.635C60.485 78.9 60.41 78.975 60.41 79.125V86.46C60.41 86.61 60.35 86.745 60.23 86.865C60.14 86.955 60.02 87 59.87 87H54.605C54.455 87 54.32 86.955 54.2 86.865C54.11 86.745 54.065 86.61 54.065 86.46V79.125C54.065 78.975 53.99 78.9 53.84 78.9H40.025C39.875 78.9 39.74 78.855 39.62 78.765C39.53 78.645 39.485 78.51 39.485 78.36V74.76C39.485 74.58 39.53 74.355 39.62 74.085L47.72 55.905C47.84 55.635 48.05 55.5 48.35 55.5H53.975C54.185 55.5 54.32 55.56 54.38 55.68C54.47 55.77 54.47 55.92 54.38 56.13L46.865 73.005C46.835 73.065 46.835 73.125 46.865 73.185C46.895 73.245 46.94 73.275 47 73.275H53.84C53.99 73.275 54.065 73.2 54.065 73.05V67.47C54.065 67.32 54.11 67.2 54.2 67.11C54.32 66.99 54.455 66.93 54.605 66.93H59.87C60.02 66.93 60.14 66.99 60.23 67.11C60.35 67.2 60.41 67.32 60.41 67.47V73.05C60.41 73.2 60.485 73.275 60.635 73.275H62.57ZM78.0261 87.495C74.7261 87.495 72.1161 86.58 70.1961 84.75C68.2761 82.89 67.3161 80.37 67.3161 77.19V65.31C67.3161 62.19 68.2761 59.715 70.1961 57.885C72.1161 56.055 74.7261 55.14 78.0261 55.14C81.3261 55.14 83.9361 56.055 85.8561 57.885C87.8061 59.715 88.7811 62.19 88.7811 65.31V77.19C88.7811 80.37 87.8061 82.89 85.8561 84.75C83.9361 86.58 81.3261 87.495 78.0261 87.495ZM78.0261 82.05C79.3761 82.05 80.4411 81.645 81.2211 80.835C82.0311 79.995 82.4361 78.885 82.4361 77.505V65.13C82.4361 63.75 82.0311 62.655 81.2211 61.845C80.4411 61.005 79.3761 60.585 78.0261 60.585C76.7061 60.585 75.6411 61.005 74.8311 61.845C74.0511 62.655 73.6611 63.75 73.6611 65.13V77.505C73.6611 78.885 74.0511 79.995 74.8311 80.835C75.6411 81.645 76.7061 82.05 78.0261 82.05Z" fill="#DE534B"/>
<path d="M95.712 79.392C95.2747 79.392 94.8693 79.2853 94.496 79.072C94.1333 78.8587 93.8453 78.5707 93.632 78.208C93.4187 77.8453 93.312 77.4453 93.312 77.008C93.312 76.5813 93.4187 76.1867 93.632 75.824C93.8453 75.4613 94.1333 75.1787 94.496 74.976C94.8693 74.7627 95.2747 74.656 95.712 74.656C96.1387 74.656 96.5333 74.7627 96.896 74.976C97.2587 75.1893 97.5467 75.4773 97.76 75.84C97.9733 76.192 98.08 76.5813 98.08 77.008C98.08 77.4453 97.9733 77.8453 97.76 78.208C97.5467 78.5707 97.2587 78.8587 96.896 79.072C96.5333 79.2853 96.1387 79.392 95.712 79.392ZM95.248 86C95.184 86 95.1413 85.984 95.12 85.952C95.0987 85.9093 95.104 85.8613 95.136 85.808L101.184 74.912C101.227 74.8373 101.291 74.8 101.376 74.8H102.16C102.224 74.8 102.267 74.8213 102.288 74.864C102.309 74.896 102.304 74.9387 102.272 74.992L96.224 85.888C96.192 85.9627 96.128 86 96.032 86H95.248ZM95.712 78.448C96.1067 78.448 96.4373 78.3093 96.704 78.032C96.9707 77.7547 97.104 77.4133 97.104 77.008C97.104 76.6133 96.9653 76.2827 96.688 76.016C96.4213 75.7387 96.096 75.6 95.712 75.6C95.3173 75.6 94.9813 75.7387 94.704 76.016C94.4267 76.2827 94.288 76.6133 94.288 77.008C94.288 77.4133 94.4267 77.7547 94.704 78.032C94.9813 78.3093 95.3173 78.448 95.712 78.448ZM101.808 86.144C101.371 86.144 100.965 86.0373 100.592 85.824C100.229 85.6107 99.9413 85.3227 99.728 84.96C99.5147 84.5973 99.408 84.2027 99.408 83.776C99.408 83.3493 99.5147 82.9547 99.728 82.592C99.9413 82.2293 100.229 81.9413 100.592 81.728C100.965 81.5147 101.371 81.408 101.808 81.408C102.235 81.408 102.629 81.5147 102.992 81.728C103.355 81.9413 103.643 82.2293 103.856 82.592C104.069 82.9547 104.176 83.3493 104.176 83.776C104.176 84.2027 104.069 84.5973 103.856 84.96C103.643 85.3227 103.355 85.6107 102.992 85.824C102.629 86.0373 102.235 86.144 101.808 86.144ZM101.808 85.2C102.203 85.2 102.533 85.0613 102.8 84.784C103.067 84.5067 103.2 84.1707 103.2 83.776C103.2 83.3813 103.061 83.0453 102.784 82.768C102.517 82.4907 102.192 82.352 101.808 82.352C101.413 82.352 101.077 82.4907 100.8 82.768C100.523 83.0453 100.384 83.3813 100.384 83.776C100.384 84.1707 100.523 84.5067 100.8 84.784C101.077 85.0613 101.413 85.2 101.808 85.2Z" fill="#DE534B"/>
<path d="M136.878 73.834L138.03 72.754C138.438 72.97 138.864 73.24 139.308 73.564C139.764 73.888 140.112 74.188 140.352 74.464L139.146 75.652C138.918 75.376 138.588 75.064 138.156 74.716C137.724 74.368 137.298 74.074 136.878 73.834ZM131.55 80.854H134.808V85.93H131.55V84.346H133.386V82.42H131.55V80.854ZM138.3 78.424L140.172 78.784C139.62 81.184 138.81 83.29 137.742 85.102C136.686 86.902 135.348 88.366 133.728 89.494C133.644 89.374 133.512 89.224 133.332 89.044C133.152 88.876 132.972 88.702 132.792 88.522C132.612 88.354 132.45 88.216 132.306 88.108C133.902 87.136 135.186 85.828 136.158 84.184C137.13 82.528 137.844 80.608 138.3 78.424ZM128.328 75.364H130.2V80.404C130.2 81.076 130.176 81.814 130.128 82.618C130.092 83.41 130.014 84.226 129.894 85.066C129.774 85.894 129.594 86.698 129.354 87.478C129.126 88.258 128.82 88.96 128.436 89.584C128.328 89.476 128.172 89.35 127.968 89.206C127.764 89.062 127.56 88.924 127.356 88.792C127.152 88.66 126.972 88.564 126.816 88.504C127.284 87.724 127.62 86.86 127.824 85.912C128.04 84.964 128.178 84.016 128.238 83.068C128.298 82.108 128.328 81.22 128.328 80.404V75.364ZM129.48 75.364H140.208V77.254H129.48V75.364ZM130.812 78.262H134.646V79.846H130.812V78.262ZM130.722 80.854H132.126V86.884H130.722V80.854ZM124.35 74.374L125.556 72.808C125.904 72.952 126.264 73.126 126.636 73.33C127.02 73.522 127.38 73.72 127.716 73.924C128.064 74.128 128.346 74.332 128.562 74.536L127.266 76.264C127.074 76.06 126.81 75.85 126.474 75.634C126.15 75.406 125.802 75.184 125.43 74.968C125.058 74.74 124.698 74.542 124.35 74.374ZM123.504 79.252L124.692 77.668C125.04 77.788 125.4 77.944 125.772 78.136C126.156 78.316 126.516 78.508 126.852 78.712C127.188 78.916 127.464 79.114 127.68 79.306L126.42 81.052C126.216 80.86 125.952 80.656 125.628 80.44C125.304 80.212 124.95 79.996 124.566 79.792C124.194 79.588 123.84 79.408 123.504 79.252ZM123.594 88.162C123.834 87.67 124.092 87.1 124.368 86.452C124.644 85.792 124.92 85.096 125.196 84.364C125.472 83.62 125.73 82.888 125.97 82.168L127.698 83.266C127.494 83.938 127.272 84.622 127.032 85.318C126.792 86.002 126.546 86.68 126.294 87.352C126.054 88.012 125.808 88.642 125.556 89.242L123.594 88.162ZM134.808 72.916H136.788C136.8 74.38 136.842 75.802 136.914 77.182C136.986 78.562 137.082 79.846 137.202 81.034C137.334 82.222 137.478 83.26 137.634 84.148C137.79 85.036 137.958 85.732 138.138 86.236C138.318 86.74 138.51 86.998 138.714 87.01C138.846 87.022 138.954 86.806 139.038 86.362C139.122 85.918 139.188 85.276 139.236 84.436C139.344 84.58 139.5 84.73 139.704 84.886C139.908 85.03 140.106 85.168 140.298 85.3C140.502 85.42 140.658 85.504 140.766 85.552C140.622 86.656 140.43 87.496 140.19 88.072C139.962 88.648 139.716 89.038 139.452 89.242C139.188 89.458 138.93 89.566 138.678 89.566C138.126 89.554 137.64 89.284 137.22 88.756C136.812 88.228 136.464 87.472 136.176 86.488C135.888 85.504 135.648 84.328 135.456 82.96C135.276 81.592 135.132 80.062 135.024 78.37C134.928 76.678 134.856 74.86 134.808 72.916ZM148.902 72.7H151.116V81.484C151.116 82.048 151.044 82.498 150.9 82.834C150.768 83.158 150.504 83.41 150.108 83.59C149.724 83.758 149.256 83.866 148.704 83.914C148.152 83.962 147.504 83.986 146.76 83.986C146.712 83.662 146.61 83.29 146.454 82.87C146.31 82.438 146.16 82.066 146.004 81.754C146.34 81.766 146.676 81.778 147.012 81.79C147.348 81.79 147.648 81.79 147.912 81.79C148.176 81.79 148.362 81.79 148.47 81.79C148.638 81.79 148.752 81.766 148.812 81.718C148.872 81.67 148.902 81.574 148.902 81.43V72.7ZM152.808 75.724L154.824 74.698C155.316 75.298 155.808 75.952 156.3 76.66C156.792 77.356 157.242 78.052 157.65 78.748C158.058 79.444 158.37 80.08 158.586 80.656L156.372 81.844C156.192 81.292 155.91 80.662 155.526 79.954C155.154 79.234 154.728 78.508 154.248 77.776C153.78 77.044 153.3 76.36 152.808 75.724ZM153.636 80.314L155.94 80.98C155.496 82.372 154.932 83.566 154.248 84.562C153.564 85.546 152.736 86.374 151.764 87.046C150.804 87.706 149.688 88.246 148.416 88.666C147.144 89.086 145.692 89.428 144.06 89.692C143.952 89.344 143.79 88.966 143.574 88.558C143.358 88.15 143.136 87.808 142.908 87.532C144.408 87.364 145.74 87.118 146.904 86.794C148.068 86.47 149.082 86.032 149.946 85.48C150.822 84.916 151.56 84.214 152.16 83.374C152.772 82.534 153.264 81.514 153.636 80.314ZM144.78 74.986L147.192 75.544C146.904 76.288 146.568 77.062 146.184 77.866C145.8 78.658 145.374 79.414 144.906 80.134C144.45 80.854 143.964 81.484 143.448 82.024C143.28 81.88 143.076 81.73 142.836 81.574C142.608 81.406 142.368 81.25 142.116 81.106C141.876 80.95 141.666 80.83 141.486 80.746C141.99 80.254 142.452 79.684 142.872 79.036C143.304 78.376 143.682 77.692 144.006 76.984C144.342 76.276 144.6 75.61 144.78 74.986Z" fill="#DE534B"/>
<path d="M3.346 134.284H6.846V135.53H3.346V134.284ZM9.338 132.198H10.71V145.148H9.338V132.198ZM1.806 138.078L2.492 137.098C2.86533 137.303 3.25267 137.537 3.654 137.798C4.06467 138.059 4.44733 138.325 4.802 138.596C5.166 138.867 5.45533 139.119 5.67 139.352L4.942 140.458C4.73667 140.225 4.45667 139.963 4.102 139.674C3.75667 139.385 3.37867 139.1 2.968 138.82C2.56667 138.54 2.17933 138.293 1.806 138.078ZM3.64 132.17L4.97 132.436C4.72733 133.36 4.424 134.247 4.06 135.096C3.70533 135.945 3.304 136.729 2.856 137.448C2.41733 138.157 1.93667 138.778 1.414 139.31C1.33933 139.235 1.232 139.147 1.092 139.044C0.961333 138.932 0.821333 138.825 0.672 138.722C0.532 138.61 0.406 138.521 0.294 138.456C0.816667 137.98 1.29267 137.415 1.722 136.762C2.15133 136.109 2.52467 135.39 2.842 134.606C3.16867 133.822 3.43467 133.01 3.64 132.17ZM8.148 135.53C8.43733 136.071 8.78733 136.603 9.198 137.126C9.618 137.639 10.0753 138.129 10.57 138.596C11.074 139.053 11.6013 139.473 12.152 139.856C12.7027 140.229 13.2627 140.542 13.832 140.794C13.7293 140.878 13.6173 140.99 13.496 141.13C13.3747 141.261 13.258 141.396 13.146 141.536C13.0433 141.676 12.9547 141.807 12.88 141.928C12.3013 141.629 11.732 141.265 11.172 140.836C10.612 140.407 10.08 139.935 9.576 139.422C9.072 138.899 8.60533 138.344 8.176 137.756C7.74667 137.168 7.36867 136.566 7.042 135.95L8.148 135.53ZM6.482 134.284H6.72L6.958 134.228L7.826 134.522C7.55533 136.342 7.13067 137.938 6.552 139.31C5.97333 140.682 5.27333 141.844 4.452 142.796C3.63067 143.748 2.72067 144.513 1.722 145.092C1.64733 144.989 1.54467 144.873 1.414 144.742C1.29267 144.611 1.162 144.485 1.022 144.364C0.891333 144.252 0.77 144.163 0.658 144.098C1.65667 143.566 2.548 142.871 3.332 142.012C4.12533 141.144 4.788 140.094 5.32 138.862C5.86133 137.63 6.24867 136.202 6.482 134.578V134.284ZM14.756 138.344H27.258V139.618H14.756V138.344ZM15.428 133.794H26.698V135.068H15.428V133.794ZM20.3 132.184H21.7V145.162H20.3V132.184ZM24.458 135.194L25.844 135.614C25.676 135.931 25.4987 136.258 25.312 136.594C25.1347 136.921 24.9527 137.233 24.766 137.532C24.5887 137.821 24.4207 138.083 24.262 138.316L23.128 137.924C23.2867 137.681 23.4453 137.401 23.604 137.084C23.772 136.757 23.9307 136.431 24.08 136.104C24.2293 135.768 24.3553 135.465 24.458 135.194ZM16.464 135.684L17.654 135.25C17.8313 135.511 18.004 135.796 18.172 136.104C18.3493 136.412 18.5033 136.715 18.634 137.014C18.7647 137.303 18.8627 137.565 18.928 137.798L17.668 138.302C17.612 138.069 17.5233 137.803 17.402 137.504C17.2807 137.196 17.136 136.883 16.968 136.566C16.8093 136.249 16.6413 135.955 16.464 135.684ZM20.02 138.848L21.084 139.296C20.7573 139.847 20.3747 140.383 19.936 140.906C19.5067 141.419 19.04 141.909 18.536 142.376C18.032 142.833 17.5093 143.253 16.968 143.636C16.436 144.019 15.8993 144.345 15.358 144.616C15.2927 144.504 15.204 144.378 15.092 144.238C14.98 144.107 14.8633 143.977 14.742 143.846C14.63 143.706 14.518 143.594 14.406 143.51C14.938 143.286 15.4747 143.006 16.016 142.67C16.5573 142.334 17.0753 141.961 17.57 141.55C18.0647 141.13 18.522 140.691 18.942 140.234C19.362 139.777 19.7213 139.315 20.02 138.848ZM22.008 138.862C22.3067 139.329 22.6613 139.791 23.072 140.248C23.492 140.705 23.9493 141.144 24.444 141.564C24.9387 141.975 25.452 142.348 25.984 142.684C26.5253 143.02 27.062 143.305 27.594 143.538C27.5007 143.622 27.3933 143.734 27.272 143.874C27.1507 144.005 27.034 144.135 26.922 144.266C26.8193 144.406 26.7353 144.537 26.67 144.658C26.1287 144.387 25.5873 144.061 25.046 143.678C24.5047 143.295 23.982 142.871 23.478 142.404C22.9833 141.928 22.5167 141.429 22.078 140.906C21.6487 140.383 21.2707 139.851 20.944 139.31L22.008 138.862ZM36.848 133.304H38.108V144.434H36.848V133.304ZM33.488 134.634H41.272V135.698H33.488V134.634ZM33.096 143.846H41.552V144.91H33.096V143.846ZM33.894 141.9H41.062V142.95H33.894V141.9ZM40.474 132.324L41.258 133.318C40.7727 133.421 40.2313 133.509 39.634 133.584C39.046 133.659 38.43 133.724 37.786 133.78C37.1513 133.827 36.5073 133.869 35.854 133.906C35.21 133.934 34.594 133.953 34.006 133.962C33.9873 133.822 33.9453 133.654 33.88 133.458C33.824 133.262 33.7633 133.099 33.698 132.968C34.286 132.94 34.8927 132.912 35.518 132.884C36.1433 132.847 36.7547 132.8 37.352 132.744C37.9587 132.688 38.528 132.627 39.06 132.562C39.6013 132.497 40.0727 132.417 40.474 132.324ZM35.196 139.17V140.122H39.816V139.17H35.196ZM35.196 137.42V138.358H39.816V137.42H35.196ZM34.034 136.482H41.02V141.074H34.034V136.482ZM30.8 133.402H32.088V145.162H30.8V133.402ZM28.63 136.118H33.74V137.364H28.63V136.118ZM30.87 136.608L31.668 136.958C31.528 137.453 31.36 137.971 31.164 138.512C30.968 139.044 30.7533 139.571 30.52 140.094C30.296 140.617 30.0533 141.107 29.792 141.564C29.5307 142.021 29.2647 142.413 28.994 142.74C28.9287 142.553 28.8307 142.343 28.7 142.11C28.5693 141.867 28.4527 141.667 28.35 141.508C28.602 141.228 28.8493 140.897 29.092 140.514C29.3347 140.122 29.568 139.707 29.792 139.268C30.0253 138.82 30.2307 138.367 30.408 137.91C30.5947 137.453 30.7487 137.019 30.87 136.608ZM32.928 132.352L33.838 133.374C33.3807 133.551 32.872 133.715 32.312 133.864C31.7613 134.004 31.192 134.13 30.604 134.242C30.016 134.345 29.4467 134.438 28.896 134.522C28.868 134.373 28.8167 134.2 28.742 134.004C28.6673 133.808 28.5927 133.64 28.518 133.5C29.0407 133.416 29.5727 133.318 30.114 133.206C30.6647 133.085 31.1827 132.954 31.668 132.814C32.1627 132.665 32.5827 132.511 32.928 132.352ZM32.06 137.994C32.144 138.059 32.2747 138.185 32.452 138.372C32.6293 138.549 32.8207 138.741 33.026 138.946C33.2407 139.151 33.432 139.347 33.6 139.534C33.768 139.711 33.8847 139.842 33.95 139.926L33.18 140.962C33.096 140.813 32.9793 140.626 32.83 140.402C32.69 140.178 32.5313 139.949 32.354 139.716C32.186 139.473 32.0227 139.245 31.864 139.03C31.7053 138.815 31.57 138.643 31.458 138.512L32.06 137.994ZM50.736 132.226H52.052V134.998H50.736V132.226ZM47.964 134.522H55.3V135.726H47.964V134.522ZM47.404 134.522H48.664V137.742C48.664 138.283 48.6407 138.876 48.594 139.52C48.5567 140.155 48.4773 140.808 48.356 141.48C48.2347 142.152 48.0573 142.805 47.824 143.44C47.5907 144.065 47.2873 144.635 46.914 145.148C46.8487 145.073 46.746 144.989 46.606 144.896C46.4753 144.803 46.34 144.709 46.2 144.616C46.0693 144.532 45.9527 144.467 45.85 144.42C46.2047 143.935 46.4847 143.407 46.69 142.838C46.9047 142.269 47.0587 141.69 47.152 141.102C47.2547 140.505 47.32 139.921 47.348 139.352C47.3853 138.773 47.404 138.232 47.404 137.728V134.522ZM50.736 136.538L52.108 136.762C52.0053 137.341 51.884 137.943 51.744 138.568C51.604 139.193 51.4593 139.814 51.31 140.43C51.1607 141.046 51.0067 141.634 50.848 142.194C50.6987 142.745 50.5493 143.239 50.4 143.678L49.238 143.44C49.378 142.992 49.518 142.483 49.658 141.914C49.8073 141.335 49.9473 140.738 50.078 140.122C50.218 139.497 50.344 138.876 50.456 138.26C50.568 137.644 50.6613 137.07 50.736 136.538ZM48.23 143.132C48.7433 143.095 49.3267 143.048 49.98 142.992C50.6427 142.936 51.3473 142.875 52.094 142.81C52.8407 142.735 53.5827 142.661 54.32 142.586L54.362 143.748C53.662 143.823 52.9573 143.897 52.248 143.972C51.548 144.047 50.8713 144.117 50.218 144.182C49.574 144.247 48.986 144.308 48.454 144.364L48.23 143.132ZM52.43 139.898L53.55 139.52C53.858 140.071 54.152 140.663 54.432 141.298C54.7213 141.923 54.9687 142.535 55.174 143.132C55.3887 143.72 55.5427 144.243 55.636 144.7L54.404 145.148C54.32 144.691 54.1753 144.163 53.97 143.566C53.774 142.959 53.5407 142.339 53.27 141.704C53.0087 141.06 52.7287 140.458 52.43 139.898ZM42.336 139.506C42.9147 139.375 43.61 139.203 44.422 138.988C45.234 138.764 46.0507 138.535 46.872 138.302L47.04 139.492C46.2747 139.716 45.5047 139.945 44.73 140.178C43.9647 140.402 43.2647 140.607 42.63 140.794L42.336 139.506ZM42.602 134.928H46.9V136.16H42.602V134.928ZM44.394 132.198H45.654V143.636C45.654 143.981 45.6167 144.252 45.542 144.448C45.4673 144.653 45.3273 144.807 45.122 144.91C44.9167 145.022 44.6553 145.092 44.338 145.12C44.03 145.157 43.638 145.171 43.162 145.162C43.1433 144.994 43.0967 144.784 43.022 144.532C42.9473 144.28 42.868 144.065 42.784 143.888C43.0827 143.897 43.358 143.902 43.61 143.902C43.8713 143.902 44.044 143.902 44.128 143.902C44.2213 143.902 44.2867 143.883 44.324 143.846C44.3707 143.799 44.394 143.729 44.394 143.636V132.198ZM56.84 136.09H69.216V137.462H56.84V136.09ZM63.812 136.636C64.1107 137.737 64.512 138.764 65.016 139.716C65.5293 140.668 66.1547 141.503 66.892 142.222C67.6387 142.931 68.502 143.491 69.482 143.902C69.37 143.995 69.2487 144.117 69.118 144.266C68.9967 144.415 68.88 144.565 68.768 144.714C68.656 144.873 68.5627 145.013 68.488 145.134C67.452 144.649 66.5467 144.009 65.772 143.216C65.0067 142.413 64.358 141.485 63.826 140.43C63.294 139.375 62.846 138.218 62.482 136.958L63.812 136.636ZM62.272 132.184H63.714C63.714 132.847 63.6953 133.561 63.658 134.326C63.63 135.082 63.56 135.861 63.448 136.664C63.336 137.467 63.154 138.269 62.902 139.072C62.65 139.875 62.3 140.649 61.852 141.396C61.404 142.143 60.83 142.838 60.13 143.482C59.43 144.117 58.576 144.672 57.568 145.148C57.456 144.971 57.3067 144.775 57.12 144.56C56.9333 144.355 56.7467 144.182 56.56 144.042C57.5307 143.603 58.3473 143.095 59.01 142.516C59.682 141.928 60.2233 141.293 60.634 140.612C61.054 139.921 61.376 139.207 61.6 138.47C61.824 137.733 61.9827 136.995 62.076 136.258C62.1693 135.521 62.2253 134.807 62.244 134.116C62.2627 133.425 62.272 132.781 62.272 132.184ZM73.71 144.854C73.4207 144.499 73.0987 144.135 72.744 143.762C72.3987 143.389 72.044 143.029 71.68 142.684C71.3253 142.339 70.9847 142.031 70.658 141.76L71.806 140.752C72.142 141.023 72.4967 141.34 72.87 141.704C73.2433 142.059 73.6073 142.427 73.962 142.81C74.326 143.183 74.6387 143.529 74.9 143.846L73.71 144.854ZM90.328 136.048V137.224H95.242V136.048H90.328ZM90.328 133.864V135.026H95.242V133.864H90.328ZM89.082 132.772H96.544V138.33H89.082V132.772ZM87.71 143.608H97.496V144.77H87.71V143.608ZM88.41 139.814L89.488 139.436C89.6747 139.763 89.852 140.122 90.02 140.514C90.188 140.897 90.3327 141.275 90.454 141.648C90.5753 142.012 90.664 142.343 90.72 142.642L89.572 143.062C89.5253 142.763 89.4413 142.427 89.32 142.054C89.208 141.671 89.0727 141.284 88.914 140.892C88.7647 140.5 88.5967 140.141 88.41 139.814ZM96.04 139.366L97.328 139.744C97.1693 140.117 96.9967 140.505 96.81 140.906C96.6233 141.307 96.4367 141.695 96.25 142.068C96.0727 142.432 95.9047 142.754 95.746 143.034L94.752 142.67C94.9107 142.381 95.0693 142.045 95.228 141.662C95.396 141.279 95.55 140.887 95.69 140.486C95.8393 140.075 95.956 139.702 96.04 139.366ZM90.972 138.736H92.19V144.266H90.972V138.736ZM93.366 138.736H94.598V144.266H93.366V138.736ZM85.26 133.304L85.988 132.338C86.2773 132.45 86.576 132.59 86.884 132.758C87.2013 132.917 87.5 133.085 87.78 133.262C88.06 133.43 88.2887 133.593 88.466 133.752L87.696 134.83C87.528 134.662 87.304 134.489 87.024 134.312C86.7533 134.125 86.464 133.943 86.156 133.766C85.848 133.589 85.5493 133.435 85.26 133.304ZM84.476 136.944L85.218 135.978C85.5073 136.099 85.8107 136.244 86.128 136.412C86.4453 136.571 86.7487 136.739 87.038 136.916C87.3273 137.093 87.5607 137.266 87.738 137.434L86.968 138.498C86.8 138.33 86.576 138.153 86.296 137.966C86.016 137.779 85.7127 137.597 85.386 137.42C85.0687 137.233 84.7653 137.075 84.476 136.944ZM84.812 144.112C85.008 143.748 85.2273 143.319 85.47 142.824C85.7127 142.329 85.9553 141.807 86.198 141.256C86.45 140.705 86.6787 140.164 86.884 139.632L87.92 140.402C87.7427 140.887 87.542 141.391 87.318 141.914C87.1033 142.437 86.8793 142.95 86.646 143.454C86.422 143.958 86.2027 144.429 85.988 144.868L84.812 144.112ZM106.792 132.184H108.038V141.984H106.792V132.184ZM102.494 137.896L109.914 134.76L110.404 135.88L102.998 139.072L102.494 137.896ZM103.95 133.514H105.224V142.754C105.224 143.015 105.247 143.216 105.294 143.356C105.341 143.487 105.439 143.575 105.588 143.622C105.747 143.669 105.975 143.692 106.274 143.692C106.358 143.692 106.503 143.692 106.708 143.692C106.913 143.692 107.142 143.692 107.394 143.692C107.655 143.692 107.917 143.692 108.178 143.692C108.439 143.692 108.677 143.692 108.892 143.692C109.107 143.692 109.265 143.692 109.368 143.692C109.629 143.692 109.825 143.641 109.956 143.538C110.096 143.435 110.199 143.249 110.264 142.978C110.329 142.707 110.376 142.315 110.404 141.802C110.553 141.905 110.74 142.003 110.964 142.096C111.197 142.189 111.403 142.255 111.58 142.292C111.524 142.945 111.426 143.459 111.286 143.832C111.146 144.205 110.931 144.471 110.642 144.63C110.362 144.798 109.965 144.882 109.452 144.882C109.368 144.882 109.214 144.882 108.99 144.882C108.775 144.882 108.523 144.882 108.234 144.882C107.954 144.882 107.669 144.882 107.38 144.882C107.1 144.882 106.853 144.882 106.638 144.882C106.423 144.882 106.274 144.882 106.19 144.882C105.621 144.882 105.168 144.821 104.832 144.7C104.505 144.579 104.277 144.359 104.146 144.042C104.015 143.734 103.95 143.3 103.95 142.74V133.514ZM109.662 134.914H109.55L109.816 134.704L110.054 134.522L110.992 134.872L110.936 135.096C110.936 135.759 110.931 136.375 110.922 136.944C110.922 137.504 110.917 138.008 110.908 138.456C110.899 138.895 110.885 139.268 110.866 139.576C110.857 139.875 110.838 140.094 110.81 140.234C110.782 140.533 110.703 140.761 110.572 140.92C110.451 141.079 110.283 141.191 110.068 141.256C109.881 141.331 109.657 141.377 109.396 141.396C109.135 141.405 108.901 141.41 108.696 141.41C108.677 141.233 108.64 141.037 108.584 140.822C108.528 140.598 108.467 140.416 108.402 140.276C108.542 140.285 108.696 140.29 108.864 140.29C109.032 140.29 109.149 140.29 109.214 140.29C109.317 140.29 109.396 140.271 109.452 140.234C109.517 140.187 109.564 140.094 109.592 139.954C109.611 139.87 109.625 139.697 109.634 139.436C109.643 139.175 109.648 138.834 109.648 138.414C109.657 137.985 109.662 137.476 109.662 136.888C109.662 136.3 109.662 135.642 109.662 134.914ZM98.532 135.502H103.068V136.748H98.532V135.502ZM100.268 132.352H101.514V141.536H100.268V132.352ZM98.392 141.732C98.7653 141.592 99.1993 141.424 99.694 141.228C100.198 141.023 100.73 140.803 101.29 140.57C101.859 140.337 102.424 140.103 102.984 139.87L103.278 141.046C102.531 141.401 101.775 141.755 101.01 142.11C100.245 142.465 99.5447 142.782 98.91 143.062L98.392 141.732ZM120.064 134.424C119.971 135.143 119.849 135.903 119.7 136.706C119.56 137.499 119.369 138.288 119.126 139.072C118.846 140.024 118.529 140.831 118.174 141.494C117.829 142.147 117.451 142.647 117.04 142.992C116.629 143.337 116.195 143.51 115.738 143.51C115.271 143.51 114.837 143.351 114.436 143.034C114.035 142.707 113.708 142.255 113.456 141.676C113.204 141.088 113.078 140.407 113.078 139.632C113.078 138.848 113.237 138.106 113.554 137.406C113.881 136.706 114.329 136.085 114.898 135.544C115.467 135.003 116.13 134.578 116.886 134.27C117.642 133.962 118.459 133.808 119.336 133.808C120.176 133.808 120.932 133.943 121.604 134.214C122.285 134.485 122.864 134.863 123.34 135.348C123.825 135.824 124.194 136.384 124.446 137.028C124.698 137.672 124.824 138.358 124.824 139.086C124.824 140.066 124.619 140.939 124.208 141.704C123.807 142.46 123.214 143.081 122.43 143.566C121.646 144.042 120.685 144.364 119.546 144.532L118.72 143.216C118.963 143.188 119.187 143.16 119.392 143.132C119.597 143.095 119.789 143.057 119.966 143.02C120.414 142.917 120.839 142.759 121.24 142.544C121.651 142.329 122.015 142.059 122.332 141.732C122.649 141.396 122.897 141.004 123.074 140.556C123.261 140.108 123.354 139.604 123.354 139.044C123.354 138.484 123.265 137.966 123.088 137.49C122.911 137.005 122.649 136.585 122.304 136.23C121.959 135.875 121.534 135.6 121.03 135.404C120.526 135.199 119.957 135.096 119.322 135.096C118.557 135.096 117.875 135.231 117.278 135.502C116.681 135.773 116.172 136.132 115.752 136.58C115.341 137.019 115.029 137.495 114.814 138.008C114.599 138.521 114.492 139.016 114.492 139.492C114.492 140.024 114.557 140.467 114.688 140.822C114.819 141.167 114.982 141.424 115.178 141.592C115.374 141.76 115.575 141.844 115.78 141.844C115.985 141.844 116.195 141.741 116.41 141.536C116.625 141.321 116.839 140.985 117.054 140.528C117.278 140.071 117.497 139.487 117.712 138.778C117.927 138.106 118.104 137.392 118.244 136.636C118.393 135.871 118.501 135.124 118.566 134.396L120.064 134.424ZM128.59 139.786H137.69V140.962H128.59V139.786ZM132.328 132.184H133.63V135.6C133.63 135.917 133.588 136.165 133.504 136.342C133.429 136.51 133.266 136.641 133.014 136.734C132.771 136.827 132.473 136.883 132.118 136.902C131.763 136.911 131.329 136.916 130.816 136.916C130.788 136.739 130.732 136.547 130.648 136.342C130.564 136.127 130.475 135.936 130.382 135.768C130.625 135.777 130.858 135.787 131.082 135.796C131.315 135.796 131.521 135.796 131.698 135.796C131.875 135.787 131.997 135.782 132.062 135.782C132.239 135.782 132.328 135.707 132.328 135.558V132.184ZM137.284 139.786H138.67C138.67 139.786 138.665 139.819 138.656 139.884C138.656 139.949 138.651 140.029 138.642 140.122C138.633 140.206 138.623 140.281 138.614 140.346C138.549 141.223 138.474 141.951 138.39 142.53C138.306 143.099 138.208 143.543 138.096 143.86C137.993 144.177 137.867 144.415 137.718 144.574C137.55 144.733 137.373 144.845 137.186 144.91C137.009 144.975 136.794 145.017 136.542 145.036C136.318 145.055 136.01 145.064 135.618 145.064C135.235 145.064 134.829 145.055 134.4 145.036C134.391 144.84 134.344 144.621 134.26 144.378C134.185 144.135 134.087 143.925 133.966 143.748C134.386 143.785 134.783 143.813 135.156 143.832C135.539 143.841 135.809 143.846 135.968 143.846C136.117 143.846 136.234 143.837 136.318 143.818C136.411 143.799 136.491 143.757 136.556 143.692C136.668 143.599 136.766 143.417 136.85 143.146C136.934 142.866 137.009 142.469 137.074 141.956C137.149 141.433 137.214 140.771 137.27 139.968L137.284 139.786ZM135.646 134.83L136.962 135.306C136.467 135.978 135.875 136.566 135.184 137.07C134.493 137.565 133.728 137.999 132.888 138.372C132.048 138.736 131.157 139.044 130.214 139.296C129.281 139.548 128.324 139.758 127.344 139.926C127.297 139.814 127.232 139.683 127.148 139.534C127.064 139.385 126.975 139.235 126.882 139.086C126.789 138.927 126.7 138.801 126.616 138.708C127.587 138.587 128.525 138.423 129.43 138.218C130.345 138.003 131.194 137.742 131.978 137.434C132.771 137.117 133.481 136.743 134.106 136.314C134.731 135.885 135.245 135.39 135.646 134.83ZM129.612 132.954L130.942 133.318C130.699 133.766 130.415 134.2 130.088 134.62C129.761 135.04 129.411 135.432 129.038 135.796C128.674 136.151 128.305 136.463 127.932 136.734C127.848 136.65 127.736 136.561 127.596 136.468C127.456 136.365 127.311 136.263 127.162 136.16C127.022 136.057 126.896 135.978 126.784 135.922C127.353 135.567 127.89 135.129 128.394 134.606C128.907 134.083 129.313 133.533 129.612 132.954ZM135.296 133.486L136.374 132.828C136.747 133.117 137.13 133.444 137.522 133.808C137.923 134.163 138.292 134.522 138.628 134.886C138.973 135.241 139.249 135.572 139.454 135.88L138.292 136.65C138.105 136.351 137.849 136.015 137.522 135.642C137.195 135.269 136.836 134.895 136.444 134.522C136.061 134.139 135.679 133.794 135.296 133.486ZM132.86 138.148H134.176C134.111 138.895 134.017 139.59 133.896 140.234C133.775 140.869 133.583 141.447 133.322 141.97C133.061 142.493 132.697 142.959 132.23 143.37C131.763 143.781 131.161 144.14 130.424 144.448C129.696 144.756 128.795 145.013 127.722 145.218C127.694 145.097 127.643 144.966 127.568 144.826C127.493 144.686 127.409 144.546 127.316 144.406C127.232 144.275 127.148 144.163 127.064 144.07C128.072 143.902 128.907 143.692 129.57 143.44C130.242 143.188 130.783 142.894 131.194 142.558C131.605 142.213 131.922 141.821 132.146 141.382C132.37 140.943 132.533 140.458 132.636 139.926C132.739 139.385 132.813 138.792 132.86 138.148ZM146.762 132.534H148.092V142.796C148.092 143.067 148.111 143.272 148.148 143.412C148.195 143.543 148.279 143.631 148.4 143.678C148.531 143.725 148.717 143.748 148.96 143.748C149.053 143.748 149.207 143.748 149.422 143.748C149.646 143.748 149.889 143.748 150.15 143.748C150.421 143.748 150.673 143.748 150.906 143.748C151.139 143.748 151.307 143.748 151.41 143.748C151.653 143.748 151.835 143.678 151.956 143.538C152.077 143.398 152.166 143.146 152.222 142.782C152.278 142.418 152.325 141.9 152.362 141.228C152.53 141.349 152.731 141.466 152.964 141.578C153.207 141.681 153.421 141.755 153.608 141.802C153.543 142.586 153.445 143.211 153.314 143.678C153.193 144.145 152.987 144.481 152.698 144.686C152.418 144.891 152.021 144.994 151.508 144.994C151.433 144.994 151.303 144.994 151.116 144.994C150.939 144.994 150.733 144.994 150.5 144.994C150.276 144.994 150.047 144.994 149.814 144.994C149.581 144.994 149.375 144.994 149.198 144.994C149.021 144.994 148.899 144.994 148.834 144.994C148.302 144.994 147.882 144.929 147.574 144.798C147.275 144.667 147.065 144.439 146.944 144.112C146.823 143.795 146.762 143.347 146.762 142.768V132.534ZM152.012 134.858L152.978 136.006C152.483 136.389 151.937 136.767 151.34 137.14C150.743 137.504 150.127 137.859 149.492 138.204C148.867 138.54 148.246 138.862 147.63 139.17C147.583 139.011 147.504 138.834 147.392 138.638C147.28 138.433 147.177 138.26 147.084 138.12C147.672 137.821 148.265 137.49 148.862 137.126C149.469 136.753 150.043 136.375 150.584 135.992C151.135 135.6 151.611 135.222 152.012 134.858ZM144.2 132.38L145.502 132.814C145.157 133.635 144.741 134.447 144.256 135.25C143.78 136.053 143.262 136.804 142.702 137.504C142.151 138.204 141.587 138.82 141.008 139.352C140.961 139.24 140.891 139.1 140.798 138.932C140.705 138.755 140.607 138.582 140.504 138.414C140.401 138.237 140.308 138.092 140.224 137.98C140.747 137.541 141.255 137.028 141.75 136.44C142.245 135.843 142.702 135.199 143.122 134.508C143.542 133.817 143.901 133.108 144.2 132.38ZM142.646 136.174L143.962 134.858L143.976 134.886V145.148H142.646V136.174ZM160.328 134.396C160.739 134.461 161.201 134.508 161.714 134.536C162.237 134.564 162.773 134.573 163.324 134.564C163.875 134.555 164.402 134.536 164.906 134.508C165.41 134.48 165.844 134.443 166.208 134.396V135.824C165.807 135.861 165.354 135.894 164.85 135.922C164.346 135.941 163.823 135.95 163.282 135.95C162.75 135.95 162.227 135.941 161.714 135.922C161.201 135.894 160.743 135.861 160.342 135.824L160.328 134.396ZM161.126 140.22C161.07 140.463 161.023 140.682 160.986 140.878C160.958 141.074 160.944 141.27 160.944 141.466C160.944 141.625 160.977 141.774 161.042 141.914C161.117 142.054 161.233 142.175 161.392 142.278C161.56 142.381 161.784 142.465 162.064 142.53C162.353 142.586 162.708 142.614 163.128 142.614C163.763 142.614 164.355 142.586 164.906 142.53C165.466 142.465 166.035 142.367 166.614 142.236L166.642 143.734C166.203 143.818 165.69 143.888 165.102 143.944C164.523 143.991 163.856 144.014 163.1 144.014C161.915 144.014 161.037 143.823 160.468 143.44C159.908 143.048 159.628 142.511 159.628 141.83C159.628 141.578 159.647 141.317 159.684 141.046C159.721 140.766 159.782 140.453 159.866 140.108L161.126 140.22ZM157.892 133.388C157.864 133.472 157.827 133.584 157.78 133.724C157.743 133.855 157.705 133.99 157.668 134.13C157.64 134.261 157.617 134.368 157.598 134.452C157.551 134.685 157.495 134.97 157.43 135.306C157.374 135.633 157.313 135.992 157.248 136.384C157.192 136.767 157.136 137.159 157.08 137.56C157.033 137.952 156.991 138.335 156.954 138.708C156.926 139.081 156.912 139.422 156.912 139.73C156.912 139.973 156.917 140.22 156.926 140.472C156.945 140.715 156.968 140.967 156.996 141.228C157.08 141.041 157.164 140.845 157.248 140.64C157.332 140.425 157.416 140.215 157.5 140.01C157.584 139.805 157.663 139.618 157.738 139.45L158.438 140.01C158.317 140.355 158.186 140.738 158.046 141.158C157.906 141.578 157.78 141.979 157.668 142.362C157.565 142.735 157.491 143.039 157.444 143.272C157.425 143.365 157.407 143.477 157.388 143.608C157.369 143.729 157.365 143.832 157.374 143.916C157.374 143.981 157.374 144.061 157.374 144.154C157.383 144.257 157.393 144.35 157.402 144.434L156.128 144.518C155.988 144.033 155.867 143.393 155.764 142.6C155.661 141.807 155.61 140.939 155.61 139.996C155.61 139.473 155.633 138.946 155.68 138.414C155.727 137.873 155.783 137.35 155.848 136.846C155.913 136.342 155.979 135.88 156.044 135.46C156.119 135.04 156.175 134.69 156.212 134.41C156.24 134.233 156.263 134.041 156.282 133.836C156.31 133.631 156.329 133.435 156.338 133.248L157.892 133.388ZM175.756 132.898C175.737 133.019 175.719 133.169 175.7 133.346C175.691 133.514 175.677 133.696 175.658 133.892C175.649 134.079 175.644 134.251 175.644 134.41C175.635 134.727 175.63 135.101 175.63 135.53C175.639 135.959 175.644 136.398 175.644 136.846C175.644 137.229 175.653 137.681 175.672 138.204C175.7 138.717 175.728 139.249 175.756 139.8C175.784 140.341 175.807 140.85 175.826 141.326C175.854 141.793 175.868 142.175 175.868 142.474C175.868 142.773 175.821 143.057 175.728 143.328C175.635 143.599 175.481 143.837 175.266 144.042C175.061 144.257 174.781 144.425 174.426 144.546C174.071 144.667 173.637 144.728 173.124 144.728C172.471 144.728 171.878 144.649 171.346 144.49C170.823 144.341 170.408 144.093 170.1 143.748C169.792 143.403 169.638 142.945 169.638 142.376C169.638 141.919 169.769 141.508 170.03 141.144C170.301 140.78 170.707 140.491 171.248 140.276C171.789 140.052 172.471 139.94 173.292 139.94C174.001 139.94 174.687 140.019 175.35 140.178C176.013 140.337 176.638 140.551 177.226 140.822C177.814 141.083 178.351 141.377 178.836 141.704C179.321 142.031 179.741 142.357 180.096 142.684L179.256 144C178.911 143.655 178.514 143.314 178.066 142.978C177.618 142.642 177.128 142.339 176.596 142.068C176.064 141.788 175.504 141.569 174.916 141.41C174.328 141.251 173.726 141.172 173.11 141.172C172.457 141.172 171.953 141.275 171.598 141.48C171.243 141.685 171.066 141.965 171.066 142.32C171.066 142.684 171.239 142.955 171.584 143.132C171.939 143.309 172.41 143.398 172.998 143.398C173.483 143.398 173.838 143.286 174.062 143.062C174.286 142.838 174.398 142.483 174.398 141.998C174.398 141.755 174.389 141.419 174.37 140.99C174.351 140.551 174.333 140.08 174.314 139.576C174.295 139.063 174.277 138.568 174.258 138.092C174.239 137.607 174.23 137.191 174.23 136.846C174.23 136.566 174.225 136.277 174.216 135.978C174.216 135.679 174.216 135.395 174.216 135.124C174.216 134.844 174.216 134.606 174.216 134.41C174.207 134.205 174.197 134.009 174.188 133.822C174.179 133.626 174.165 133.449 174.146 133.29C174.127 133.131 174.104 133.001 174.076 132.898H175.756ZM174.874 135.656C175.098 135.656 175.401 135.656 175.784 135.656C176.167 135.647 176.582 135.633 177.03 135.614C177.487 135.586 177.945 135.558 178.402 135.53C178.869 135.502 179.293 135.465 179.676 135.418L179.732 136.734C179.349 136.771 178.925 136.804 178.458 136.832C177.991 136.86 177.529 136.883 177.072 136.902C176.624 136.921 176.204 136.939 175.812 136.958C175.429 136.967 175.121 136.972 174.888 136.972L174.874 135.656ZM186.599 132.87C186.543 133.085 186.482 133.346 186.417 133.654C186.351 133.953 186.291 134.265 186.235 134.592C186.179 134.919 186.127 135.236 186.081 135.544C186.043 135.843 186.015 136.104 185.997 136.328C186.155 136.011 186.351 135.689 186.585 135.362C186.827 135.035 187.107 134.737 187.425 134.466C187.742 134.195 188.087 133.976 188.461 133.808C188.834 133.64 189.231 133.556 189.651 133.556C190.285 133.556 190.85 133.757 191.345 134.158C191.849 134.55 192.245 135.11 192.535 135.838C192.824 136.566 192.969 137.434 192.969 138.442C192.969 139.413 192.824 140.262 192.535 140.99C192.245 141.718 191.835 142.334 191.303 142.838C190.771 143.342 190.136 143.753 189.399 144.07C188.661 144.397 187.849 144.639 186.963 144.798L186.123 143.524C186.888 143.403 187.597 143.235 188.251 143.02C188.904 142.796 189.473 142.493 189.959 142.11C190.444 141.727 190.817 141.237 191.079 140.64C191.349 140.043 191.485 139.31 191.485 138.442C191.485 137.714 191.405 137.079 191.247 136.538C191.088 135.997 190.855 135.577 190.547 135.278C190.239 134.979 189.861 134.83 189.413 134.83C188.983 134.83 188.573 134.97 188.181 135.25C187.789 135.53 187.434 135.889 187.117 136.328C186.809 136.767 186.557 137.238 186.361 137.742C186.174 138.246 186.062 138.731 186.025 139.198C186.006 139.431 185.997 139.674 185.997 139.926C186.006 140.178 186.034 140.472 186.081 140.808L184.709 140.906C184.681 140.645 184.648 140.318 184.611 139.926C184.573 139.525 184.555 139.095 184.555 138.638C184.555 138.302 184.569 137.943 184.597 137.56C184.625 137.168 184.657 136.771 184.695 136.37C184.732 135.959 184.774 135.563 184.821 135.18C184.877 134.797 184.923 134.447 184.961 134.13C184.998 133.887 185.021 133.654 185.031 133.43C185.049 133.206 185.063 132.996 185.073 132.8L186.599 132.87Z" fill="white"/>
</svg>
