<svg width="161" height="147" viewBox="0 0 161 147" fill="none" xmlns="http://www.w3.org/2000/svg">
<path d="M46.756 7.698H50.816V9.042H46.756V7.698ZM52.342 4.198H53.742V15.398C53.742 15.8273 53.686 16.154 53.574 16.378C53.462 16.602 53.2753 16.7747 53.014 16.896C52.7433 17.0173 52.3887 17.0967 51.95 17.134C51.5207 17.1713 50.9793 17.19 50.326 17.19C50.3073 17.05 50.27 16.8913 50.214 16.714C50.158 16.5367 50.0927 16.3593 50.018 16.182C49.9527 16.0047 49.8827 15.8553 49.808 15.734C50.2933 15.7433 50.7367 15.7527 51.138 15.762C51.5487 15.762 51.824 15.7573 51.964 15.748C52.0947 15.748 52.188 15.72 52.244 15.664C52.3093 15.608 52.342 15.5193 52.342 15.398V4.198ZM50.368 7.698H50.648L50.886 7.656L51.782 7.992C51.558 9.23333 51.2313 10.3627 50.802 11.38C50.382 12.3973 49.8873 13.284 49.318 14.04C48.7487 14.796 48.1233 15.412 47.442 15.888C47.3673 15.7853 47.2647 15.664 47.134 15.524C47.0033 15.384 46.868 15.2533 46.728 15.132C46.588 15.0013 46.462 14.9033 46.35 14.838C47.0127 14.4087 47.61 13.8627 48.142 13.2C48.6833 12.5373 49.1407 11.7673 49.514 10.89C49.8967 10.0127 50.1813 9.05133 50.368 8.006V7.698ZM53.658 6.382C53.8913 7.31533 54.1853 8.22067 54.54 9.098C54.904 9.966 55.3333 10.7733 55.828 11.52C56.3227 12.2667 56.8873 12.9293 57.522 13.508C58.166 14.0867 58.88 14.5533 59.664 14.908C59.552 15.0013 59.4307 15.118 59.3 15.258C59.1693 15.398 59.0433 15.5473 58.922 15.706C58.81 15.8553 58.712 15.9953 58.628 16.126C57.564 15.566 56.6447 14.81 55.87 13.858C55.0953 12.906 54.442 11.814 53.91 10.582C53.3873 9.35 52.9533 8.02933 52.608 6.62L53.658 6.382ZM57.942 6.424L59.174 7.292C58.7913 7.712 58.3713 8.146 57.914 8.594C57.4567 9.042 56.9993 9.47133 56.542 9.882C56.0847 10.2927 55.6553 10.6473 55.254 10.946L54.302 10.204C54.7033 9.88667 55.1233 9.51333 55.562 9.084C56.01 8.64533 56.444 8.19733 56.864 7.74C57.284 7.27333 57.6433 6.83467 57.942 6.424ZM65.768 4.198L66.622 4.996C66.23 5.11733 65.7913 5.22467 65.306 5.318C64.83 5.402 64.34 5.472 63.836 5.528C63.332 5.584 62.8467 5.63067 62.38 5.668C62.3613 5.54667 62.3193 5.40667 62.254 5.248C62.198 5.08933 62.1373 4.954 62.072 4.842C62.5107 4.79533 62.9587 4.73933 63.416 4.674C63.8733 4.60867 64.3073 4.53867 64.718 4.464C65.138 4.38 65.488 4.29133 65.768 4.198ZM71.802 4.226L72.642 5.024C72.2313 5.136 71.7693 5.23867 71.256 5.332C70.7427 5.416 70.2153 5.486 69.674 5.542C69.1327 5.598 68.6147 5.64 68.12 5.668C68.092 5.54667 68.05 5.40667 67.994 5.248C67.938 5.08933 67.8773 4.954 67.812 4.842C68.288 4.79533 68.7733 4.744 69.268 4.688C69.7627 4.62267 70.2293 4.55267 70.668 4.478C71.116 4.394 71.494 4.31 71.802 4.226ZM61.722 4.534L63.192 4.912C63.1733 5.01467 63.0707 5.08467 62.884 5.122V5.934C62.884 6.27933 62.8467 6.676 62.772 7.124C62.6973 7.56267 62.5527 8.006 62.338 8.454C62.1327 8.89267 61.8293 9.30333 61.428 9.686C61.372 9.59267 61.288 9.49467 61.176 9.392C61.0733 9.28 60.966 9.17267 60.854 9.07C60.742 8.96733 60.6393 8.89267 60.546 8.846C60.882 8.538 61.134 8.216 61.302 7.88C61.47 7.53467 61.582 7.18933 61.638 6.844C61.694 6.49867 61.722 6.17667 61.722 5.878V4.534ZM67.476 4.562L68.946 4.898C68.9273 5.01 68.8247 5.08 68.638 5.108V5.878C68.638 6.19533 68.5913 6.55 68.498 6.942C68.414 7.32467 68.2507 7.70733 68.008 8.09C67.7653 8.46333 67.4107 8.80867 66.944 9.126C66.888 9.02333 66.8133 8.916 66.72 8.804C66.6267 8.692 66.524 8.58467 66.412 8.482C66.3093 8.37933 66.2113 8.3 66.118 8.244C66.51 7.992 66.7993 7.73067 66.986 7.46C67.182 7.18933 67.3127 6.914 67.378 6.634C67.4433 6.354 67.476 6.08333 67.476 5.822V4.562ZM62.24 6.242H66.944V7.236H62.24V6.242ZM67.994 6.242H73.286V7.236H67.994V6.242ZM64.256 6.578H65.446V8.86H64.256V6.578ZM70.136 6.578H71.326V8.888H70.136V6.578ZM63.724 11.59V12.402H70.388V11.59H63.724ZM63.724 13.2V14.04H70.388V13.2H63.724ZM63.724 9.966V10.778H70.388V9.966H63.724ZM62.45 9.14H71.718V14.88H62.45V9.14ZM68.008 15.608L69.1 14.95C69.604 15.118 70.1173 15.3 70.64 15.496C71.1627 15.6827 71.6573 15.8693 72.124 16.056C72.5907 16.2427 72.992 16.42 73.328 16.588L71.816 17.218C71.536 17.0593 71.1907 16.8867 70.78 16.7C70.3787 16.5227 69.94 16.336 69.464 16.14C68.988 15.9533 68.5027 15.776 68.008 15.608ZM64.788 14.908L66.006 15.468C65.6233 15.692 65.1847 15.916 64.69 16.14C64.1953 16.364 63.682 16.5647 63.15 16.742C62.6273 16.9287 62.128 17.092 61.652 17.232C61.5867 17.1387 61.4933 17.0267 61.372 16.896C61.26 16.7747 61.1387 16.6533 61.008 16.532C60.8867 16.4107 60.7747 16.3127 60.672 16.238C61.1573 16.1447 61.652 16.0327 62.156 15.902C62.6693 15.762 63.1547 15.608 63.612 15.44C64.0693 15.272 64.4613 15.0947 64.788 14.908ZM78.186 13.592H79.502V15.37C79.502 15.538 79.5487 15.65 79.642 15.706C79.7353 15.7527 79.95 15.776 80.286 15.776C80.37 15.776 80.5053 15.776 80.692 15.776C80.8787 15.776 81.0887 15.776 81.322 15.776C81.5647 15.776 81.7887 15.776 81.994 15.776C82.1993 15.776 82.3487 15.776 82.442 15.776C82.6193 15.776 82.7547 15.748 82.848 15.692C82.9413 15.636 83.0067 15.524 83.044 15.356C83.0813 15.1787 83.1093 14.9127 83.128 14.558C83.2213 14.6233 83.338 14.6887 83.478 14.754C83.618 14.81 83.7627 14.866 83.912 14.922C84.0707 14.9687 84.206 15.0013 84.318 15.02C84.2713 15.5427 84.1873 15.944 84.066 16.224C83.9447 16.504 83.7673 16.6953 83.534 16.798C83.3007 16.91 82.9787 16.966 82.568 16.966C82.5027 16.966 82.386 16.966 82.218 16.966C82.0593 16.966 81.8773 16.966 81.672 16.966C81.4667 16.966 81.2567 16.966 81.042 16.966C80.8367 16.966 80.6547 16.966 80.496 16.966C80.3373 16.966 80.2253 16.966 80.16 16.966C79.628 16.966 79.2173 16.9147 78.928 16.812C78.648 16.7187 78.452 16.5553 78.34 16.322C78.2373 16.098 78.186 15.7853 78.186 15.384V13.592ZM79.18 13.046L80.02 12.332C80.3187 12.4627 80.6267 12.6213 80.944 12.808C81.2613 12.9853 81.56 13.172 81.84 13.368C82.12 13.564 82.3487 13.7553 82.526 13.942L81.63 14.726C81.462 14.5393 81.2427 14.3433 80.972 14.138C80.7013 13.9327 80.4073 13.7367 80.09 13.55C79.782 13.354 79.4787 13.186 79.18 13.046ZM83.8 13.942L84.864 13.256C85.2093 13.508 85.55 13.7927 85.886 14.11C86.2313 14.418 86.544 14.7353 86.824 15.062C87.104 15.3793 87.3187 15.6827 87.468 15.972L86.32 16.714C86.18 16.434 85.9747 16.1307 85.704 15.804C85.4427 15.468 85.144 15.1367 84.808 14.81C84.4813 14.4833 84.1453 14.194 83.8 13.942ZM76.282 13.438L77.486 13.9C77.318 14.4507 77.0893 14.9827 76.8 15.496C76.52 16.0093 76.1373 16.434 75.652 16.77L74.532 15.972C74.98 15.692 75.3487 15.328 75.638 14.88C75.9367 14.432 76.1513 13.9513 76.282 13.438ZM78.788 5.206H80.048V11.982H78.788V5.206ZM81.784 5.206H83.072V11.982H81.784V5.206ZM74.756 11.478H87.258V12.612H74.756V11.478ZM74.98 4.758H87.062V5.878H74.98V4.758ZM77.122 7.894V9.434H84.808V7.894H77.122ZM75.89 6.872H86.096V10.47H75.89V6.872ZM94.762 4.534H96.092V14.796C96.092 15.0667 96.1107 15.272 96.148 15.412C96.1947 15.5427 96.2787 15.6313 96.4 15.678C96.5307 15.7247 96.7173 15.748 96.96 15.748C97.0533 15.748 97.2073 15.748 97.422 15.748C97.646 15.748 97.8887 15.748 98.15 15.748C98.4207 15.748 98.6727 15.748 98.906 15.748C99.1393 15.748 99.3073 15.748 99.41 15.748C99.6527 15.748 99.8347 15.678 99.956 15.538C100.077 15.398 100.166 15.146 100.222 14.782C100.278 14.418 100.325 13.9 100.362 13.228C100.53 13.3493 100.731 13.466 100.964 13.578C101.207 13.6807 101.421 13.7553 101.608 13.802C101.543 14.586 101.445 15.2113 101.314 15.678C101.193 16.1447 100.987 16.4807 100.698 16.686C100.418 16.8913 100.021 16.994 99.508 16.994C99.4333 16.994 99.3027 16.994 99.116 16.994C98.9387 16.994 98.7333 16.994 98.5 16.994C98.276 16.994 98.0473 16.994 97.814 16.994C97.5807 16.994 97.3753 16.994 97.198 16.994C97.0207 16.994 96.8993 16.994 96.834 16.994C96.302 16.994 95.882 16.9287 95.574 16.798C95.2753 16.6673 95.0653 16.4387 94.944 16.112C94.8227 15.7947 94.762 15.3467 94.762 14.768V4.534ZM100.012 6.858L100.978 8.006C100.483 8.38867 99.9373 8.76667 99.34 9.14C98.7427 9.504 98.1267 9.85867 97.492 10.204C96.8667 10.54 96.246 10.862 95.63 11.17C95.5833 11.0113 95.504 10.834 95.392 10.638C95.28 10.4327 95.1773 10.26 95.084 10.12C95.672 9.82133 96.2647 9.49 96.862 9.126C97.4687 8.75267 98.0427 8.37467 98.584 7.992C99.1347 7.6 99.6107 7.222 100.012 6.858ZM92.2 4.38L93.502 4.814C93.1567 5.63533 92.7413 6.44733 92.256 7.25C91.78 8.05267 91.262 8.804 90.702 9.504C90.1513 10.204 89.5867 10.82 89.008 11.352C88.9613 11.24 88.8913 11.1 88.798 10.932C88.7047 10.7547 88.6067 10.582 88.504 10.414C88.4013 10.2367 88.308 10.092 88.224 9.98C88.7467 9.54133 89.2553 9.028 89.75 8.44C90.2447 7.84267 90.702 7.19867 91.122 6.508C91.542 5.81733 91.9013 5.108 92.2 4.38ZM90.646 8.174L91.962 6.858L91.976 6.886V17.148H90.646V8.174Z" fill="#DE534B"/>
<path d="M60 37C66.3146 37 72.5395 38.495 78.1654 41.3627C83.7913 44.2304 88.6583 48.3893 92.3683 53.4991C96.0783 58.609 98.5258 64.5245 99.5106 70.7619C100.495 76.9993 99.9894 83.3811 98.0342 89.3854L94.406 88.2039C96.1747 82.7724 96.6323 76.9993 95.7415 71.357C94.8506 65.7146 92.6366 60.3634 89.2806 55.741C85.9245 51.1186 81.5218 47.3564 76.4325 44.7623C71.3433 42.1682 65.7122 40.8158 60 40.8158V37Z" fill="white"/>
<path d="M41.465 71.97C42.065 73.35 42.365 74.94 42.365 76.74C42.365 78.36 42.095 79.86 41.555 81.24C40.835 83.16 39.62 84.66 37.91 85.74C36.23 86.82 34.235 87.36 31.925 87.36C29.645 87.36 27.635 86.79 25.895 85.65C24.185 84.51 22.955 82.965 22.205 81.015C21.785 79.845 21.545 78.585 21.485 77.235C21.485 76.875 21.665 76.695 22.025 76.695H27.335C27.695 76.695 27.875 76.875 27.875 77.235C27.995 78.225 28.16 78.96 28.37 79.44C28.64 80.22 29.075 80.835 29.675 81.285C30.305 81.705 31.04 81.915 31.88 81.915C33.56 81.915 34.715 81.18 35.345 79.71C35.765 78.81 35.975 77.76 35.975 76.56C35.975 75.15 35.75 73.995 35.3 73.095C34.61 71.685 33.455 70.98 31.835 70.98C31.505 70.98 31.16 71.085 30.8 71.295C30.44 71.475 30.005 71.745 29.495 72.105C29.375 72.195 29.255 72.24 29.135 72.24C28.955 72.24 28.82 72.15 28.73 71.97L26.075 68.235C26.015 68.145 25.985 68.04 25.985 67.92C25.985 67.74 26.045 67.59 26.165 67.47L33.32 61.215C33.38 61.155 33.395 61.095 33.365 61.035C33.365 60.975 33.32 60.945 33.23 60.945H22.655C22.505 60.945 22.37 60.9 22.25 60.81C22.16 60.69 22.115 60.555 22.115 60.405V56.04C22.115 55.89 22.16 55.77 22.25 55.68C22.37 55.56 22.505 55.5 22.655 55.5H41.42C41.57 55.5 41.69 55.56 41.78 55.68C41.9 55.77 41.96 55.89 41.96 56.04V60.99C41.96 61.23 41.855 61.455 41.645 61.665L35.75 67.065C35.69 67.125 35.66 67.185 35.66 67.245C35.69 67.305 35.765 67.335 35.885 67.335C38.495 67.845 40.355 69.39 41.465 71.97ZM57.0818 87.495C53.7818 87.495 51.1718 86.58 49.2518 84.75C47.3318 82.89 46.3718 80.37 46.3718 77.19V65.31C46.3718 62.19 47.3318 59.715 49.2518 57.885C51.1718 56.055 53.7818 55.14 57.0818 55.14C60.3818 55.14 62.9918 56.055 64.9118 57.885C66.8618 59.715 67.8368 62.19 67.8368 65.31V77.19C67.8368 80.37 66.8618 82.89 64.9118 84.75C62.9918 86.58 60.3818 87.495 57.0818 87.495ZM57.0818 82.05C58.4318 82.05 59.4968 81.645 60.2768 80.835C61.0868 79.995 61.4918 78.885 61.4918 77.505V65.13C61.4918 63.75 61.0868 62.655 60.2768 61.845C59.4968 61.005 58.4318 60.585 57.0818 60.585C55.7618 60.585 54.6968 61.005 53.8868 61.845C53.1068 62.655 52.7168 63.75 52.7168 65.13V77.505C52.7168 78.885 53.1068 79.995 53.8868 80.835C54.6968 81.645 55.7618 82.05 57.0818 82.05Z" fill="#DE534B"/>
<path d="M77.712 79.392C77.2747 79.392 76.8693 79.2853 76.496 79.072C76.1333 78.8587 75.8453 78.5707 75.632 78.208C75.4187 77.8453 75.312 77.4453 75.312 77.008C75.312 76.5813 75.4187 76.1867 75.632 75.824C75.8453 75.4613 76.1333 75.1787 76.496 74.976C76.8693 74.7627 77.2747 74.656 77.712 74.656C78.1387 74.656 78.5333 74.7627 78.896 74.976C79.2587 75.1893 79.5467 75.4773 79.76 75.84C79.9733 76.192 80.08 76.5813 80.08 77.008C80.08 77.4453 79.9733 77.8453 79.76 78.208C79.5467 78.5707 79.2587 78.8587 78.896 79.072C78.5333 79.2853 78.1387 79.392 77.712 79.392ZM77.248 86C77.184 86 77.1413 85.984 77.12 85.952C77.0987 85.9093 77.104 85.8613 77.136 85.808L83.184 74.912C83.2267 74.8373 83.2907 74.8 83.376 74.8H84.16C84.224 74.8 84.2667 74.8213 84.288 74.864C84.3093 74.896 84.304 74.9387 84.272 74.992L78.224 85.888C78.192 85.9627 78.128 86 78.032 86H77.248ZM77.712 78.448C78.1067 78.448 78.4373 78.3093 78.704 78.032C78.9707 77.7547 79.104 77.4133 79.104 77.008C79.104 76.6133 78.9653 76.2827 78.688 76.016C78.4213 75.7387 78.096 75.6 77.712 75.6C77.3173 75.6 76.9813 75.7387 76.704 76.016C76.4267 76.2827 76.288 76.6133 76.288 77.008C76.288 77.4133 76.4267 77.7547 76.704 78.032C76.9813 78.3093 77.3173 78.448 77.712 78.448ZM83.808 86.144C83.3707 86.144 82.9653 86.0373 82.592 85.824C82.2293 85.6107 81.9413 85.3227 81.728 84.96C81.5147 84.5973 81.408 84.2027 81.408 83.776C81.408 83.3493 81.5147 82.9547 81.728 82.592C81.9413 82.2293 82.2293 81.9413 82.592 81.728C82.9653 81.5147 83.3707 81.408 83.808 81.408C84.2347 81.408 84.6293 81.5147 84.992 81.728C85.3547 81.9413 85.6427 82.2293 85.856 82.592C86.0693 82.9547 86.176 83.3493 86.176 83.776C86.176 84.2027 86.0693 84.5973 85.856 84.96C85.6427 85.3227 85.3547 85.6107 84.992 85.824C84.6293 86.0373 84.2347 86.144 83.808 86.144ZM83.808 85.2C84.2027 85.2 84.5333 85.0613 84.8 84.784C85.0667 84.5067 85.2 84.1707 85.2 83.776C85.2 83.3813 85.0613 83.0453 84.784 82.768C84.5173 82.4907 84.192 82.352 83.808 82.352C83.4133 82.352 83.0773 82.4907 82.8 82.768C82.5227 83.0453 82.384 83.3813 82.384 83.776C82.384 84.1707 82.5227 84.5067 82.8 84.784C83.0773 85.0613 83.4133 85.2 83.808 85.2Z" fill="#DE534B"/>
<path d="M110.292 85.012H112.434V86.902C112.434 87.142 112.488 87.292 112.596 87.352C112.716 87.4 112.974 87.424 113.37 87.424C113.454 87.424 113.598 87.424 113.802 87.424C114.006 87.424 114.228 87.424 114.468 87.424C114.72 87.424 114.954 87.424 115.17 87.424C115.386 87.424 115.548 87.424 115.656 87.424C115.86 87.424 116.016 87.394 116.124 87.334C116.232 87.274 116.31 87.148 116.358 86.956C116.406 86.764 116.442 86.476 116.466 86.092C116.61 86.188 116.79 86.29 117.006 86.398C117.234 86.494 117.474 86.584 117.726 86.668C117.978 86.74 118.2 86.794 118.392 86.83C118.308 87.514 118.176 88.036 117.996 88.396C117.816 88.756 117.552 89.002 117.204 89.134C116.868 89.278 116.424 89.35 115.872 89.35C115.764 89.35 115.614 89.35 115.422 89.35C115.242 89.35 115.038 89.35 114.81 89.35C114.594 89.35 114.372 89.35 114.144 89.35C113.916 89.35 113.706 89.35 113.514 89.35C113.334 89.35 113.196 89.35 113.1 89.35C112.332 89.35 111.744 89.272 111.336 89.116C110.94 88.972 110.664 88.72 110.508 88.36C110.364 88.012 110.292 87.538 110.292 86.938V85.012ZM111.624 84.4L112.992 83.266C113.364 83.434 113.742 83.632 114.126 83.86C114.522 84.088 114.894 84.328 115.242 84.58C115.602 84.82 115.89 85.06 116.106 85.3L114.63 86.524C114.438 86.296 114.174 86.056 113.838 85.804C113.502 85.54 113.136 85.288 112.74 85.048C112.356 84.796 111.984 84.58 111.624 84.4ZM117.366 85.516L119.094 84.418C119.526 84.73 119.958 85.084 120.39 85.48C120.822 85.876 121.212 86.284 121.56 86.704C121.92 87.112 122.202 87.502 122.406 87.874L120.516 89.08C120.348 88.72 120.096 88.33 119.76 87.91C119.424 87.49 119.046 87.07 118.626 86.65C118.218 86.23 117.798 85.852 117.366 85.516ZM107.736 84.688L109.68 85.462C109.464 86.146 109.176 86.818 108.816 87.478C108.468 88.138 108.012 88.69 107.448 89.134L105.594 87.856C106.11 87.472 106.548 87.004 106.908 86.452C107.28 85.888 107.556 85.3 107.736 84.688ZM110.958 74.086H113.028V82.816H110.958V74.086ZM114.738 74.086H116.826V82.816H114.738V74.086ZM105.936 82.024H122.082V83.842H105.936V82.024ZM106.242 73.384H121.83V75.184H106.242V73.384ZM109.32 77.776V79.396H118.554V77.776H109.32ZM107.34 76.138H120.642V81.052H107.34V76.138ZM131.604 73.168H133.782V86.146C133.782 86.506 133.8 86.776 133.836 86.956C133.884 87.136 133.98 87.256 134.124 87.316C134.28 87.364 134.502 87.388 134.79 87.388C134.898 87.388 135.066 87.388 135.294 87.388C135.534 87.388 135.798 87.388 136.086 87.388C136.374 87.388 136.638 87.388 136.878 87.388C137.13 87.388 137.31 87.388 137.418 87.388C137.718 87.388 137.94 87.304 138.084 87.136C138.24 86.956 138.348 86.638 138.408 86.182C138.48 85.714 138.54 85.06 138.588 84.22C138.852 84.412 139.176 84.598 139.56 84.778C139.944 84.946 140.286 85.066 140.586 85.138C140.502 86.17 140.364 86.998 140.172 87.622C139.98 88.246 139.686 88.696 139.29 88.972C138.894 89.26 138.336 89.404 137.616 89.404C137.52 89.404 137.364 89.404 137.148 89.404C136.944 89.404 136.71 89.404 136.446 89.404C136.194 89.404 135.936 89.404 135.672 89.404C135.42 89.404 135.192 89.404 134.988 89.404C134.784 89.404 134.628 89.404 134.52 89.404C133.764 89.404 133.176 89.308 132.756 89.116C132.336 88.924 132.036 88.588 131.856 88.108C131.688 87.628 131.604 86.968 131.604 86.128V73.168ZM138.336 76.192L139.92 78.082C139.26 78.562 138.54 79.03 137.76 79.486C136.98 79.93 136.182 80.362 135.366 80.782C134.562 81.202 133.77 81.592 132.99 81.952C132.918 81.7 132.792 81.412 132.612 81.088C132.432 80.752 132.27 80.47 132.126 80.242C132.87 79.882 133.614 79.474 134.358 79.018C135.114 78.562 135.834 78.088 136.518 77.596C137.202 77.104 137.808 76.636 138.336 76.192ZM128.112 72.952L130.254 73.654C129.798 74.722 129.258 75.79 128.634 76.858C128.01 77.914 127.338 78.91 126.618 79.846C125.91 80.77 125.178 81.58 124.422 82.276C124.35 82.096 124.236 81.862 124.08 81.574C123.936 81.286 123.78 80.998 123.612 80.71C123.444 80.41 123.294 80.17 123.162 79.99C123.822 79.438 124.458 78.79 125.07 78.046C125.682 77.29 126.252 76.48 126.78 75.616C127.308 74.74 127.752 73.852 128.112 72.952ZM126.204 78.028L128.346 75.886L128.364 75.922V89.584H126.204V78.028Z" fill="#DE534B"/>
<path d="M22.4634 134.738H27.3354V135.9H22.4634V134.738ZM24.0314 144.258H27.7834V145.336H24.0314V144.258ZM24.0314 141.962H27.8114V142.984H24.0314V141.962ZM21.8474 137.356H29.0434V138.518H21.8474V137.356ZM24.4934 133.296H25.7254V138.098H24.4934V133.296ZM28.1894 133.73L29.3794 134.066C28.6328 135.858 27.6574 137.435 26.4534 138.798C25.2494 140.151 23.8634 141.253 22.2954 142.102C22.2581 142.009 22.1881 141.892 22.0854 141.752C21.9921 141.612 21.8941 141.477 21.7914 141.346C21.6888 141.206 21.5954 141.094 21.5114 141.01C23.0328 140.273 24.3628 139.283 25.5014 138.042C26.6401 136.801 27.5361 135.363 28.1894 133.73ZM24.4514 139.736H27.7554V140.814H24.4514V146.12H23.2474V140.506L23.9754 139.736H24.4514ZM27.2234 139.736H28.4834V145.924H27.2234V139.736ZM29.5754 133.968H33.7334V135.214H30.8914V146.176H29.5754V133.968ZM33.4254 133.968H33.6774L33.8734 133.926L34.8394 134.528C34.5688 135.191 34.2654 135.9 33.9294 136.656C33.5934 137.403 33.2668 138.093 32.9494 138.728C33.4068 139.157 33.7521 139.568 33.9854 139.96C34.2281 140.343 34.3961 140.711 34.4894 141.066C34.5828 141.421 34.6294 141.761 34.6294 142.088C34.6294 142.555 34.5688 142.956 34.4474 143.292C34.3354 143.619 34.1441 143.871 33.8734 144.048C33.6214 144.216 33.2994 144.328 32.9074 144.384C32.7394 144.403 32.5388 144.412 32.3054 144.412C32.0814 144.412 31.8574 144.407 31.6334 144.398C31.6241 144.221 31.5868 144.006 31.5214 143.754C31.4654 143.502 31.3814 143.287 31.2694 143.11C31.4841 143.129 31.6801 143.143 31.8574 143.152C32.0348 143.152 32.1934 143.147 32.3334 143.138C32.4548 143.138 32.5668 143.124 32.6694 143.096C32.7814 143.068 32.8748 143.031 32.9494 142.984C33.0988 142.9 33.2014 142.769 33.2574 142.592C33.3228 142.415 33.3508 142.2 33.3414 141.948C33.3414 141.528 33.2201 141.061 32.9774 140.548C32.7441 140.035 32.2961 139.489 31.6334 138.91C31.7921 138.555 31.9554 138.173 32.1234 137.762C32.3008 137.351 32.4688 136.941 32.6274 136.53C32.7861 136.119 32.9308 135.732 33.0614 135.368C33.2014 134.995 33.3228 134.677 33.4254 134.416V133.968ZM41.5314 133.114H42.9454V135.844H41.5314V133.114ZM41.5454 136.25H42.9174V146.204H41.5454V136.25ZM35.9314 135.046H48.6434V136.334H35.9314V135.046ZM37.3314 138.056H46.5294V139.344H38.6614V144.468H37.3314V138.056ZM46.0254 138.056H47.3974V142.914C47.3974 143.259 47.3508 143.535 47.2574 143.74C47.1734 143.945 47.0008 144.104 46.7394 144.216C46.4688 144.309 46.1328 144.37 45.7314 144.398C45.3301 144.426 44.8354 144.44 44.2474 144.44C44.2288 144.235 44.1728 144.011 44.0794 143.768C43.9861 143.525 43.8928 143.311 43.7994 143.124C44.0794 143.133 44.3501 143.143 44.6114 143.152C44.8821 143.161 45.1154 143.166 45.3114 143.166C45.5074 143.157 45.6428 143.152 45.7174 143.152C45.8388 143.152 45.9181 143.133 45.9554 143.096C46.0021 143.059 46.0254 142.993 46.0254 142.9V138.056ZM56.4834 133.17H57.6874V139.106C57.6874 139.806 57.6548 140.487 57.5894 141.15C57.5334 141.813 57.4074 142.447 57.2114 143.054C57.0154 143.651 56.7308 144.216 56.3574 144.748C55.9934 145.271 55.4941 145.751 54.8594 146.19C54.7941 146.097 54.7008 145.994 54.5794 145.882C54.4674 145.77 54.3554 145.663 54.2434 145.56C54.1314 145.457 54.0241 145.373 53.9214 145.308C54.4908 144.925 54.9481 144.501 55.2934 144.034C55.6388 143.567 55.8954 143.073 56.0634 142.55C56.2314 142.027 56.3434 141.477 56.3994 140.898C56.4554 140.319 56.4834 139.722 56.4834 139.106V133.17ZM58.9334 133.17H60.1794V146.162H58.9334V133.17ZM54.2854 135.522H57.0154V136.726H54.2854V135.522ZM59.5914 135.522H62.5314V136.726H59.5914V135.522ZM59.6614 138.476H62.3774V139.638H59.6614V138.476ZM59.5774 141.5H62.7694V142.718H59.5774V141.5ZM54.3974 138.476H57.0574V139.638H54.3974V138.476ZM53.5714 142.102C53.9728 141.999 54.4394 141.864 54.9714 141.696C55.5128 141.528 56.0681 141.355 56.6374 141.178L56.8334 142.214C56.3574 142.391 55.8814 142.569 55.4054 142.746C54.9388 142.923 54.4954 143.091 54.0754 143.25L53.5714 142.102ZM49.6234 140.352C50.1741 140.203 50.8368 140.021 51.6114 139.806C52.3861 139.582 53.1701 139.349 53.9634 139.106L54.1314 140.31C53.4128 140.543 52.6848 140.777 51.9474 141.01C51.2101 141.234 50.5381 141.439 49.9314 141.626L49.6234 140.352ZM49.8334 135.928H54.0894V137.16H49.8334V135.928ZM51.4574 133.198H52.6894V144.72C52.6894 145.047 52.6521 145.303 52.5774 145.49C52.5028 145.677 52.3674 145.826 52.1714 145.938C51.9848 146.041 51.7421 146.106 51.4434 146.134C51.1541 146.171 50.7808 146.19 50.3234 146.19C50.3141 146.022 50.2721 145.817 50.1974 145.574C50.1321 145.341 50.0574 145.135 49.9734 144.958C50.2534 144.967 50.5101 144.972 50.7434 144.972C50.9768 144.972 51.1354 144.967 51.2194 144.958C51.3034 144.958 51.3641 144.944 51.4014 144.916C51.4388 144.879 51.4574 144.813 51.4574 144.72V133.198ZM64.0294 136.698H68.0894V138.042H64.0294V136.698ZM69.6154 133.198H71.0154V144.398C71.0154 144.827 70.9594 145.154 70.8474 145.378C70.7354 145.602 70.5488 145.775 70.2874 145.896C70.0168 146.017 69.6621 146.097 69.2234 146.134C68.7941 146.171 68.2528 146.19 67.5994 146.19C67.5808 146.05 67.5434 145.891 67.4874 145.714C67.4314 145.537 67.3661 145.359 67.2914 145.182C67.2261 145.005 67.1561 144.855 67.0814 144.734C67.5668 144.743 68.0101 144.753 68.4114 144.762C68.8221 144.762 69.0974 144.757 69.2374 144.748C69.3681 144.748 69.4614 144.72 69.5174 144.664C69.5828 144.608 69.6154 144.519 69.6154 144.398V133.198ZM67.6414 136.698H67.9214L68.1594 136.656L69.0554 136.992C68.8314 138.233 68.5048 139.363 68.0754 140.38C67.6554 141.397 67.1608 142.284 66.5914 143.04C66.0221 143.796 65.3968 144.412 64.7154 144.888C64.6408 144.785 64.5381 144.664 64.4074 144.524C64.2768 144.384 64.1414 144.253 64.0014 144.132C63.8614 144.001 63.7354 143.903 63.6234 143.838C64.2861 143.409 64.8834 142.863 65.4154 142.2C65.9568 141.537 66.4141 140.767 66.7874 139.89C67.1701 139.013 67.4548 138.051 67.6414 137.006V136.698ZM70.9314 135.382C71.1648 136.315 71.4588 137.221 71.8134 138.098C72.1774 138.966 72.6068 139.773 73.1014 140.52C73.5961 141.267 74.1608 141.929 74.7954 142.508C75.4394 143.087 76.1534 143.553 76.9374 143.908C76.8254 144.001 76.7041 144.118 76.5734 144.258C76.4428 144.398 76.3168 144.547 76.1954 144.706C76.0834 144.855 75.9854 144.995 75.9014 145.126C74.8374 144.566 73.9181 143.81 73.1434 142.858C72.3688 141.906 71.7154 140.814 71.1834 139.582C70.6608 138.35 70.2268 137.029 69.8814 135.62L70.9314 135.382ZM75.2154 135.424L76.4474 136.292C76.0648 136.712 75.6448 137.146 75.1874 137.594C74.7301 138.042 74.2728 138.471 73.8154 138.882C73.3581 139.293 72.9288 139.647 72.5274 139.946L71.5754 139.204C71.9768 138.887 72.3968 138.513 72.8354 138.084C73.2834 137.645 73.7174 137.197 74.1374 136.74C74.5574 136.273 74.9168 135.835 75.2154 135.424ZM85.3374 135.424C85.2441 136.143 85.1228 136.903 84.9734 137.706C84.8334 138.499 84.6421 139.288 84.3994 140.072C84.1194 141.024 83.8021 141.831 83.4474 142.494C83.1021 143.147 82.7241 143.647 82.3134 143.992C81.9028 144.337 81.4688 144.51 81.0114 144.51C80.5448 144.51 80.1108 144.351 79.7094 144.034C79.3081 143.707 78.9814 143.255 78.7294 142.676C78.4774 142.088 78.3514 141.407 78.3514 140.632C78.3514 139.848 78.5101 139.106 78.8274 138.406C79.1541 137.706 79.6021 137.085 80.1714 136.544C80.7408 136.003 81.4034 135.578 82.1594 135.27C82.9154 134.962 83.7321 134.808 84.6094 134.808C85.4494 134.808 86.2054 134.943 86.8774 135.214C87.5588 135.485 88.1374 135.863 88.6134 136.348C89.0988 136.824 89.4674 137.384 89.7194 138.028C89.9714 138.672 90.0974 139.358 90.0974 140.086C90.0974 141.066 89.8921 141.939 89.4814 142.704C89.0801 143.46 88.4874 144.081 87.7034 144.566C86.9194 145.042 85.9581 145.364 84.8194 145.532L83.9934 144.216C84.2361 144.188 84.4601 144.16 84.6654 144.132C84.8708 144.095 85.0621 144.057 85.2394 144.02C85.6874 143.917 86.1121 143.759 86.5134 143.544C86.9241 143.329 87.2881 143.059 87.6054 142.732C87.9228 142.396 88.1701 142.004 88.3474 141.556C88.5341 141.108 88.6274 140.604 88.6274 140.044C88.6274 139.484 88.5388 138.966 88.3614 138.49C88.1841 138.005 87.9228 137.585 87.5774 137.23C87.2321 136.875 86.8074 136.6 86.3034 136.404C85.7994 136.199 85.2301 136.096 84.5954 136.096C83.8301 136.096 83.1488 136.231 82.5514 136.502C81.9541 136.773 81.4454 137.132 81.0254 137.58C80.6148 138.019 80.3021 138.495 80.0874 139.008C79.8728 139.521 79.7654 140.016 79.7654 140.492C79.7654 141.024 79.8308 141.467 79.9614 141.822C80.0921 142.167 80.2554 142.424 80.4514 142.592C80.6474 142.76 80.8481 142.844 81.0534 142.844C81.2588 142.844 81.4688 142.741 81.6834 142.536C81.8981 142.321 82.1128 141.985 82.3274 141.528C82.5514 141.071 82.7708 140.487 82.9854 139.778C83.2001 139.106 83.3774 138.392 83.5174 137.636C83.6668 136.871 83.7741 136.124 83.8394 135.396L85.3374 135.424ZM95.7534 134.948H104.643V136.138H95.7534V134.948ZM99.3514 133.184H100.695V135.522H99.3514V133.184ZM99.3514 139.974H100.513V145.574H99.3514V139.974ZM96.9434 139.876H98.1474V141.304C98.1474 141.696 98.1241 142.102 98.0774 142.522C98.0308 142.942 97.9374 143.367 97.7974 143.796C97.6574 144.216 97.4474 144.627 97.1674 145.028C96.8874 145.429 96.5094 145.803 96.0334 146.148C95.9681 146.055 95.8794 145.952 95.7674 145.84C95.6648 145.737 95.5481 145.63 95.4174 145.518C95.2961 145.415 95.1888 145.336 95.0954 145.28C95.6554 144.879 96.0661 144.449 96.3274 143.992C96.5888 143.535 96.7568 143.073 96.8314 142.606C96.9061 142.13 96.9434 141.682 96.9434 141.262V139.876ZM98.6514 135.592L100.023 136.012C99.8554 136.348 99.6734 136.689 99.4774 137.034C99.2814 137.379 99.0901 137.711 98.9034 138.028C98.7168 138.345 98.5394 138.63 98.3714 138.882L97.2934 138.504C97.4614 138.233 97.6248 137.93 97.7834 137.594C97.9514 137.258 98.1101 136.917 98.2594 136.572C98.4181 136.217 98.5488 135.891 98.6514 135.592ZM101.227 136.992L102.249 136.432C102.567 136.721 102.889 137.039 103.215 137.384C103.551 137.729 103.855 138.075 104.125 138.42C104.405 138.765 104.625 139.083 104.783 139.372L103.691 140.002C103.542 139.713 103.332 139.395 103.061 139.05C102.8 138.695 102.511 138.341 102.193 137.986C101.876 137.622 101.554 137.291 101.227 136.992ZM95.8934 138.168C96.5094 138.149 97.2188 138.131 98.0214 138.112C98.8241 138.084 99.6781 138.056 100.583 138.028C101.489 137.991 102.394 137.958 103.299 137.93L103.271 139.036C102.403 139.083 101.535 139.134 100.667 139.19C99.8088 139.237 98.9828 139.279 98.1894 139.316C97.3961 139.353 96.6774 139.386 96.0334 139.414L95.8934 138.168ZM92.5194 134.248L93.2334 133.282C93.5321 133.403 93.8401 133.548 94.1574 133.716C94.4841 133.875 94.7921 134.043 95.0814 134.22C95.3708 134.397 95.6041 134.565 95.7814 134.724L95.0114 135.816C94.8434 135.648 94.6194 135.471 94.3394 135.284C94.0594 135.088 93.7608 134.901 93.4434 134.724C93.1261 134.537 92.8181 134.379 92.5194 134.248ZM91.7354 138.056L92.4634 137.062C92.7528 137.165 93.0608 137.295 93.3874 137.454C93.7141 137.603 94.0268 137.767 94.3254 137.944C94.6241 138.112 94.8668 138.275 95.0534 138.434L94.2834 139.54C94.1061 139.381 93.8728 139.213 93.5834 139.036C93.3034 138.849 93.0001 138.672 92.6734 138.504C92.3561 138.327 92.0434 138.177 91.7354 138.056ZM92.1554 145.14C92.3888 144.776 92.6501 144.347 92.9394 143.852C93.2288 143.357 93.5228 142.83 93.8214 142.27C94.1201 141.71 94.3954 141.164 94.6474 140.632L95.6554 141.444C95.4314 141.939 95.1841 142.452 94.9134 142.984C94.6521 143.516 94.3814 144.039 94.1014 144.552C93.8308 145.056 93.5648 145.532 93.3034 145.98L92.1554 145.14ZM101.759 139.876H102.991V144.384C102.991 144.645 103.01 144.799 103.047 144.846C103.066 144.865 103.094 144.879 103.131 144.888C103.169 144.897 103.206 144.902 103.243 144.902C103.281 144.902 103.332 144.902 103.397 144.902C103.463 144.902 103.519 144.902 103.565 144.902C103.612 144.902 103.659 144.897 103.705 144.888C103.752 144.879 103.789 144.865 103.817 144.846C103.864 144.809 103.906 144.687 103.943 144.482C103.953 144.361 103.957 144.183 103.957 143.95C103.967 143.707 103.976 143.423 103.985 143.096C104.097 143.189 104.237 143.283 104.405 143.376C104.583 143.469 104.746 143.539 104.895 143.586C104.886 143.894 104.867 144.207 104.839 144.524C104.821 144.841 104.788 145.07 104.741 145.21C104.667 145.49 104.531 145.686 104.335 145.798C104.251 145.854 104.139 145.896 103.999 145.924C103.869 145.952 103.743 145.966 103.621 145.966C103.528 145.966 103.407 145.966 103.257 145.966C103.108 145.966 102.991 145.966 102.907 145.966C102.758 145.966 102.604 145.943 102.445 145.896C102.296 145.849 102.17 145.775 102.067 145.672C101.955 145.569 101.876 145.429 101.829 145.252C101.783 145.075 101.759 144.762 101.759 144.314V139.876ZM108.465 133.996H112.441V135.34H108.465V133.996ZM111.783 133.996H113.141C113.141 134.425 113.155 134.925 113.183 135.494C113.221 136.054 113.3 136.656 113.421 137.3C113.543 137.935 113.729 138.593 113.981 139.274C114.233 139.955 114.565 140.632 114.975 141.304C115.395 141.976 115.923 142.629 116.557 143.264C117.192 143.889 117.957 144.468 118.853 145C118.76 145.075 118.643 145.177 118.503 145.308C118.363 145.448 118.228 145.593 118.097 145.742C117.967 145.891 117.864 146.022 117.789 146.134C116.875 145.574 116.091 144.958 115.437 144.286C114.784 143.605 114.233 142.886 113.785 142.13C113.347 141.374 112.992 140.613 112.721 139.848C112.451 139.083 112.245 138.341 112.105 137.622C111.975 136.903 111.886 136.236 111.839 135.62C111.802 134.995 111.783 134.453 111.783 133.996ZM111.293 136.894L112.791 137.16C112.465 138.569 112.035 139.843 111.503 140.982C110.971 142.111 110.327 143.105 109.571 143.964C108.825 144.823 107.943 145.555 106.925 146.162C106.851 146.059 106.739 145.943 106.589 145.812C106.44 145.681 106.286 145.546 106.127 145.406C105.978 145.266 105.843 145.159 105.721 145.084C107.243 144.3 108.447 143.222 109.333 141.85C110.229 140.469 110.883 138.817 111.293 136.894ZM125.601 135.396C126.012 135.461 126.474 135.508 126.987 135.536C127.51 135.564 128.047 135.573 128.597 135.564C129.148 135.555 129.675 135.536 130.179 135.508C130.683 135.48 131.117 135.443 131.481 135.396V136.824C131.08 136.861 130.627 136.894 130.123 136.922C129.619 136.941 129.097 136.95 128.555 136.95C128.023 136.95 127.501 136.941 126.987 136.922C126.474 136.894 126.017 136.861 125.615 136.824L125.601 135.396ZM126.399 141.22C126.343 141.463 126.297 141.682 126.259 141.878C126.231 142.074 126.217 142.27 126.217 142.466C126.217 142.625 126.25 142.774 126.315 142.914C126.39 143.054 126.507 143.175 126.665 143.278C126.833 143.381 127.057 143.465 127.337 143.53C127.627 143.586 127.981 143.614 128.401 143.614C129.036 143.614 129.629 143.586 130.179 143.53C130.739 143.465 131.309 143.367 131.887 143.236L131.915 144.734C131.477 144.818 130.963 144.888 130.375 144.944C129.797 144.991 129.129 145.014 128.373 145.014C127.188 145.014 126.311 144.823 125.741 144.44C125.181 144.048 124.901 143.511 124.901 142.83C124.901 142.578 124.92 142.317 124.957 142.046C124.995 141.766 125.055 141.453 125.139 141.108L126.399 141.22ZM123.165 134.388C123.137 134.472 123.1 134.584 123.053 134.724C123.016 134.855 122.979 134.99 122.941 135.13C122.913 135.261 122.89 135.368 122.871 135.452C122.825 135.685 122.769 135.97 122.703 136.306C122.647 136.633 122.587 136.992 122.521 137.384C122.465 137.767 122.409 138.159 122.353 138.56C122.307 138.952 122.265 139.335 122.227 139.708C122.199 140.081 122.185 140.422 122.185 140.73C122.185 140.973 122.19 141.22 122.199 141.472C122.218 141.715 122.241 141.967 122.269 142.228C122.353 142.041 122.437 141.845 122.521 141.64C122.605 141.425 122.689 141.215 122.773 141.01C122.857 140.805 122.937 140.618 123.011 140.45L123.711 141.01C123.59 141.355 123.459 141.738 123.319 142.158C123.179 142.578 123.053 142.979 122.941 143.362C122.839 143.735 122.764 144.039 122.717 144.272C122.699 144.365 122.68 144.477 122.661 144.608C122.643 144.729 122.638 144.832 122.647 144.916C122.647 144.981 122.647 145.061 122.647 145.154C122.657 145.257 122.666 145.35 122.675 145.434L121.401 145.518C121.261 145.033 121.14 144.393 121.037 143.6C120.935 142.807 120.883 141.939 120.883 140.996C120.883 140.473 120.907 139.946 120.953 139.414C121 138.873 121.056 138.35 121.121 137.846C121.187 137.342 121.252 136.88 121.317 136.46C121.392 136.04 121.448 135.69 121.485 135.41C121.513 135.233 121.537 135.041 121.555 134.836C121.583 134.631 121.602 134.435 121.611 134.248L123.165 134.388ZM141.029 133.898C141.011 134.019 140.992 134.169 140.973 134.346C140.964 134.514 140.95 134.696 140.931 134.892C140.922 135.079 140.917 135.251 140.917 135.41C140.908 135.727 140.903 136.101 140.903 136.53C140.913 136.959 140.917 137.398 140.917 137.846C140.917 138.229 140.927 138.681 140.945 139.204C140.973 139.717 141.001 140.249 141.029 140.8C141.057 141.341 141.081 141.85 141.099 142.326C141.127 142.793 141.141 143.175 141.141 143.474C141.141 143.773 141.095 144.057 141.001 144.328C140.908 144.599 140.754 144.837 140.539 145.042C140.334 145.257 140.054 145.425 139.699 145.546C139.345 145.667 138.911 145.728 138.397 145.728C137.744 145.728 137.151 145.649 136.619 145.49C136.097 145.341 135.681 145.093 135.373 144.748C135.065 144.403 134.911 143.945 134.911 143.376C134.911 142.919 135.042 142.508 135.303 142.144C135.574 141.78 135.98 141.491 136.521 141.276C137.063 141.052 137.744 140.94 138.565 140.94C139.275 140.94 139.961 141.019 140.623 141.178C141.286 141.337 141.911 141.551 142.499 141.822C143.087 142.083 143.624 142.377 144.109 142.704C144.595 143.031 145.015 143.357 145.369 143.684L144.529 145C144.184 144.655 143.787 144.314 143.339 143.978C142.891 143.642 142.401 143.339 141.869 143.068C141.337 142.788 140.777 142.569 140.189 142.41C139.601 142.251 138.999 142.172 138.383 142.172C137.73 142.172 137.226 142.275 136.871 142.48C136.517 142.685 136.339 142.965 136.339 143.32C136.339 143.684 136.512 143.955 136.857 144.132C137.212 144.309 137.683 144.398 138.271 144.398C138.757 144.398 139.111 144.286 139.335 144.062C139.559 143.838 139.671 143.483 139.671 142.998C139.671 142.755 139.662 142.419 139.643 141.99C139.625 141.551 139.606 141.08 139.587 140.576C139.569 140.063 139.55 139.568 139.531 139.092C139.513 138.607 139.503 138.191 139.503 137.846C139.503 137.566 139.499 137.277 139.489 136.978C139.489 136.679 139.489 136.395 139.489 136.124C139.489 135.844 139.489 135.606 139.489 135.41C139.48 135.205 139.471 135.009 139.461 134.822C139.452 134.626 139.438 134.449 139.419 134.29C139.401 134.131 139.377 134.001 139.349 133.898H141.029ZM140.147 136.656C140.371 136.656 140.675 136.656 141.057 136.656C141.44 136.647 141.855 136.633 142.303 136.614C142.761 136.586 143.218 136.558 143.675 136.53C144.142 136.502 144.567 136.465 144.949 136.418L145.005 137.734C144.623 137.771 144.198 137.804 143.731 137.832C143.265 137.86 142.803 137.883 142.345 137.902C141.897 137.921 141.477 137.939 141.085 137.958C140.703 137.967 140.395 137.972 140.161 137.972L140.147 136.656ZM151.872 133.87C151.816 134.085 151.755 134.346 151.69 134.654C151.625 134.953 151.564 135.265 151.508 135.592C151.452 135.919 151.401 136.236 151.354 136.544C151.317 136.843 151.289 137.104 151.27 137.328C151.429 137.011 151.625 136.689 151.858 136.362C152.101 136.035 152.381 135.737 152.698 135.466C153.015 135.195 153.361 134.976 153.734 134.808C154.107 134.64 154.504 134.556 154.924 134.556C155.559 134.556 156.123 134.757 156.618 135.158C157.122 135.55 157.519 136.11 157.808 136.838C158.097 137.566 158.242 138.434 158.242 139.442C158.242 140.413 158.097 141.262 157.808 141.99C157.519 142.718 157.108 143.334 156.576 143.838C156.044 144.342 155.409 144.753 154.672 145.07C153.935 145.397 153.123 145.639 152.236 145.798L151.396 144.524C152.161 144.403 152.871 144.235 153.524 144.02C154.177 143.796 154.747 143.493 155.232 143.11C155.717 142.727 156.091 142.237 156.352 141.64C156.623 141.043 156.758 140.31 156.758 139.442C156.758 138.714 156.679 138.079 156.52 137.538C156.361 136.997 156.128 136.577 155.82 136.278C155.512 135.979 155.134 135.83 154.686 135.83C154.257 135.83 153.846 135.97 153.454 136.25C153.062 136.53 152.707 136.889 152.39 137.328C152.082 137.767 151.83 138.238 151.634 138.742C151.447 139.246 151.335 139.731 151.298 140.198C151.279 140.431 151.27 140.674 151.27 140.926C151.279 141.178 151.307 141.472 151.354 141.808L149.982 141.906C149.954 141.645 149.921 141.318 149.884 140.926C149.847 140.525 149.828 140.095 149.828 139.638C149.828 139.302 149.842 138.943 149.87 138.56C149.898 138.168 149.931 137.771 149.968 137.37C150.005 136.959 150.047 136.563 150.094 136.18C150.15 135.797 150.197 135.447 150.234 135.13C150.271 134.887 150.295 134.654 150.304 134.43C150.323 134.206 150.337 133.996 150.346 133.8L151.872 133.87Z" fill="white"/>
</svg>
