<svg width="45" height="45" viewBox="0 0 45 45" fill="none" xmlns="http://www.w3.org/2000/svg">
<path d="M35.1562 28.125C35.1562 35.8919 30.2669 40.7813 22.5 40.7813C14.7331 40.7813 9.84375 35.8919 9.84375 28.125C9.84375 19.7903 18.9167 8.53858 21.6993 5.28399C21.7983 5.16836 21.9212 5.07553 22.0595 5.01188C22.1978 4.94824 22.3482 4.91528 22.5004 4.91528C22.6527 4.91528 22.8031 4.94824 22.9414 5.01188C23.0797 5.07553 23.2025 5.16836 23.3016 5.28399C26.0833 8.53858 35.1562 19.7903 35.1562 28.125Z" stroke="#3CCE79" stroke-miterlimit="10"/>
<path d="M30.2344 28.8281C30.2344 30.5064 29.5677 32.116 28.3809 33.3028C27.1942 34.4895 25.5846 35.1562 23.9062 35.1562" stroke="#3CCE79" stroke-linecap="round" stroke-linejoin="round"/>
</svg>
