<svg width="30" height="30" viewBox="0 0 30 30" fill="none" xmlns="http://www.w3.org/2000/svg">
<path d="M9.75001 23.7925C8.43211 23.7925 7.49527 23.4985 6.93948 22.9105C6.38369 22.3225 5.57053 22.0285 4.50001 22.0285C3.70211 22.0285 3.05948 22.2214 2.57211 22.6071C2.08475 22.9929 1.49054 23.3033 0.789483 23.5385C0.591588 23.6103 0.410535 23.5691 0.246325 23.415C0.0821144 23.261 9.28793e-06 23.0587 9.28793e-06 22.8082C9.28793e-06 22.5354 0.0821144 22.3002 0.246325 22.1026C0.410535 21.9051 0.59843 21.7563 0.810009 21.6563C1.37843 21.3917 1.88264 21.0936 2.32264 20.762C2.76264 20.4304 3.48527 20.2646 4.49053 20.2646C4.95264 20.2646 5.38422 20.3287 5.78527 20.4568C6.18527 20.5838 6.72474 20.8661 7.40369 21.3036L5.11422 11.6687L3.16106 14.3499C3.01896 14.5498 2.84896 14.6698 2.65106 14.7098C2.45317 14.7498 2.26369 14.6868 2.08264 14.521C1.89632 14.3564 1.79369 14.1559 1.77475 13.9195C1.7558 13.6831 1.82001 13.4644 1.96738 13.2633L10.8158 1.0477C11.1621 0.572597 11.6037 0.256256 12.1405 0.0986733C12.6763 -0.0589094 13.1995 -0.0277457 13.71 0.192165L26.8579 5.79988C27.0495 5.88572 27.1916 6.04213 27.2842 6.2691C27.379 6.49489 27.3874 6.71539 27.3095 6.93059C27.2326 7.15168 27.0916 7.31279 26.8863 7.41392C26.6811 7.51388 26.4789 7.52094 26.28 7.43509L23.4332 6.18972L26.8421 20.4815C27.2842 20.525 27.6884 20.6815 28.0547 20.9508C28.4232 21.2189 28.8147 21.4541 29.2295 21.6563C29.4421 21.7551 29.6237 21.9092 29.7742 22.1185C29.9247 22.3278 30 22.5577 30 22.8082C30 23.0375 29.9179 23.2286 29.7537 23.3815C29.5895 23.5344 29.4084 23.5756 29.2105 23.505C28.5305 23.2698 27.9547 22.9646 27.4832 22.5895C27.0116 22.2144 26.3637 22.0274 25.5395 22.0285C24.4384 22.0285 23.6305 22.3225 23.1158 22.9105C22.6011 23.4985 21.659 23.7925 20.2895 23.7925C18.9516 23.7925 18.0026 23.4985 17.4426 22.9105C16.8826 22.3225 16.0684 22.0285 15 22.0285C13.899 22.0285 13.0911 22.3225 12.5763 22.9105C12.0616 23.4985 11.1195 23.7925 9.75001 23.7925ZM9.75001 28.2378C10.8511 28.2378 11.6584 27.9438 12.1721 27.3558C12.6868 26.7678 13.6295 26.4738 15 26.4738C16.3379 26.4738 17.2868 26.7678 17.8468 27.3558C18.4058 27.9438 19.22 28.2378 20.2895 28.2378C21.3905 28.2378 22.1984 27.9438 22.7132 27.3558C23.2279 26.7678 24.17 26.4738 25.5395 26.4738C26.5458 26.4738 27.2637 26.639 27.6932 26.9695C28.1226 27.2999 28.6211 27.598 29.1884 27.8638C29.4011 27.9626 29.5895 28.1167 29.7537 28.326C29.9179 28.5353 30 28.7764 30 29.0492C30 29.3009 29.9179 29.4979 29.7537 29.6402C29.5895 29.7824 29.4084 29.8177 29.2105 29.746C28.5095 29.5108 27.9284 29.2003 27.4674 28.8146C27.0063 28.4289 26.3637 28.236 25.5395 28.236C24.4647 28.236 23.6568 28.53 23.1158 29.118C22.5758 29.706 21.6337 30 20.2895 30C18.9453 30 17.9963 29.706 17.4426 29.118C16.889 28.53 16.0747 28.236 15 28.236C13.899 28.236 13.0911 28.53 12.5763 29.118C12.0616 29.706 11.1195 30 9.75001 30C8.38053 30 7.43843 29.706 6.92369 29.118C6.40896 28.53 5.60106 28.236 4.50001 28.236C3.6758 28.236 3.03317 28.4289 2.57211 28.8146C2.11106 29.2003 1.53001 29.5108 0.828957 29.746C0.631062 29.8189 0.443167 29.7777 0.265272 29.6225C0.0873777 29.4673 -0.00104334 29.2656 9.28793e-06 29.0175C9.28793e-06 28.7435 0.0805358 28.5077 0.241588 28.3101C0.402641 28.1114 0.589483 27.9626 0.802114 27.8638C1.37054 27.5992 1.8758 27.3011 2.3179 26.9695C2.76001 26.6378 3.48738 26.472 4.50001 26.472C5.87053 26.472 6.81264 26.766 7.32632 27.354C7.84106 27.942 8.64895 28.236 9.75001 28.236M20.6605 21.9845L18.4026 12.4219C18.35 12.2314 18.2521 12.0891 18.109 11.995C17.9658 11.9009 17.809 11.8827 17.6384 11.9403L12.7468 13.3744C12.5774 13.4332 12.4447 13.5491 12.349 13.7219C12.2542 13.8925 12.2332 14.073 12.2858 14.2635L13.7921 20.4074C13.9816 20.3486 14.1732 20.3098 14.3668 20.291C14.5605 20.2734 14.7716 20.2646 15 20.2646C16.379 20.2646 17.3958 20.588 18.0505 21.2348C18.7053 21.8816 19.5753 22.1314 20.6605 21.9845Z" fill="#3CCE79"/>
</svg>
