<svg width="145" height="64" viewBox="0 0 145 64" fill="none" xmlns="http://www.w3.org/2000/svg">
<path d="M1.65576 1.58594H142.656V61.5859H1.65576V1.58594Z" fill="#171717"/>
<path d="M13.0526 3.07308C16.22 3.08359 20.1414 3.01615 23.2751 3.05765C23.3191 3.05823 23.363 3.05881 23.407 3.0594C24.6877 3.07636 25.9928 3.10085 27.5717 3.13046C27.7728 3.13423 27.9789 3.13818 28.1895 3.14211C30.0612 3.17708 32.3604 3.219 35.4935 3.2656C46.0139 3.42206 54.3088 3.31808 56.889 3.28569C62.0637 3.22074 67.5839 3.21936 75.1161 3.21754C75.8049 3.21737 76.5108 3.21747 77.2345 3.21725C77.8209 3.21707 78.3064 3.26966 78.3198 3.33491C78.3329 3.40019 77.8686 3.45326 77.282 3.45345C76.5733 3.45367 75.8827 3.45386 75.2096 3.45403C75.2066 3.45403 75.2035 3.45403 75.2004 3.45403C67.6209 3.4559 62.2207 3.4573 57.168 3.52072C54.5316 3.55382 46.0329 3.66008 35.2528 3.49975C32.0864 3.45266 29.7614 3.41058 27.8783 3.37539C27.6721 3.37154 27.4712 3.3677 27.2759 3.36403C27.2713 3.36394 27.2667 3.36384 27.2621 3.36374C25.6728 3.33395 24.4227 3.31037 23.197 3.29414C23.1709 3.29385 23.1448 3.29355 23.1188 3.29326C19.9497 3.2513 16.1032 3.31947 13.0311 3.30928C12.4446 3.30731 11.9736 3.25277 11.9796 3.18754C11.9859 3.12236 12.4664 3.07119 13.0526 3.07308ZM118.376 60.8744C115.317 60.9609 111.249 60.9513 107.657 60.9128C104.039 60.874 100.765 60.8042 99.2243 60.7614C97.7182 60.7195 96.0446 60.7059 94.0479 60.6976C93.5901 60.6957 93.1151 60.694 92.6239 60.6923C91.0014 60.6867 89.1961 60.6804 87.2145 60.6618C79.9352 60.5932 75.1894 60.5903 71.8001 60.5965C71.103 60.5978 70.4543 60.5996 69.8473 60.6012C69.8463 60.6012 69.8452 60.6012 69.8442 60.6012C67.5528 60.6073 65.8431 60.6118 64.2708 60.5849C61.4721 60.537 59.1867 60.4945 56.4287 60.4116C52.625 60.2972 47.2071 60.3108 43.6815 60.3895C43.4881 60.3938 43.2901 60.3983 43.0898 60.4028C40.534 60.4602 37.3869 60.5308 32.668 60.5834C28.7473 60.6271 25.3303 60.6237 22.3059 60.6114C21.4392 60.6078 20.6121 60.6035 19.8181 60.5994C17.814 60.5893 16.0202 60.5801 14.3305 60.5855C9.08605 60.602 4.95269 60.5995 1.65576 60.5849L2.65679 61.5859C2.67139 58.2956 2.69811 55.8384 2.73022 53.9412C2.77966 51.0202 2.84328 49.3885 2.88924 48.2114C2.90313 47.8557 2.91559 47.5415 2.92535 47.2457C3.01242 44.6081 3.05157 42.1864 3.09864 39.2734C3.10909 38.6269 3.12 37.9542 3.13184 37.2515C3.17144 34.9012 3.16459 33.1497 3.14786 31.7762C3.14054 31.1755 3.13152 30.6468 3.12281 30.1483C3.12262 30.1391 3.12243 30.1299 3.12223 30.1207C3.12102 30.0512 3.11992 29.9823 3.11874 29.9138C3.11784 29.8622 3.1167 29.8106 3.11582 29.759C3.11464 29.7387 3.11388 29.7205 3.1132 29.7069C3.11267 29.6961 3.11229 29.6877 3.11204 29.6823C3.11194 29.6813 3.11184 29.6803 3.11175 29.6793C3.10721 29.5815 3.10542 29.4973 3.10505 29.48C3.10438 29.4499 3.10409 29.4231 3.10388 29.4095C3.10279 29.3373 3.10217 29.2444 3.10184 29.1826C3.101 29.0238 3.10001 28.7478 3.09893 28.3212C3.09553 27.9497 3.08972 27.5932 3.08233 27.147C3.08185 27.1189 3.08136 27.0908 3.08087 27.0627C3.07366 26.6275 3.06539 26.1183 3.05728 25.4793C3.04991 24.8979 3.09642 24.3631 3.16126 24.2852C3.2261 24.2075 3.28462 24.6159 3.29202 25.1972C3.29966 25.7993 3.30752 26.2762 3.31474 26.7117C3.31523 26.7393 3.31571 26.7668 3.3162 26.7944C3.32371 27.2484 3.33075 27.6785 3.33484 28.1418C3.33621 28.2969 3.33726 28.4569 3.33804 28.6063C3.34096 28.8752 3.34598 29.1812 3.35231 29.5474C3.35358 29.6209 3.35474 29.6968 3.3561 29.7743C3.36479 30.2719 3.37493 30.8514 3.38289 31.5049C3.40153 33.0346 3.40852 34.9727 3.36542 37.5305C3.35411 38.2013 3.34362 38.8515 3.33338 39.4864C3.28621 42.411 3.24436 45.013 3.15194 47.8129C3.13926 48.1971 3.12477 48.5655 3.10942 48.9595C3.06392 50.1271 3.0095 51.5213 2.9638 54.2217C2.93335 56.0208 2.90743 58.3837 2.89309 61.5859L1.65576 60.3486C4.8936 60.3631 8.98946 60.3658 14.2278 60.3493C16.0014 60.3437 17.9147 60.3535 19.953 60.3638C20.7311 60.3678 21.5287 60.3716 22.3427 60.3749C25.3201 60.387 28.6295 60.3903 32.4151 60.3481C37.0286 60.2966 40.0899 60.2281 42.6346 60.171C42.7225 60.169 42.8103 60.1669 42.8982 60.1649C43.0074 60.1625 43.1158 60.16 43.2232 60.1576C46.9801 60.0738 52.7448 60.0572 56.9468 60.1835C59.5837 60.2628 61.7711 60.3037 64.5543 60.3513C65.9231 60.3747 67.3857 60.3709 69.6311 60.365C70.2615 60.3633 70.9545 60.3617 71.7235 60.3603C75.1735 60.354 79.9916 60.3568 87.3524 60.4261C89.2715 60.4442 90.9983 60.4503 92.6116 60.4559C93.1128 60.4576 93.6045 60.4594 94.0862 60.4614C96.0926 60.4698 97.9601 60.4834 99.7011 60.5319C101.132 60.5717 104.301 60.6397 107.819 60.6775C111.363 60.7155 115.125 60.7212 117.813 60.6452C118.093 60.6372 118.375 60.6294 118.656 60.6216C121.082 60.5538 123.554 60.4847 125.545 60.3696C129.981 60.0103 136.207 59.8977 142.656 59.8806L140.95 61.5859C140.933 55.0632 141.014 48.3116 141.036 42.9507C141.036 42.8107 141.037 42.6707 141.037 42.5307C141.087 30.2251 141.081 21.2819 141.079 18.2335C141.079 18.0913 141.079 17.962 141.079 17.8457C141.079 17.7419 141.078 17.648 141.078 17.5652C141.078 16.3234 141.069 15.2246 141.061 14.0734C141.06 14.0105 141.06 13.9477 141.059 13.8848C141.05 12.6683 141.041 11.3916 141.042 9.88254C141.043 6.83327 141.041 4.09023 141.036 1.58594L142.656 3.20531C140.552 3.20901 138.616 3.21408 136.809 3.21929C136.076 3.2214 135.363 3.22332 134.669 3.2254C134.667 3.2254 134.665 3.2254 134.663 3.2254C131.614 3.23457 128.91 3.24282 126.344 3.24288C121.664 3.24299 118.503 3.25794 116.045 3.27404C115.274 3.27909 114.563 3.28425 113.893 3.28919C112.443 3.29986 111.176 3.30922 109.87 3.31249C107.414 3.31862 105.153 3.33486 102.927 3.35064C102.728 3.35204 102.53 3.35332 102.332 3.35472C99.918 3.37173 97.5275 3.3875 95.0003 3.38792C94.4137 3.38801 93.9274 3.33495 93.915 3.26967C93.9033 3.20446 94.3696 3.15153 94.9558 3.15143C97.4106 3.15102 99.7424 3.13582 102.156 3.11881C102.355 3.11741 102.555 3.11586 102.755 3.11444C104.976 3.09869 107.278 3.08254 109.78 3.07629C111.039 3.07314 112.235 3.06434 113.657 3.05386C114.335 3.04886 115.065 3.04346 115.878 3.03814C118.374 3.02179 121.576 3.00651 126.301 3.00639C128.836 3.00633 131.506 2.99836 134.552 2.98921C135.251 2.98711 135.971 2.98494 136.712 2.9828C138.545 2.97752 140.513 2.97238 142.656 2.96868L141.273 1.58594C141.277 4.08147 141.28 6.81477 141.278 9.85035C141.277 11.2761 141.286 12.4865 141.295 13.6978C141.296 13.7658 141.296 13.8337 141.296 13.9017C141.305 15.0429 141.314 16.2028 141.315 17.5146C141.315 17.6899 141.315 17.9137 141.315 18.1829C141.317 21.2358 141.324 30.2152 141.273 42.566C141.273 42.6043 141.273 42.6426 141.273 42.6809C141.239 50.9565 141.22 55.6253 141.278 59.1407C141.293 60.0231 141.304 60.8347 141.313 61.5859L142.656 60.2431C141.045 60.2615 139.712 60.2682 138.551 60.2721C138.227 60.2732 137.92 60.2742 137.627 60.275C136.362 60.2785 135.362 60.2813 134.363 60.2977C131.341 60.3473 129.174 60.4284 126.552 60.5799C124.329 60.7083 121.606 60.7843 119.22 60.8508C119.217 60.8509 119.213 60.851 119.21 60.8511C118.927 60.859 118.648 60.8667 118.376 60.8744ZM2.90031 17.0608C2.90226 16.4746 2.95657 16.004 3.02175 16.0093C3.08699 16.0153 3.13843 16.4958 3.1365 17.0823C3.13184 18.4797 3.12718 19.8772 3.12252 21.2747C3.12056 21.8608 3.06625 22.3316 3.00107 22.3262C2.93585 22.3202 2.88442 21.8396 2.88633 21.2532C2.89099 19.8558 2.89565 18.4583 2.90031 17.0608ZM120.822 62.0501C120.25 62.0633 119.68 62.022 119.55 61.9581C119.421 61.8942 119.78 61.8318 120.352 61.8186C120.654 61.8116 121.151 61.7989 121.82 61.7819C125.236 61.6947 133.145 61.493 142.656 61.3464L142.416 61.5859C142.356 57.6821 142.305 53.5083 142.275 49.2645C142.267 48.0363 142.258 46.936 142.25 45.8877C142.215 41.4035 142.047 37.8038 142.054 29.2271C142.061 20.0115 142.086 10.7978 142.116 1.58594L142.656 2.12553C115.819 2.03872 88.9986 1.91161 62.1942 2.06481C51.7953 2.12424 41.4291 2.13314 31.0222 2.12917C22.3481 2.12587 6.44845 2.0047 2.70735 1.99229C2.12066 1.99034 1.64982 1.9358 1.65582 1.87055C1.66209 1.80534 2.14238 1.75416 2.72881 1.75609C6.44348 1.76841 22.2903 1.8894 30.9317 1.89268C41.3186 1.89663 51.6636 1.88793 62.0424 1.82861C88.8767 1.67524 115.768 1.64359 142.656 1.64928L142.592 1.58594C142.59 10.8168 142.584 20.0472 142.577 29.2746C142.57 37.7679 142.451 41.225 142.486 45.693C142.494 46.7439 142.503 47.8502 142.511 49.0898C142.542 53.4003 142.594 57.6361 142.655 61.5859C133.43 61.7296 125.764 61.925 122.35 62.012C121.66 62.0295 121.142 62.0427 120.822 62.0501ZM93.5421 61.9514C86.9932 61.9692 77.6838 61.9374 69.5484 61.9094C65.5808 61.8958 61.8925 61.8829 58.9395 61.8774C54.3644 61.8689 51.4842 61.8124 48.628 61.7562C48.5974 61.7557 48.5667 61.7551 48.5361 61.7545C45.6818 61.6984 42.8252 61.6432 38.1786 61.6345C33.4938 61.6257 27.0113 61.6642 20.4726 61.7029C20.4675 61.7029 20.4624 61.7029 20.4573 61.7029C13.9534 61.7415 7.35625 61.9002 2.58889 61.8911C2.27556 61.8905 1.96455 61.8898 1.65576 61.8892L1.35559 61.8921L1.35255 61.5859C1.38847 45.5213 1.54711 35.5644 1.67214 30.4825C1.89506 21.4223 1.64503 11.1462 1.92698 1.89023C1.98942 0.869389 2.16918 2.59122 2.11745 4.47308C2.11599 4.54103 2.11454 4.609 2.11308 4.67695C2.09953 5.32417 2.08852 5.89051 2.07959 6.68805C2.07228 7.8437 2.07179 8.7037 2.07143 9.48856C2.07048 11.5479 2.02755 25.8441 1.9031 30.9025C1.78456 35.7213 1.90058 45.4536 1.8751 61.5859L1.65576 61.3666C1.98005 61.3671 2.30691 61.3677 2.6364 61.3683C7.31551 61.3773 13.7806 61.5055 20.3194 61.4668C20.3372 61.4667 20.3551 61.4666 20.373 61.4665C26.8639 61.428 33.4095 61.3891 38.1725 61.398C42.987 61.407 45.9738 61.465 48.8656 61.5218C48.8937 61.5224 48.9218 61.523 48.9499 61.5235C51.7796 61.5792 54.5272 61.633 58.9334 61.6412C61.9513 61.6468 65.6827 61.6595 69.6756 61.6732C77.7762 61.7011 86.9557 61.7329 93.4486 61.7152C94.0345 61.7136 94.531 61.7653 94.5568 61.8305C94.5822 61.8957 94.1278 61.9498 93.5421 61.9514ZM93.4072 63.4236C75.0057 63.6855 56.5017 63.612 38.3564 63.3354C33.6204 63.3265 27.0114 63.3081 20.4113 63.2896C20.3367 63.2893 20.2621 63.289 20.1875 63.2888C13.6589 63.2704 7.15895 63.2522 2.49231 63.2433C2.21163 63.2428 1.9328 63.2422 1.65576 63.2417L0.0166347 63.258L-2.86102e-06 61.5859C0.0315943 45.4635 0.074937 35.4398 0.200208 30.3476C0.319036 25.518 0.319381 24.1773 0.3202 22.1898C0.320297 22.1356 0.320394 22.0814 0.320491 22.0273C0.320297 22.0237 0.320103 22.0201 0.319909 22.0165C0.316869 21.9484 0.315131 21.8912 0.314375 21.8617C0.312835 21.8017 0.312263 21.7528 0.312045 21.7345C0.31154 21.6922 0.311505 21.6567 0.311463 21.6441C0.311292 21.5925 0.311337 21.5334 0.311463 21.4954C0.312636 21.1415 0.319788 20.033 0.32952 19.1547C0.339494 18.2547 0.352343 17.6131 0.366507 16.9367C0.367963 16.8682 0.36942 16.7997 0.370876 16.7313C0.383709 16.1216 0.397663 15.4581 0.412814 14.5025C0.422065 13.9204 0.481887 13.5066 0.546494 13.5782C0.611053 13.6502 0.655882 14.1797 0.646681 14.7616C0.630742 15.7669 0.61589 16.4728 0.602995 17.0854C0.601539 17.1533 0.600083 17.2213 0.598626 17.2892C0.585068 17.9367 0.574066 18.504 0.565134 19.3019C0.55783 20.4572 0.557339 21.3161 0.556979 22.1009C0.556036 24.1585 0.555318 25.708 0.430871 30.7661C0.311944 35.5997 0.267999 45.3636 0.236182 61.5859L0.250447 63.0195L1.65576 63.0055C1.93071 63.0061 2.2075 63.0066 2.48618 63.0071C7.16151 63.0161 13.669 63.0343 20.1921 63.0526C20.2688 63.0528 20.3454 63.0529 20.4221 63.0531C27.0257 63.0717 33.6251 63.0903 38.3503 63.0992C56.7677 63.1336 74.8044 63.0153 93.3121 63.1874C96.7178 63.1781 99.8306 63.1744 102.715 63.1711C111.202 63.1613 117.715 63.1536 123.925 63.01C125.286 62.9786 128.854 62.9519 134.011 62.9186C135.522 62.9088 137.18 62.8986 138.971 62.8874C140.143 62.8801 141.372 62.8724 142.656 62.8643L143.947 62.8515L143.934 61.5859C143.912 58.0561 143.886 54.1118 143.856 49.8133C143.848 48.5851 143.839 47.4848 143.831 46.4364C143.796 41.9522 143.768 38.4126 143.775 29.8357C143.781 22.2102 143.813 10.8628 143.848 1.58594L143.836 0.382177L142.656 0.393919C139.094 0.380687 135.838 0.36714 133.214 0.35464C128.478 0.332073 125.804 0.311162 123.913 0.293771C123.386 0.288928 122.923 0.284237 122.498 0.280082C121.388 0.269227 120.526 0.260908 119.396 0.255327C111.258 0.21515 105.561 0.242829 96.2281 0.300469C95.6432 0.304063 95.1333 0.25407 95.0892 0.188924C95.0452 0.123768 95.4838 0.067916 96.0687 0.0642725C105.416 0.00654781 111.2 -0.0215945 119.448 0.0191301C120.627 0.0249559 121.551 0.0340031 122.68 0.0450506C123.099 0.0491467 123.547 0.0535636 124.046 0.0581565C125.906 0.0752589 128.552 0.0959948 133.263 0.118443C135.874 0.130882 139.113 0.144354 142.656 0.157514L144.07 0.143444L144.084 1.58594C144.05 10.8532 144.017 22.1986 144.011 29.8096C144.005 38.3027 144.032 41.7737 144.066 46.2417C144.075 47.2923 144.083 48.3979 144.092 49.637C144.123 54.0049 144.149 58.0112 144.171 61.5859L144.186 63.0862L142.656 63.1015C141.426 63.1092 140.248 63.1166 139.123 63.1236C137.334 63.1348 135.68 63.1451 134.175 63.1548C128.914 63.1887 125.562 63.2146 124.395 63.2416C117.968 63.3901 111.172 63.398 102.606 63.4079C99.7533 63.4111 96.7038 63.4146 93.4072 63.4236ZM62.5912 0.247754C63.1764 0.244424 63.684 0.294701 63.7255 0.359882C63.7668 0.42505 63.3265 0.480607 62.7414 0.483951C59.6507 0.501616 57.4288 0.51619 55.6919 0.527637C52.477 0.548825 50.9232 0.559156 48.5963 0.557344C42.5893 0.552664 36.7891 0.550304 31.5709 0.548315C22.8971 0.545011 15.8278 0.542374 12.0869 0.529967C11.5003 0.528009 11.0293 0.473467 11.0353 0.408228C11.0419 0.343052 11.5222 0.291854 12.1083 0.293771C15.823 0.30609 22.839 0.308833 31.4805 0.312119C36.7048 0.314106 42.524 0.316147 48.5687 0.320856C50.8256 0.322614 52.2925 0.313055 55.4359 0.292314C57.1712 0.280864 59.418 0.265891 62.5912 0.247754Z" fill="white"/>
<path d="M24.6158 36.7859V33.1459H20.6558V36.7859H24.6158ZM24.6158 32.0659V28.6659H20.6558V32.0659H24.6158ZM31.4158 28.6659H27.7358V32.0659H28.4158C28.4691 31.9593 28.5624 31.8393 28.6958 31.7059C28.8558 31.5726 29.0158 31.5059 29.1758 31.5059C29.3891 31.5059 29.5758 31.5859 29.7358 31.7459C29.8958 31.9059 29.9758 32.0926 29.9758 32.3059C29.9758 32.5993 29.8958 32.8126 29.7358 32.9459C29.5758 33.0793 29.3758 33.1593 29.1358 33.1859C28.8958 33.2126 28.6424 33.2126 28.3758 33.1859C28.2691 33.1859 28.1624 33.1859 28.0558 33.1859C27.9491 33.1593 27.8424 33.1459 27.7358 33.1459V36.7859H28.1758C29.0558 36.7859 29.8158 36.5993 30.4558 36.2259C31.0958 35.8259 31.4158 35.1326 31.4158 34.1459V28.6659ZM36.1758 23.5059C36.1758 23.8526 36.0558 24.1726 35.8158 24.4659C35.6024 24.7326 35.2958 24.8659 34.8958 24.8659H27.7358V27.5459H34.2958V33.7059C34.2958 34.9859 33.9624 35.9326 33.2958 36.5459C32.6291 37.1593 31.7891 37.5459 30.7758 37.7059C29.7624 37.8659 28.7491 37.9459 27.7358 37.9459V40.8659H31.5358C31.5358 40.5459 31.6558 40.2393 31.8958 39.9459C32.1358 39.6259 32.4424 39.4659 32.8158 39.4659C33.1891 39.4659 33.4958 39.5993 33.7358 39.8659C34.0024 40.1326 34.1358 40.4393 34.1358 40.7859C34.1358 41.2126 33.9891 41.5459 33.6958 41.7859C33.4024 41.9993 33.0424 42.1059 32.6158 42.1059H27.7358V45.0659C28.2958 44.9859 28.9358 44.8793 29.6558 44.7459C30.4024 44.6126 31.1091 44.4793 31.7758 44.3459C32.1224 44.2926 32.4424 44.2259 32.7358 44.1459C33.0558 44.0659 33.3358 44.0126 33.5758 43.9859C33.8158 43.9326 34.0158 43.8926 34.1758 43.8659C34.3624 43.8393 34.4958 43.8259 34.5758 43.8259C34.6291 43.8259 34.6958 43.8526 34.7758 43.9059C34.8558 43.9326 34.8958 43.9726 34.8958 44.0259C34.8958 44.1059 34.8158 44.2126 34.6558 44.3459C34.4958 44.4526 34.3891 44.5326 34.3358 44.5859C33.2691 45.3059 32.0158 45.9459 30.5758 46.5059C29.1358 47.0393 27.6158 47.5193 26.0158 47.9459C24.4424 48.3459 22.8824 48.6926 21.3358 48.9859C19.7891 49.3059 18.3758 49.5859 17.0958 49.8259L15.4158 46.4659C16.9891 46.3593 18.5224 46.2126 20.0158 46.0259C21.5358 45.8393 23.0691 45.6526 24.6158 45.4659V42.1059H17.2158V40.8659H24.6158V37.9459H17.6558V27.5459H24.6158V24.8659H15.9358V23.5859H24.5758V20.3459C23.2158 20.5059 21.8558 20.6526 20.4958 20.7859C19.1358 20.9193 17.7624 20.9859 16.3758 20.9859C16.2958 20.9859 16.1891 20.9726 16.0558 20.9459C15.9224 20.8926 15.8558 20.8126 15.8558 20.7059C15.8558 20.6526 15.8958 20.5859 15.9758 20.5059C16.1624 20.3993 16.4691 20.2926 16.8958 20.1859C17.3224 20.0793 17.6424 20.0126 17.8558 19.9859C18.2291 19.8793 18.6024 19.7859 18.9758 19.7059C19.3491 19.6259 19.6424 19.5593 19.8558 19.5059C21.8024 18.9726 23.7491 18.3993 25.6958 17.7859C27.6424 17.1726 29.5491 16.4526 31.4158 15.6259C31.5491 15.7326 31.7891 15.9326 32.1358 16.2259C32.4824 16.4926 32.8291 16.7726 33.1758 17.0659C33.5491 17.3593 33.8691 17.6393 34.1358 17.9059C34.4291 18.1459 34.5758 18.3059 34.5758 18.3859C34.5758 18.4926 34.4824 18.5859 34.2958 18.6659C34.1358 18.7459 33.9891 18.7993 33.8558 18.8259C33.3758 18.9859 32.8824 19.1193 32.3758 19.2259C31.8691 19.3326 31.3491 19.4126 30.8158 19.4659C30.3091 19.5459 29.7891 19.6259 29.2558 19.7059C28.7491 19.7593 28.2424 19.8259 27.7358 19.9059V23.5859H33.3758C33.3758 23.2126 33.4958 22.8659 33.7358 22.5459C34.0024 22.1993 34.3491 22.0259 34.7758 22.0259C35.1758 22.0259 35.5091 22.1859 35.7758 22.5059C36.0424 22.7993 36.1758 23.1326 36.1758 23.5059ZM50.5358 27.2259C50.4824 28.4526 50.4158 30.0659 50.3358 32.0659C50.2558 34.0393 50.1224 36.0526 49.9358 38.1059C49.7491 40.1859 49.4958 42.1593 49.1758 44.0259C48.8558 45.8659 48.4291 47.2793 47.8958 48.2659C47.5491 48.9326 47.0824 49.4926 46.4958 49.9459C45.9091 50.3993 45.2024 50.6259 44.3758 50.6259C43.9491 50.6259 43.5624 50.5193 43.2158 50.3059C43.0291 50.1993 42.7224 49.9459 42.2958 49.5459C41.8958 49.1726 41.4558 48.7459 40.9758 48.2659C40.5224 47.7859 40.1224 47.3459 39.7758 46.9459C39.4558 46.5193 39.2958 46.2526 39.2958 46.1459C39.2958 46.0126 39.3758 45.9459 39.5358 45.9459C39.5891 45.9459 39.6558 45.9726 39.7358 46.0259C39.8424 46.0793 39.9491 46.1326 40.0558 46.1859C40.4824 46.3726 41.0158 46.6259 41.6558 46.9459C42.3224 47.2393 42.9491 47.3859 43.5358 47.3859C44.1491 47.3859 44.6024 47.2126 44.8958 46.8659C45.2158 46.5193 45.4691 46.0793 45.6558 45.5459C45.9491 44.5859 46.1891 43.3726 46.3758 41.9059C46.5624 40.4393 46.7091 38.8926 46.8158 37.2659C46.9491 35.6393 47.0291 34.0659 47.0558 32.5459C47.1091 30.9993 47.1491 29.6926 47.1758 28.6259H43.7758C43.5891 30.2259 43.3358 31.8126 43.0158 33.3859C42.7224 34.9593 42.3491 36.5193 41.8958 38.0659C41.0691 40.7859 39.8824 43.1593 38.3358 45.1859C36.7891 47.2126 34.8158 48.9993 32.4158 50.5459C32.3358 50.5993 32.1491 50.7059 31.8558 50.8659C31.5891 51.0259 31.3224 51.1726 31.0558 51.3059C30.7891 51.4393 30.6024 51.5059 30.4958 51.5059C30.2824 51.5059 30.1758 51.4259 30.1758 51.2659C30.1758 51.1859 30.2291 51.0926 30.3358 50.9859C31.6691 49.9193 32.8291 48.8393 33.8158 47.7459C34.8024 46.6526 35.6958 45.3593 36.4958 43.8659C37.7491 41.4926 38.6691 39.0259 39.2558 36.4659C39.8691 33.9059 40.2824 31.2926 40.4958 28.6259H36.9358V27.2259H40.6958C40.8024 25.5193 40.8824 23.7993 40.9358 22.0659C41.0158 20.3326 41.0691 18.5993 41.0958 16.8659L44.8558 17.3859C44.7491 19.0659 44.6158 20.7326 44.4558 22.3859C44.3224 24.0126 44.1624 25.6259 43.9758 27.2259H50.5358ZM86.3358 27.6659H77.8158V32.1459H82.3358C82.3358 31.6393 82.4691 31.2659 82.7358 31.0259C83.0291 30.7593 83.3091 30.6259 83.5758 30.6259C83.8691 30.6259 84.1491 30.7459 84.4158 30.9859C84.7091 31.2259 84.8558 31.5726 84.8558 32.0259C84.8558 32.5326 84.6824 32.8793 84.3358 33.0659C84.0158 33.2526 83.6558 33.3459 83.2558 33.3459L77.8158 33.3859V37.5059H82.3358C82.3358 37.0259 82.4691 36.6526 82.7358 36.3859C83.0291 36.1193 83.3091 35.9859 83.5758 35.9859C83.8691 35.9859 84.1491 36.1059 84.4158 36.3459C84.7091 36.5859 84.8558 36.9326 84.8558 37.3859C84.8558 37.8659 84.7091 38.2126 84.4158 38.4259C84.1224 38.6126 83.8024 38.7059 83.4558 38.7059L77.8158 38.7459V43.7859L82.8558 43.7459C84.2424 43.7459 85.1624 43.4259 85.6158 42.7859C86.0958 42.1193 86.3358 41.2126 86.3358 40.0659V27.6659ZM69.2158 25.0259C69.2158 25.4793 69.0691 25.8259 68.7758 26.0659C68.5091 26.3059 68.1491 26.4259 67.6958 26.4259L64.0158 26.4659V31.9059L66.2558 30.8259C66.4158 31.5193 66.6691 32.4259 67.0158 33.5459C67.3891 34.6393 67.7891 35.6926 68.2158 36.7059C68.2424 36.7326 68.2558 36.7726 68.2558 36.8259C68.2558 36.8526 68.2691 36.8793 68.2958 36.9059C68.3491 37.0126 68.3758 37.0926 68.3758 37.1459C68.3758 37.2793 68.2691 37.3459 68.0558 37.3459C67.8691 37.3459 67.6024 37.2126 67.2558 36.9459C66.9358 36.6793 66.6158 36.3726 66.2958 36.0259C65.8424 35.4926 65.4024 34.8926 64.9758 34.2259C64.5491 33.5326 64.2291 32.9726 64.0158 32.5459V50.9459H60.9358V33.0659C60.5624 33.9193 60.0158 34.8393 59.2958 35.8259C58.6024 36.7859 57.8291 37.6926 56.9758 38.5459C56.1491 39.3726 55.3358 40.0126 54.5358 40.4659C54.5091 40.4926 54.4424 40.5059 54.3358 40.5059C54.1758 40.5059 54.0958 40.4526 54.0958 40.3459C54.0958 40.3193 54.0958 40.2926 54.0958 40.2659C54.1224 40.2393 54.1358 40.2126 54.1358 40.1859C54.5091 39.6793 54.8958 39.0793 55.2958 38.3859C55.7224 37.6659 56.1224 36.9459 56.4958 36.2259C56.8958 35.4793 57.2158 34.8259 57.4558 34.2659C57.9358 33.1726 58.3224 32.2126 58.6158 31.3859C58.9358 30.5593 59.2024 29.7593 59.4158 28.9859C59.6291 28.2126 59.8291 27.3726 60.0158 26.4659L55.2158 26.4259V25.1459L60.9358 25.1859V16.5059H64.0158V25.1859H66.4558C66.4558 24.7326 66.5891 24.3593 66.8558 24.0659C67.1491 23.7459 67.4958 23.5859 67.8958 23.5859C68.2691 23.5859 68.5758 23.7326 68.8158 24.0259C69.0824 24.2926 69.2158 24.6259 69.2158 25.0259ZM92.2158 48.1859C92.2158 48.7726 91.9891 49.2526 91.5358 49.6259C91.1091 49.9993 90.6691 50.1859 90.2158 50.1859H68.8558V29.2259H71.8158V48.8259H88.3358C88.2558 48.6126 88.2158 48.3993 88.2158 48.1859C88.2158 47.5993 88.4291 47.1059 88.8558 46.7059C89.3091 46.2793 89.7624 46.0659 90.2158 46.0659C90.6691 46.0659 91.1091 46.2793 91.5358 46.7059C91.9891 47.1059 92.2158 47.5993 92.2158 48.1859ZM91.6158 20.2659C91.6158 20.8526 91.4024 21.3193 90.9758 21.6659C90.5758 21.9859 90.1491 22.1459 89.6958 22.1459L81.6958 22.1859V26.4259L89.6558 26.3859V39.5859C89.6558 41.1326 89.4158 42.3059 88.9358 43.1059C88.4558 43.8793 87.7491 44.3993 86.8158 44.6659C85.9091 44.9326 84.7624 45.0659 83.3758 45.0659H74.8558V26.3859L78.6158 26.4259V22.1859L69.2158 22.1459V20.7859L78.6158 20.8259V15.4659H81.6958V20.8259H87.8558C87.7758 20.6126 87.7358 20.4259 87.7358 20.2659C87.7358 19.6526 87.9491 19.1593 88.3758 18.7859C88.8024 18.3859 89.2424 18.1859 89.6958 18.1859C90.1224 18.1859 90.5491 18.3859 90.9758 18.7859C91.4024 19.1859 91.6158 19.6793 91.6158 20.2659ZM110.696 24.9859C110.696 25.4926 110.509 25.9059 110.136 26.2259C109.789 26.5193 109.362 26.6659 108.856 26.6659L106.136 26.7059V34.4259C106.322 34.3459 106.616 34.2259 107.016 34.0659C107.416 33.9059 107.829 33.7459 108.256 33.5859C108.709 33.3993 109.136 33.2393 109.536 33.1059C109.936 32.9459 110.176 32.8659 110.256 32.8659C110.416 32.8659 110.496 32.9459 110.496 33.1059C110.496 33.2126 110.456 33.3193 110.376 33.4259C110.322 33.5059 110.269 33.5726 110.216 33.6259C109.949 33.8393 109.642 34.0659 109.296 34.3059C108.949 34.5459 108.589 34.7859 108.216 35.0259C107.869 35.2393 107.509 35.4526 107.136 35.6659C106.762 35.8793 106.429 36.0926 106.136 36.3059V51.1059H103.056V37.7859C101.056 39.0126 98.9358 40.0926 96.6958 41.0259L94.6558 38.0259C97.5091 37.2259 100.309 36.3059 103.056 35.2659V26.7059H99.2558C99.1758 26.9459 99.0024 27.4259 98.7358 28.1459C98.4691 28.8393 98.1624 29.5993 97.8158 30.4259C97.4691 31.2259 97.1358 31.9326 96.8158 32.5459C96.6291 32.8926 96.4424 33.1859 96.2558 33.4259C96.0958 33.6393 95.9491 33.7459 95.8158 33.7459C95.5758 33.7459 95.4558 33.6526 95.4558 33.4659C95.4558 33.4126 95.4824 33.3326 95.5358 33.2259C95.5891 33.1193 95.6158 33.0526 95.6158 33.0259C95.6424 32.8926 95.6691 32.7593 95.6958 32.6259C95.7224 32.4926 95.7491 32.3593 95.7758 32.2259C95.8824 31.7459 95.9891 31.2659 96.0958 30.7859C96.2024 30.3059 96.2958 29.8126 96.3758 29.3059C96.9091 26.0526 97.1891 22.7593 97.2158 19.4259C97.6424 19.5326 98.2024 19.6526 98.8958 19.7859C99.6158 19.8926 100.189 19.9993 100.616 20.1059C100.696 20.1326 100.736 20.1859 100.736 20.2659C100.736 20.5593 100.696 20.9326 100.616 21.3859C100.509 22.0526 100.336 22.7593 100.096 23.5059C99.8824 24.2526 99.6958 24.8926 99.5358 25.4259H103.056V16.2659H106.136V25.4259H107.656C107.656 24.9726 107.749 24.5193 107.936 24.0659C108.149 23.6126 108.549 23.3859 109.136 23.3859C109.562 23.3859 109.922 23.5593 110.216 23.9059C110.536 24.2259 110.696 24.5859 110.696 24.9859ZM130.056 24.7459C130.002 26.9859 129.896 29.2126 129.736 31.4259C129.576 33.6393 129.389 35.8526 129.176 38.0659C129.122 38.7326 129.002 39.5859 128.816 40.6259C128.629 41.6659 128.376 42.7593 128.056 43.9059C127.762 45.0526 127.376 46.1459 126.896 47.1859C126.416 48.1993 125.842 49.0259 125.176 49.6659C124.509 50.3059 123.736 50.6259 122.856 50.6259C122.242 50.6259 121.576 50.3859 120.856 49.9059C120.136 49.4526 119.469 48.9059 118.856 48.2659C118.242 47.6259 117.749 47.0793 117.376 46.6259C117.322 46.5193 117.296 46.4393 117.296 46.3859C117.296 46.2793 117.362 46.2259 117.496 46.2259C117.576 46.2259 117.749 46.3059 118.016 46.4659C118.442 46.6526 119.002 46.8793 119.696 47.1459C120.389 47.3859 121.002 47.5059 121.536 47.5059C122.389 47.5059 123.082 47.1059 123.616 46.3059C124.149 45.5059 124.576 44.5593 124.896 43.4659C125.189 42.3726 125.402 41.2659 125.536 40.1459C125.696 38.9993 125.802 38.1193 125.856 37.5059C125.962 36.4926 126.042 35.4793 126.096 34.4659C126.176 33.4259 126.229 32.3859 126.256 31.3459C125.429 33.0259 124.442 34.7193 123.296 36.4259C122.149 38.1059 120.882 39.7193 119.496 41.2659C118.109 42.7859 116.616 44.1593 115.016 45.3859C113.416 46.5859 111.736 47.5459 109.976 48.2659C109.789 48.3459 109.589 48.3859 109.376 48.3859C109.189 48.3859 109.096 48.3326 109.096 48.2259C109.096 48.0659 109.136 47.9459 109.216 47.8659C109.269 47.8126 109.376 47.7326 109.536 47.6259C111.722 46.1593 113.722 44.4126 115.536 42.3859C117.376 40.3593 118.976 38.1593 120.336 35.7859C121.696 33.4126 122.762 30.9726 123.536 28.4659L126.296 29.7459C126.349 29.1059 126.376 28.4793 126.376 27.8659C126.402 27.2259 126.416 26.5993 126.416 25.9859H118.216L120.976 27.1459C119.909 29.8926 118.509 32.4659 116.776 34.8659C115.069 37.2659 112.976 39.2793 110.496 40.9059C110.389 40.9593 110.189 41.0793 109.896 41.2659C109.629 41.4259 109.349 41.5859 109.056 41.7459C108.789 41.8793 108.602 41.9459 108.496 41.9459C108.282 41.9459 108.176 41.8659 108.176 41.7059C108.176 41.6526 108.216 41.5859 108.296 41.5059C108.669 41.1326 109.042 40.7859 109.416 40.4659C109.816 40.1193 110.189 39.7593 110.536 39.3859C112.189 37.5193 113.656 35.4259 114.936 33.1059C116.216 30.7593 117.189 28.3859 117.856 25.9859H115.256C114.669 26.8393 113.882 27.7459 112.896 28.7059C111.936 29.6659 110.989 30.3993 110.056 30.9059C109.949 30.9593 109.842 30.9859 109.736 30.9859C109.602 30.9859 109.536 30.9193 109.536 30.7859C109.536 30.7326 109.562 30.6526 109.616 30.5459C110.149 29.8526 110.669 29.1593 111.176 28.4659C111.682 27.7726 112.122 27.0526 112.496 26.3059C113.296 24.7326 114.002 23.1193 114.616 21.4659C115.229 19.8126 115.736 18.1326 116.136 16.4259L119.896 17.5859C119.416 18.8659 118.842 20.1059 118.176 21.3059C117.536 22.4793 116.829 23.6393 116.056 24.7859L130.056 24.7459Z" fill="#3CCE79"/>
</svg>
