<svg width="33" height="27" viewBox="0 0 33 27" fill="none" xmlns="http://www.w3.org/2000/svg">
<path d="M19.0825 25.8367C19.0825 25.8367 25.5997 26.7414 29.3232 22.4425C33.0466 18.1437 32.4674 8.97835 32.4674 8.97835C32.4674 8.97835 24.8988 7.72241 21.5161 11.7881C20.4575 13.0609 19.0825 14.5978 19.0825 18.8124V25.8367ZM19.0825 25.8367C19.0825 25.8367 10.5649 27.2415 4.69498 20.4645C-1.1749 13.6874 0.830401 0.549192 0.830401 0.549192C0.830401 0.549192 9.71796 -0.428591 15.5757 6.33441C17.929 9.05141 19.0825 13.1929 19.0825 17.9863V25.8367ZM25.1665 18.8124L19.0825 24.4318M9.34805 13.1929L18.552 24.3531" stroke="#3CCE79"/>
</svg>
