<svg width="84" height="25" viewBox="0 0 84 25" fill="none" xmlns="http://www.w3.org/2000/svg">
<path d="M28.4201 7.98C28.4201 8.52133 28.2987 8.974 28.0561 9.338C27.8134 9.69267 27.4914 9.97267 27.0901 10.178C26.6981 10.3833 26.2687 10.528 25.8021 10.612C25.3354 10.696 24.8781 10.738 24.4301 10.738C24.0847 10.738 23.7534 10.6867 23.4361 10.584C23.1187 10.4907 22.7967 10.3833 22.4701 10.262C22.3114 10.206 22.1527 10.1733 21.9941 10.164C21.8447 10.1453 21.6861 10.136 21.5181 10.136C21.4901 9.912 21.4621 9.69267 21.4341 9.478C21.4061 9.254 21.3734 9.03 21.3361 8.806C21.3174 8.64733 21.2941 8.49333 21.2661 8.344C21.2381 8.19467 21.2241 8.04533 21.2241 7.896C21.2241 7.76533 21.2474 7.658 21.2941 7.574C21.3501 7.49 21.4481 7.448 21.5881 7.448C21.7187 7.448 21.8167 7.476 21.8821 7.532C21.9567 7.57867 22.0127 7.66267 22.0501 7.784C22.1154 7.952 22.1667 8.12467 22.2041 8.302C22.2507 8.47933 22.3067 8.65667 22.3721 8.834C22.5307 9.27267 22.7874 9.62267 23.1421 9.884C23.5061 10.1453 23.9307 10.276 24.4161 10.276C25.0694 10.276 25.5687 10.0893 25.9141 9.716C26.2687 9.33333 26.4461 8.82 26.4461 8.176C26.4461 7.80267 26.3667 7.49467 26.2081 7.252C26.0494 7 25.8441 6.78533 25.5921 6.608C25.3401 6.43067 25.0694 6.26267 24.7801 6.104C24.5094 5.95467 24.2341 5.81467 23.9541 5.684C23.6741 5.55333 23.3987 5.418 23.1281 5.278C22.8294 5.11933 22.5354 4.92333 22.2461 4.69C21.9661 4.44733 21.7327 4.172 21.5461 3.864C21.3687 3.54667 21.2801 3.206 21.2801 2.842C21.2801 2.226 21.4387 1.71733 21.7561 1.316C22.0827 0.914666 22.4981 0.615999 23.0021 0.419999C23.5154 0.223999 24.0474 0.125999 24.5981 0.125999C24.9527 0.125999 25.2934 0.177332 25.6201 0.279999C25.9561 0.373333 26.2827 0.485333 26.6001 0.615999C26.7027 0.653333 26.7961 0.681333 26.8801 0.699999C26.9734 0.718666 27.0714 0.727999 27.1741 0.727999C27.2487 0.727999 27.3187 0.727999 27.3841 0.727999C27.4494 0.718666 27.5147 0.709333 27.5801 0.699999C27.6081 0.998666 27.6407 1.29733 27.6781 1.596C27.7154 1.89467 27.7527 2.19333 27.7901 2.492C27.7994 2.53867 27.8041 2.59 27.8041 2.646C27.8134 2.69267 27.8181 2.73933 27.8181 2.786C27.8181 2.91667 27.7901 3.038 27.7341 3.15C27.6781 3.25267 27.5707 3.304 27.4121 3.304C27.2907 3.304 27.2021 3.276 27.1461 3.22C27.0901 3.164 27.0387 3.08467 26.9921 2.982C26.8801 2.69267 26.7727 2.408 26.6701 2.128C26.5674 1.848 26.4181 1.58667 26.2221 1.344C26.0167 1.08267 25.7601 0.891332 25.4521 0.769999C25.1441 0.639332 24.8267 0.573999 24.5001 0.573999C24.1827 0.573999 23.9167 0.662666 23.7021 0.84C23.4874 1.008 23.3287 1.22733 23.2261 1.498C23.1234 1.76867 23.0721 2.04867 23.0721 2.338C23.0721 2.786 23.1887 3.136 23.4221 3.388C23.6647 3.63067 23.9634 3.85467 24.3181 4.06C24.5141 4.16267 24.7101 4.26533 24.9061 4.368C25.1114 4.46133 25.3121 4.55467 25.5081 4.648C25.9747 4.86267 26.4274 5.124 26.8661 5.432C27.3141 5.73067 27.6827 6.09 27.9721 6.51C28.2707 6.92067 28.4201 7.41067 28.4201 7.98ZM35.3466 6.398C35.0852 5.60467 34.8146 4.816 34.5346 4.032C34.2639 3.248 34.0026 2.45933 33.7506 1.666C33.4799 2.45933 33.2092 3.248 32.9386 4.032C32.6772 4.816 32.4112 5.60467 32.1406 6.398H35.3466ZM39.5466 10.416C39.5466 10.556 39.4579 10.626 39.2806 10.626C39.2246 10.626 39.1686 10.626 39.1126 10.626C39.0566 10.626 38.9959 10.6213 38.9306 10.612C38.6972 10.5933 38.4546 10.584 38.2026 10.584C37.9599 10.584 37.7172 10.584 37.4746 10.584C37.1666 10.584 36.8586 10.584 36.5506 10.584C36.2426 10.584 35.9299 10.5933 35.6126 10.612C35.5752 10.6213 35.5379 10.626 35.5006 10.626C35.4632 10.626 35.4259 10.626 35.3886 10.626C35.2579 10.626 35.1926 10.5607 35.1926 10.43C35.1926 10.318 35.2299 10.2527 35.3046 10.234C35.3886 10.206 35.4819 10.1967 35.5846 10.206C35.6872 10.2153 35.7712 10.22 35.8366 10.22C36.0046 10.22 36.1259 10.1873 36.2006 10.122C36.2846 10.0473 36.3266 9.92133 36.3266 9.744C36.3266 9.64133 36.2939 9.464 36.2286 9.212C36.1632 8.95067 36.0839 8.666 35.9906 8.358C35.8972 8.05 35.8039 7.76533 35.7106 7.504C35.6266 7.23333 35.5659 7.042 35.5286 6.93H31.9586C31.9399 6.986 31.8979 7.112 31.8326 7.308C31.7672 7.504 31.6879 7.73267 31.5946 7.994C31.5106 8.25533 31.4266 8.512 31.3426 8.764C31.2586 9.016 31.1886 9.23533 31.1326 9.422C31.0766 9.59933 31.0486 9.70667 31.0486 9.744C31.0486 9.92133 31.0952 10.0427 31.1886 10.108C31.2819 10.1733 31.3986 10.2107 31.5386 10.22C31.6786 10.22 31.8139 10.22 31.9446 10.22C31.9912 10.22 32.0286 10.2527 32.0566 10.318C32.0846 10.374 32.0986 10.4253 32.0986 10.472C32.0986 10.528 32.0752 10.57 32.0286 10.598C31.9912 10.626 31.9492 10.64 31.9026 10.64C31.5946 10.64 31.2866 10.6307 30.9786 10.612C30.6799 10.6027 30.3812 10.598 30.0826 10.598C29.9332 10.598 29.7839 10.6027 29.6346 10.612C29.4852 10.6213 29.3312 10.626 29.1726 10.626C29.1259 10.626 29.0792 10.6073 29.0326 10.57C28.9859 10.5327 28.9626 10.4907 28.9626 10.444C28.9626 10.3413 28.9999 10.276 29.0746 10.248C29.1492 10.22 29.2332 10.2107 29.3266 10.22C29.4292 10.22 29.5132 10.22 29.5786 10.22C29.6999 10.22 29.7979 10.1733 29.8726 10.08C29.9566 9.97733 30.0172 9.87933 30.0546 9.786C30.6052 8.40467 31.1279 7.01867 31.6226 5.628C32.1172 4.228 32.5979 2.82333 33.0646 1.414C33.1019 1.31133 33.1486 1.16667 33.2046 0.98C33.2606 0.793332 33.2886 0.653332 33.2886 0.559999C33.2886 0.503999 33.2746 0.457333 33.2466 0.419999C33.2279 0.373333 33.2186 0.331333 33.2186 0.293999C33.2186 0.256666 33.2652 0.228666 33.3586 0.209999C33.4519 0.191332 33.5499 0.177332 33.6526 0.167999C33.7552 0.158666 33.8206 0.153999 33.8486 0.153999C34.0446 0.125999 34.2359 0.0979992 34.4226 0.0699996C34.6186 0.0419994 34.8146 0.0186661 35.0106 -3.57628e-07L38.4406 9.674C38.5152 9.898 38.6132 10.0427 38.7346 10.108C38.8652 10.164 39.0379 10.192 39.2526 10.192C39.3366 10.192 39.4066 10.206 39.4626 10.234C39.5186 10.2527 39.5466 10.3133 39.5466 10.416ZM50.2064 0.559999C50.2064 0.737332 50.113 0.825999 49.9264 0.825999C49.833 0.825999 49.7397 0.821332 49.6464 0.811999C49.553 0.802666 49.4644 0.797999 49.3804 0.797999C49.287 0.797999 49.203 0.849333 49.1284 0.951999C49.0537 1.05467 49.0024 1.148 48.9744 1.232C48.825 1.61467 48.6897 2.002 48.5684 2.394C48.4564 2.786 48.335 3.178 48.2044 3.57C47.971 4.31667 47.7284 5.05867 47.4764 5.796C47.2244 6.53333 46.9724 7.27533 46.7204 8.022C46.599 8.37667 46.4777 8.73133 46.3564 9.086C46.2444 9.44067 46.1277 9.79533 46.0064 10.15C45.969 10.2527 45.913 10.36 45.8384 10.472C45.7637 10.5747 45.661 10.626 45.5304 10.626L44.2984 10.654C43.9624 9.59933 43.5937 8.526 43.1924 7.434C42.8004 6.342 42.413 5.25933 42.0304 4.186C41.909 3.83133 41.7877 3.50467 41.6664 3.206C41.5544 2.90733 41.433 2.58067 41.3024 2.226C41.2557 2.07667 41.1904 1.904 41.1064 1.708C41.0224 1.50267 40.9524 1.32533 40.8964 1.176C40.831 1.01733 40.7144 0.928666 40.5464 0.91C40.3877 0.891333 40.2384 0.881999 40.0984 0.881999C40.005 0.881999 39.921 0.867999 39.8464 0.84C39.7717 0.811999 39.7344 0.737333 39.7344 0.615999C39.7344 0.541332 39.7577 0.475999 39.8044 0.419999C39.851 0.354666 39.9164 0.322 40.0004 0.322C40.1684 0.322 40.3364 0.326666 40.5044 0.335999C40.6817 0.345333 40.859 0.349999 41.0364 0.349999C41.4657 0.349999 41.895 0.349999 42.3244 0.349999C42.7537 0.349999 43.183 0.345333 43.6124 0.335999C43.715 0.326666 43.8224 0.322 43.9344 0.322C44.0464 0.312666 44.1537 0.307999 44.2564 0.307999C44.331 0.307999 44.3824 0.335999 44.4104 0.392C44.4477 0.447999 44.4664 0.508666 44.4664 0.573999C44.4664 0.639333 44.4477 0.699999 44.4104 0.755999C44.3824 0.811999 44.331 0.84 44.2564 0.84C44.107 0.84 43.9577 0.84 43.8084 0.84C43.6684 0.830666 43.5237 0.825999 43.3744 0.825999C43.1597 0.825999 43.0524 0.937999 43.0524 1.162C43.0524 1.25533 43.0664 1.358 43.0944 1.47C43.1317 1.57267 43.1644 1.67067 43.1924 1.764C43.5844 3.00533 43.9904 4.26067 44.4104 5.53C44.8304 6.79933 45.2364 8.022 45.6284 9.198C46.039 7.994 46.4217 6.78067 46.7764 5.558C47.1404 4.33533 47.4764 3.11267 47.7844 1.89C47.8124 1.75933 47.845 1.61933 47.8824 1.47C47.9197 1.32067 47.9384 1.18067 47.9384 1.05C47.9384 0.891333 47.8964 0.811999 47.8124 0.811999C47.7284 0.802666 47.621 0.797999 47.4904 0.797999C47.4064 0.797999 47.3224 0.807333 47.2384 0.825999C47.1637 0.835333 47.0844 0.84 47.0004 0.84C46.9257 0.84 46.851 0.821333 46.7764 0.784C46.711 0.737333 46.6784 0.667333 46.6784 0.573999C46.6784 0.405999 46.7577 0.322 46.9164 0.322C47.047 0.322 47.1777 0.326666 47.3084 0.335999C47.4484 0.345333 47.5837 0.349999 47.7144 0.349999C47.845 0.349999 47.971 0.349999 48.0924 0.349999C48.2137 0.349999 48.335 0.345333 48.4564 0.335999C48.699 0.335999 48.9464 0.326666 49.1984 0.307999C49.4597 0.289333 49.7117 0.279999 49.9544 0.279999C50.029 0.279999 50.0897 0.312666 50.1364 0.377999C50.183 0.433999 50.2064 0.494666 50.2064 0.559999ZM59.333 8.148C59.333 8.29733 59.3144 8.45133 59.277 8.61C59.249 8.75933 59.2257 8.91333 59.207 9.072C59.1884 9.24933 59.165 9.43133 59.137 9.618C59.1184 9.80467 59.0997 9.99133 59.081 10.178C59.053 10.3273 59.011 10.43 58.955 10.486C58.899 10.5327 58.7917 10.556 58.633 10.556C57.681 10.556 56.729 10.5513 55.777 10.542C54.825 10.5233 53.873 10.514 52.921 10.514C52.5944 10.514 52.2677 10.528 51.941 10.556C51.6144 10.5933 51.2877 10.612 50.961 10.612C50.8024 10.612 50.723 10.5327 50.723 10.374C50.723 10.2153 50.793 10.136 50.933 10.136C51.073 10.1267 51.2224 10.1127 51.381 10.094C51.5677 10.0753 51.717 10.0053 51.829 9.884C51.9504 9.75333 52.011 9.492 52.011 9.1V1.554C52.011 1.40467 51.983 1.26 51.927 1.12C51.8804 0.98 51.7637 0.91 51.577 0.91C51.465 0.91 51.353 0.914666 51.241 0.923999C51.129 0.923999 51.017 0.923999 50.905 0.923999C50.6717 0.923999 50.555 0.811999 50.555 0.588C50.555 0.475999 50.5924 0.405999 50.667 0.377999C50.7417 0.340666 50.8257 0.322 50.919 0.322C51.1897 0.322 51.4557 0.331333 51.717 0.349999C51.9784 0.359333 52.2397 0.363999 52.501 0.363999C53.3784 0.363999 54.2557 0.359333 55.133 0.349999C56.0104 0.331333 56.8877 0.322 57.765 0.322C57.933 0.322 58.101 0.317333 58.269 0.307999C58.437 0.289333 58.605 0.270666 58.773 0.251999C58.7917 0.401333 58.8104 0.550666 58.829 0.699999C58.857 0.849333 58.8804 0.998666 58.899 1.148C58.927 1.32533 58.9644 1.512 59.011 1.708C59.067 1.904 59.095 2.09533 59.095 2.282C59.095 2.394 59.0484 2.48733 58.955 2.562C58.8617 2.62733 58.7637 2.66 58.661 2.66C58.437 2.66 58.2877 2.562 58.213 2.366C58.073 1.92733 57.863 1.56333 57.583 1.274C57.3124 0.975332 56.9297 0.825999 56.435 0.825999H53.915V4.942C54.2697 4.942 54.615 4.93733 54.951 4.928C55.2964 4.91867 55.6417 4.9 55.987 4.872C56.3324 4.844 56.6637 4.788 56.981 4.704C57.1117 4.676 57.247 4.63867 57.387 4.592C57.5364 4.54533 57.6764 4.522 57.807 4.522C57.919 4.522 57.975 4.57333 57.975 4.676C57.975 4.74133 57.9564 4.83933 57.919 4.97C57.891 5.10067 57.8677 5.19867 57.849 5.264C57.8024 5.38533 57.7557 5.46 57.709 5.488C57.6624 5.50667 57.5784 5.516 57.457 5.516C57.233 5.516 57.0137 5.502 56.799 5.474C56.4444 5.43667 56.085 5.41333 55.721 5.404C55.357 5.38533 54.993 5.376 54.629 5.376C54.4237 5.376 54.251 5.432 54.111 5.544C53.9804 5.64667 53.915 5.81 53.915 6.034V9.478C53.915 9.702 53.943 9.86067 53.999 9.954C54.0644 10.0473 54.2137 10.094 54.447 10.094C54.699 10.094 54.979 10.094 55.287 10.094C55.595 10.094 55.9077 10.08 56.225 10.052C56.5517 10.024 56.855 9.96333 57.135 9.87C57.415 9.77667 57.6484 9.63667 57.835 9.45C57.9937 9.29133 58.1477 9.08133 58.297 8.82C58.4464 8.55867 58.5677 8.32533 58.661 8.12C58.7077 8.008 58.7544 7.93333 58.801 7.896C58.8477 7.84933 58.9317 7.826 59.053 7.826C59.165 7.826 59.2397 7.854 59.277 7.91C59.3144 7.966 59.333 8.04533 59.333 8.148ZM36.0411 9.842C36.0411 9.93533 36.0178 10.024 35.9711 10.108C35.9245 10.1827 35.8498 10.22 35.7471 10.22C35.5978 10.22 35.4951 10.1873 35.4391 10.122C35.3925 10.0567 35.3505 9.96333 35.3131 9.842C35.2851 9.71133 35.2385 9.55267 35.1731 9.366C35.1171 9.17 35.0518 8.97867 34.9771 8.792C34.9118 8.596 34.8418 8.44667 34.7671 8.344C34.7298 8.288 34.6878 8.23667 34.6411 8.19C34.5945 8.134 34.5478 8.08267 34.5011 8.036C34.4358 7.952 34.3191 7.896 34.1511 7.868C33.9831 7.83067 33.8105 7.812 33.6331 7.812C33.4558 7.80267 33.3158 7.798 33.2131 7.798C33.0918 7.798 32.9611 7.798 32.8211 7.798C32.6811 7.798 32.5598 7.83067 32.4571 7.896C32.3545 7.952 32.2985 8.064 32.2891 8.232C32.2798 8.54933 32.2751 8.876 32.2751 9.212C32.2751 9.53867 32.2751 9.86533 32.2751 10.192C32.2751 11.256 32.2751 12.32 32.2751 13.384C32.2845 14.448 32.2891 15.512 32.2891 16.576C32.2891 16.688 32.3031 16.8187 32.3311 16.968C32.3685 17.1173 32.4618 17.192 32.6111 17.192C32.7511 17.192 32.8865 17.1873 33.0171 17.178C33.1571 17.1687 33.2971 17.164 33.4371 17.164C33.5118 17.164 33.5678 17.1967 33.6051 17.262C33.6425 17.318 33.6611 17.374 33.6611 17.43C33.6611 17.598 33.5818 17.682 33.4231 17.682C33.3205 17.682 33.2131 17.6773 33.1011 17.668C32.9985 17.6587 32.8958 17.6493 32.7931 17.64C32.6158 17.6213 32.4385 17.612 32.2611 17.612C32.0838 17.612 31.9018 17.612 31.7151 17.612C31.4071 17.612 31.0991 17.612 30.7911 17.612C30.4831 17.612 30.1751 17.6213 29.8671 17.64C29.7551 17.6493 29.6385 17.6587 29.5171 17.668C29.4051 17.6773 29.2931 17.682 29.1811 17.682C29.0971 17.682 29.0318 17.654 28.9851 17.598C28.9385 17.542 28.9151 17.4767 28.9151 17.402C28.9151 17.2993 28.9571 17.2387 29.0411 17.22C29.1251 17.192 29.2045 17.178 29.2791 17.178C29.3818 17.178 29.4751 17.1827 29.5591 17.192C29.6525 17.192 29.7458 17.192 29.8391 17.192C30.0818 17.192 30.2171 17.136 30.2451 17.024C30.2825 16.912 30.3011 16.7533 30.3011 16.548V8.736C30.3011 8.372 30.2825 8.12933 30.2451 8.008C30.2078 7.87733 30.1098 7.812 29.9511 7.812C29.7925 7.80267 29.5311 7.798 29.1671 7.798C29.0458 7.798 28.8778 7.80267 28.6631 7.812C28.4578 7.82133 28.3038 7.854 28.2011 7.91C28.0798 7.97533 27.9818 8.064 27.9071 8.176C27.8325 8.27867 27.7718 8.39533 27.7251 8.526C27.6505 8.74067 27.5758 8.96 27.5011 9.184C27.4358 9.408 27.3658 9.62733 27.2911 9.842C27.2538 9.97267 27.2071 10.0707 27.1511 10.136C27.0951 10.192 26.9925 10.22 26.8431 10.22C26.6658 10.22 26.5771 10.1267 26.5771 9.94C26.5771 9.69733 26.6005 9.422 26.6471 9.114C26.7031 8.79667 26.7358 8.50267 26.7451 8.232C26.7545 8.08267 26.7545 7.93333 26.7451 7.784C26.7451 7.62533 26.7591 7.476 26.7871 7.336C26.7965 7.27067 26.8291 7.238 26.8851 7.238C26.9878 7.238 27.0905 7.252 27.1931 7.28C27.3051 7.308 27.4125 7.33133 27.5151 7.35C27.6271 7.35933 27.7391 7.36867 27.8511 7.378C27.9725 7.378 28.0938 7.38267 28.2151 7.392C28.7098 7.40133 29.2231 7.41067 29.7551 7.42C30.2965 7.42 30.8098 7.42 31.2951 7.42C31.8458 7.42 32.4245 7.41533 33.0311 7.406C33.6378 7.39667 34.2165 7.392 34.7671 7.392C34.8231 7.392 34.8791 7.392 34.9351 7.392C35.0005 7.392 35.0611 7.38733 35.1171 7.378C35.2198 7.35933 35.3178 7.33133 35.4111 7.294C35.5138 7.25667 35.6165 7.238 35.7191 7.238C35.7658 7.238 35.7985 7.26133 35.8171 7.308C35.8451 7.43867 35.8638 7.59267 35.8731 7.77C35.8825 7.938 35.8918 8.08733 35.9011 8.218C35.9291 8.47933 35.9571 8.75 35.9851 9.03C36.0225 9.30067 36.0411 9.57133 36.0411 9.842ZM47.4012 7.546C47.4012 7.61133 47.3825 7.672 47.3452 7.728C47.3078 7.784 47.2518 7.812 47.1772 7.812C47.0558 7.812 46.9345 7.80733 46.8132 7.798C46.7012 7.78867 46.5798 7.784 46.4492 7.784C46.3558 7.784 46.2952 7.826 46.2672 7.91C46.2392 7.994 46.2252 8.07333 46.2252 8.148C46.2252 8.74533 46.2205 9.34267 46.2112 9.94C46.2112 10.528 46.2112 11.1253 46.2112 11.732C46.2112 12.5813 46.2112 13.4307 46.2112 14.28C46.2205 15.12 46.2252 15.9647 46.2252 16.814C46.2252 16.8887 46.2392 16.968 46.2672 17.052C46.2952 17.136 46.3558 17.178 46.4492 17.178C46.5798 17.178 46.7012 17.1733 46.8132 17.164C46.9345 17.1547 47.0558 17.15 47.1772 17.15C47.2518 17.15 47.3032 17.1827 47.3312 17.248C47.3592 17.3133 47.3732 17.3787 47.3732 17.444C47.3732 17.584 47.2985 17.654 47.1492 17.654C47.0745 17.654 46.9998 17.6493 46.9252 17.64C46.8505 17.6307 46.7758 17.626 46.7012 17.626C46.5612 17.6073 46.4212 17.598 46.2812 17.598C46.1412 17.598 46.0012 17.598 45.8612 17.598C45.5345 17.598 45.2078 17.598 44.8812 17.598C44.5638 17.598 44.2418 17.6073 43.9152 17.626C43.8218 17.626 43.7238 17.6307 43.6212 17.64C43.5278 17.6493 43.4298 17.654 43.3272 17.654C43.2338 17.654 43.1685 17.626 43.1312 17.57C43.1032 17.514 43.0892 17.4487 43.0892 17.374C43.0892 17.2993 43.1172 17.2433 43.1732 17.206C43.2292 17.1687 43.2898 17.15 43.3552 17.15C43.4578 17.15 43.5512 17.1547 43.6352 17.164C43.7285 17.1733 43.8218 17.178 43.9152 17.178C44.0552 17.178 44.1485 17.1547 44.1952 17.108C44.2512 17.052 44.2792 16.954 44.2792 16.814V12.46H39.6732V16.842C39.6732 16.982 39.7012 17.08 39.7572 17.136C39.8132 17.1827 39.9065 17.206 40.0372 17.206C40.1305 17.206 40.2238 17.2013 40.3172 17.192C40.4105 17.1827 40.5038 17.178 40.5972 17.178C40.6718 17.178 40.7372 17.1967 40.7932 17.234C40.8492 17.262 40.8772 17.318 40.8772 17.402C40.8772 17.5793 40.7932 17.668 40.6252 17.668C40.2798 17.668 39.9345 17.654 39.5892 17.626C39.2532 17.6073 38.9172 17.598 38.5812 17.598C38.4132 17.598 38.2405 17.598 38.0632 17.598C37.8952 17.598 37.7272 17.6027 37.5592 17.612C37.4378 17.6213 37.3165 17.6307 37.1952 17.64C37.0832 17.6587 36.9665 17.668 36.8452 17.668C36.7798 17.668 36.7285 17.6353 36.6912 17.57C36.6632 17.514 36.6492 17.4627 36.6492 17.416C36.6492 17.3693 36.6678 17.318 36.7052 17.262C36.7425 17.206 36.7892 17.178 36.8452 17.178C36.9665 17.178 37.0832 17.1827 37.1952 17.192C37.3165 17.2013 37.4378 17.206 37.5592 17.206C37.6618 17.206 37.7272 17.164 37.7552 17.08C37.7832 16.996 37.7972 16.9167 37.7972 16.842C37.7972 15.918 37.7972 14.994 37.7972 14.07C37.7972 13.146 37.7972 12.222 37.7972 11.298C37.7972 10.7753 37.7972 10.2527 37.7972 9.73C37.7972 9.198 37.7972 8.67533 37.7972 8.162C37.7972 8.08733 37.7832 8.008 37.7552 7.924C37.7272 7.84 37.6618 7.798 37.5592 7.798C37.4378 7.798 37.3165 7.80267 37.1952 7.812C37.0832 7.82133 36.9665 7.826 36.8452 7.826C36.6958 7.826 36.6212 7.742 36.6212 7.574C36.6212 7.50867 36.6398 7.448 36.6772 7.392C36.7145 7.336 36.7705 7.308 36.8452 7.308C37.0878 7.308 37.3258 7.31733 37.5592 7.336C37.8018 7.35467 38.0445 7.364 38.2872 7.364C38.6698 7.364 39.0525 7.35467 39.4352 7.336C39.8272 7.31733 40.2145 7.308 40.5972 7.308C40.7745 7.308 40.8632 7.39667 40.8632 7.574C40.8632 7.69533 40.8118 7.76533 40.7092 7.784C40.6158 7.80267 40.5272 7.812 40.4432 7.812C40.3778 7.812 40.3125 7.812 40.2472 7.812C40.1818 7.80267 40.1118 7.798 40.0372 7.798C39.9158 7.798 39.8225 7.83533 39.7572 7.91C39.7012 7.98467 39.6732 8.08267 39.6732 8.204V11.998H44.2792V8.148C44.2792 8.008 44.2512 7.91467 44.1952 7.868C44.1485 7.812 44.0552 7.784 43.9152 7.784C43.8218 7.784 43.7285 7.78867 43.6352 7.798C43.5512 7.80733 43.4578 7.812 43.3552 7.812C43.2992 7.812 43.2385 7.78867 43.1732 7.742C43.1172 7.69533 43.0892 7.63933 43.0892 7.574C43.0892 7.39667 43.1778 7.308 43.3552 7.308C43.4672 7.308 43.5792 7.31267 43.6912 7.322C43.8032 7.33133 43.9152 7.34067 44.0272 7.35C44.2418 7.35933 44.4565 7.36867 44.6712 7.378C44.8858 7.378 45.1005 7.378 45.3152 7.378C45.6232 7.378 45.9312 7.36867 46.2392 7.35C46.5565 7.322 46.8692 7.308 47.1772 7.308C47.2518 7.308 47.3078 7.33133 47.3452 7.378C47.3825 7.42467 47.4012 7.48067 47.4012 7.546ZM56.92 15.148C56.92 15.2973 56.9013 15.4513 56.864 15.61C56.836 15.7593 56.8126 15.9133 56.794 16.072C56.7753 16.2493 56.752 16.4313 56.724 16.618C56.7053 16.8047 56.6866 16.9913 56.668 17.178C56.64 17.3273 56.598 17.43 56.542 17.486C56.486 17.5327 56.3786 17.556 56.22 17.556C55.268 17.556 54.316 17.5513 53.364 17.542C52.412 17.5233 51.46 17.514 50.508 17.514C50.1813 17.514 49.8546 17.528 49.528 17.556C49.2013 17.5933 48.8746 17.612 48.548 17.612C48.3893 17.612 48.31 17.5327 48.31 17.374C48.31 17.2153 48.38 17.136 48.52 17.136C48.66 17.1267 48.8093 17.1127 48.968 17.094C49.1546 17.0753 49.304 17.0053 49.416 16.884C49.5373 16.7533 49.598 16.492 49.598 16.1V8.554C49.598 8.40467 49.57 8.26 49.514 8.12C49.4673 7.98 49.3506 7.91 49.164 7.91C49.052 7.91 48.94 7.91467 48.828 7.924C48.716 7.924 48.604 7.924 48.492 7.924C48.2586 7.924 48.142 7.812 48.142 7.588C48.142 7.476 48.1793 7.406 48.254 7.378C48.3286 7.34067 48.4126 7.322 48.506 7.322C48.7766 7.322 49.0426 7.33133 49.304 7.35C49.5653 7.35933 49.8266 7.364 50.088 7.364C50.9653 7.364 51.8426 7.35933 52.72 7.35C53.5973 7.33133 54.4746 7.322 55.352 7.322C55.52 7.322 55.688 7.31733 55.856 7.308C56.024 7.28933 56.192 7.27067 56.36 7.252C56.3786 7.40133 56.3973 7.55067 56.416 7.7C56.444 7.84933 56.4673 7.99867 56.486 8.148C56.514 8.32533 56.5513 8.512 56.598 8.708C56.654 8.904 56.682 9.09533 56.682 9.282C56.682 9.394 56.6353 9.48733 56.542 9.562C56.4486 9.62733 56.3506 9.66 56.248 9.66C56.024 9.66 55.8746 9.562 55.8 9.366C55.66 8.92733 55.45 8.56333 55.17 8.274C54.8993 7.97533 54.5166 7.826 54.022 7.826H51.502V11.942C51.8566 11.942 52.202 11.9373 52.538 11.928C52.8833 11.9187 53.2286 11.9 53.574 11.872C53.9193 11.844 54.2506 11.788 54.568 11.704C54.6986 11.676 54.834 11.6387 54.974 11.592C55.1233 11.5453 55.2633 11.522 55.394 11.522C55.506 11.522 55.562 11.5733 55.562 11.676C55.562 11.7413 55.5433 11.8393 55.506 11.97C55.478 12.1007 55.4546 12.1987 55.436 12.264C55.3893 12.3853 55.3426 12.46 55.296 12.488C55.2493 12.5067 55.1653 12.516 55.044 12.516C54.82 12.516 54.6006 12.502 54.386 12.474C54.0313 12.4367 53.672 12.4133 53.308 12.404C52.944 12.3853 52.58 12.376 52.216 12.376C52.0106 12.376 51.838 12.432 51.698 12.544C51.5673 12.6467 51.502 12.81 51.502 13.034V16.478C51.502 16.702 51.53 16.8607 51.586 16.954C51.6513 17.0473 51.8006 17.094 52.034 17.094C52.286 17.094 52.566 17.094 52.874 17.094C53.182 17.094 53.4946 17.08 53.812 17.052C54.1386 17.024 54.442 16.9633 54.722 16.87C55.002 16.7767 55.2353 16.6367 55.422 16.45C55.5806 16.2913 55.7346 16.0813 55.884 15.82C56.0333 15.5587 56.1546 15.3253 56.248 15.12C56.2946 15.008 56.3413 14.9333 56.388 14.896C56.4346 14.8493 56.5186 14.826 56.64 14.826C56.752 14.826 56.8266 14.854 56.864 14.91C56.9013 14.966 56.92 15.0453 56.92 15.148ZM13.594 14.518C13.594 14.6673 13.5427 14.7513 13.44 14.77C13.3373 14.7887 13.2347 14.798 13.132 14.798C13.0107 14.798 12.8987 14.8213 12.796 14.868C12.6933 14.9147 12.614 14.994 12.558 15.106C12.5113 15.2273 12.474 15.358 12.446 15.498C12.418 15.638 12.39 15.7687 12.362 15.89C12.054 17.3553 11.7227 18.816 11.368 20.272C11.0227 21.728 10.682 23.1887 10.346 24.654H8.736C8.428 23.4873 8.10133 22.33 7.756 21.182C7.41067 20.034 7.07467 18.8813 6.748 17.724C6.42133 18.8813 6.08067 20.0387 5.726 21.196C5.37133 22.344 5.01667 23.4967 4.662 24.654H3.15C2.954 23.6273 2.74867 22.6053 2.534 21.588C2.31933 20.5707 2.1 19.5533 1.876 18.536L1.428 16.478C1.39067 16.2913 1.35333 16.1047 1.316 15.918C1.27867 15.722 1.23667 15.5353 1.19 15.358C1.134 15.1527 1.064 15.022 0.980001 14.966C0.905334 14.9007 0.807334 14.8727 0.686001 14.882C0.574001 14.882 0.434001 14.882 0.266001 14.882C0.172667 14.882 0.102667 14.8493 0.0560007 14.784C0.0186673 14.7093 6.83591e-07 14.6347 6.83591e-07 14.56C6.83591e-07 14.4947 0.0326674 14.4387 0.0980007 14.392C0.172667 14.3453 0.238001 14.322 0.294001 14.322C0.564667 14.322 0.840001 14.3313 1.12 14.35C1.4 14.3593 1.68 14.364 1.96 14.364C2.296 14.364 2.62733 14.3593 2.954 14.35C3.29 14.3313 3.62133 14.322 3.948 14.322C4.01333 14.322 4.06933 14.35 4.116 14.406C4.172 14.462 4.2 14.518 4.2 14.574C4.2 14.6393 4.17667 14.7 4.13 14.756C4.08333 14.812 4.02267 14.84 3.948 14.84C3.88267 14.84 3.81733 14.84 3.752 14.84C3.696 14.8307 3.63533 14.826 3.57 14.826C3.42067 14.826 3.318 14.854 3.262 14.91C3.21533 14.9567 3.192 15.05 3.192 15.19C3.192 15.2367 3.192 15.288 3.192 15.344C3.20133 15.3907 3.21067 15.4373 3.22 15.484C3.40667 16.6973 3.61667 17.9107 3.85 19.124C4.09267 20.3373 4.31667 21.5553 4.522 22.778C4.78333 21.8633 5.054 20.9533 5.334 20.048C5.614 19.1333 5.87067 18.2187 6.104 17.304C6.188 17.0053 6.26267 16.7113 6.328 16.422C6.40267 16.1233 6.47733 15.8293 6.552 15.54C6.58 15.4093 6.608 15.2833 6.636 15.162C6.67333 15.0313 6.71067 14.9053 6.748 14.784C6.79467 14.6533 6.846 14.5647 6.902 14.518C6.96733 14.4713 7.07 14.448 7.21 14.448C7.322 14.448 7.42467 14.4573 7.518 14.476C7.61133 14.4947 7.68133 14.56 7.728 14.672C7.784 14.7653 7.82133 14.882 7.84 15.022C7.868 15.1527 7.896 15.274 7.924 15.386C8.008 15.6847 8.092 15.988 8.176 16.296C8.26 16.5947 8.344 16.898 8.428 17.206C8.69867 18.1393 8.96467 19.0727 9.226 20.006C9.49667 20.93 9.76733 21.8633 10.038 22.806C10.1687 22.1433 10.304 21.4853 10.444 20.832C10.5933 20.1693 10.7287 19.5067 10.85 18.844C10.9433 18.3307 11.0367 17.8173 11.13 17.304C11.2327 16.7907 11.3167 16.2773 11.382 15.764C11.4007 15.652 11.4147 15.54 11.424 15.428C11.4333 15.3067 11.438 15.19 11.438 15.078C11.438 15.0313 11.41 14.966 11.354 14.882C11.3073 14.7887 11.2513 14.742 11.186 14.742C11.13 14.742 11.074 14.742 11.018 14.742C10.962 14.742 10.906 14.742 10.85 14.742C10.7567 14.742 10.6633 14.7467 10.57 14.756C10.486 14.7653 10.3927 14.77 10.29 14.77C10.2247 14.77 10.1687 14.7467 10.122 14.7C10.0847 14.6533 10.066 14.5973 10.066 14.532C10.066 14.364 10.136 14.28 10.276 14.28C10.444 14.28 10.612 14.2847 10.78 14.294C10.9573 14.3033 11.13 14.308 11.298 14.308C11.6433 14.308 11.984 14.3033 12.32 14.294C12.656 14.2847 12.9967 14.28 13.342 14.28C13.51 14.28 13.594 14.3593 13.594 14.518ZM22.918 22.148C22.918 22.2973 22.8993 22.4513 22.862 22.61C22.834 22.7593 22.8107 22.9133 22.792 23.072C22.7733 23.2493 22.75 23.4313 22.722 23.618C22.7033 23.8047 22.6847 23.9913 22.666 24.178C22.638 24.3273 22.596 24.43 22.54 24.486C22.484 24.5327 22.3767 24.556 22.218 24.556C21.266 24.556 20.314 24.5513 19.362 24.542C18.41 24.5233 17.458 24.514 16.506 24.514C16.1793 24.514 15.8527 24.528 15.526 24.556C15.1993 24.5933 14.8727 24.612 14.546 24.612C14.3873 24.612 14.308 24.5327 14.308 24.374C14.308 24.2153 14.378 24.136 14.518 24.136C14.658 24.1267 14.8073 24.1127 14.966 24.094C15.1527 24.0753 15.302 24.0053 15.414 23.884C15.5353 23.7533 15.596 23.492 15.596 23.1V15.554C15.596 15.4047 15.568 15.26 15.512 15.12C15.4653 14.98 15.3487 14.91 15.162 14.91C15.05 14.91 14.938 14.9147 14.826 14.924C14.714 14.924 14.602 14.924 14.49 14.924C14.2567 14.924 14.14 14.812 14.14 14.588C14.14 14.476 14.1773 14.406 14.252 14.378C14.3267 14.3407 14.4107 14.322 14.504 14.322C14.7747 14.322 15.0407 14.3313 15.302 14.35C15.5633 14.3593 15.8247 14.364 16.086 14.364C16.9633 14.364 17.8407 14.3593 18.718 14.35C19.5953 14.3313 20.4727 14.322 21.35 14.322C21.518 14.322 21.686 14.3173 21.854 14.308C22.022 14.2893 22.19 14.2707 22.358 14.252C22.3767 14.4013 22.3953 14.5507 22.414 14.7C22.442 14.8493 22.4653 14.9987 22.484 15.148C22.512 15.3253 22.5493 15.512 22.596 15.708C22.652 15.904 22.68 16.0953 22.68 16.282C22.68 16.394 22.6333 16.4873 22.54 16.562C22.4467 16.6273 22.3487 16.66 22.246 16.66C22.022 16.66 21.8727 16.562 21.798 16.366C21.658 15.9273 21.448 15.5633 21.168 15.274C20.8973 14.9753 20.5147 14.826 20.02 14.826H17.5V18.942C17.8547 18.942 18.2 18.9373 18.536 18.928C18.8813 18.9187 19.2267 18.9 19.572 18.872C19.9173 18.844 20.2487 18.788 20.566 18.704C20.6967 18.676 20.832 18.6387 20.972 18.592C21.1213 18.5453 21.2613 18.522 21.392 18.522C21.504 18.522 21.56 18.5733 21.56 18.676C21.56 18.7413 21.5413 18.8393 21.504 18.97C21.476 19.1007 21.4527 19.1987 21.434 19.264C21.3873 19.3853 21.3407 19.46 21.294 19.488C21.2473 19.5067 21.1633 19.516 21.042 19.516C20.818 19.516 20.5987 19.502 20.384 19.474C20.0293 19.4367 19.67 19.4133 19.306 19.404C18.942 19.3853 18.578 19.376 18.214 19.376C18.0087 19.376 17.836 19.432 17.696 19.544C17.5653 19.6467 17.5 19.81 17.5 20.034V23.478C17.5 23.702 17.528 23.8607 17.584 23.954C17.6493 24.0473 17.7987 24.094 18.032 24.094C18.284 24.094 18.564 24.094 18.872 24.094C19.18 24.094 19.4927 24.08 19.81 24.052C20.1367 24.024 20.44 23.9633 20.72 23.87C21 23.7767 21.2333 23.6367 21.42 23.45C21.5787 23.2913 21.7327 23.0813 21.882 22.82C22.0313 22.5587 22.1527 22.3253 22.246 22.12C22.2927 22.008 22.3393 21.9333 22.386 21.896C22.4327 21.8493 22.5167 21.826 22.638 21.826C22.75 21.826 22.8247 21.854 22.862 21.91C22.8993 21.966 22.918 22.0453 22.918 22.148ZM32.8556 16.842C32.8556 16.9353 32.8323 17.024 32.7856 17.108C32.7389 17.1827 32.6643 17.22 32.5616 17.22C32.4123 17.22 32.3096 17.1873 32.2536 17.122C32.2069 17.0567 32.1649 16.9633 32.1276 16.842C32.0996 16.7113 32.0529 16.5527 31.9876 16.366C31.9316 16.17 31.8663 15.9787 31.7916 15.792C31.7263 15.596 31.6563 15.4467 31.5816 15.344C31.5443 15.288 31.5023 15.2367 31.4556 15.19C31.4089 15.134 31.3623 15.0827 31.3156 15.036C31.2503 14.952 31.1336 14.896 30.9656 14.868C30.7976 14.8307 30.6249 14.812 30.4476 14.812C30.2703 14.8027 30.1303 14.798 30.0276 14.798C29.9063 14.798 29.7756 14.798 29.6356 14.798C29.4956 14.798 29.3743 14.8307 29.2716 14.896C29.1689 14.952 29.1129 15.064 29.1036 15.232C29.0943 15.5493 29.0896 15.876 29.0896 16.212C29.0896 16.5387 29.0896 16.8653 29.0896 17.192C29.0896 18.256 29.0896 19.32 29.0896 20.384C29.0989 21.448 29.1036 22.512 29.1036 23.576C29.1036 23.688 29.1176 23.8187 29.1456 23.968C29.1829 24.1173 29.2763 24.192 29.4256 24.192C29.5656 24.192 29.7009 24.1873 29.8316 24.178C29.9716 24.1687 30.1116 24.164 30.2516 24.164C30.3263 24.164 30.3823 24.1967 30.4196 24.262C30.4569 24.318 30.4756 24.374 30.4756 24.43C30.4756 24.598 30.3963 24.682 30.2376 24.682C30.1349 24.682 30.0276 24.6773 29.9156 24.668C29.8129 24.6587 29.7103 24.6493 29.6076 24.64C29.4303 24.6213 29.2529 24.612 29.0756 24.612C28.8983 24.612 28.7163 24.612 28.5296 24.612C28.2216 24.612 27.9136 24.612 27.6056 24.612C27.2976 24.612 26.9896 24.6213 26.6816 24.64C26.5696 24.6493 26.4529 24.6587 26.3316 24.668C26.2196 24.6773 26.1076 24.682 25.9956 24.682C25.9116 24.682 25.8463 24.654 25.7996 24.598C25.7529 24.542 25.7296 24.4767 25.7296 24.402C25.7296 24.2993 25.7716 24.2387 25.8556 24.22C25.9396 24.192 26.0189 24.178 26.0936 24.178C26.1963 24.178 26.2896 24.1827 26.3736 24.192C26.4669 24.192 26.5603 24.192 26.6536 24.192C26.8963 24.192 27.0316 24.136 27.0596 24.024C27.0969 23.912 27.1156 23.7533 27.1156 23.548V15.736C27.1156 15.372 27.0969 15.1293 27.0596 15.008C27.0223 14.8773 26.9243 14.812 26.7656 14.812C26.6069 14.8027 26.3456 14.798 25.9816 14.798C25.8603 14.798 25.6923 14.8027 25.4776 14.812C25.2723 14.8213 25.1183 14.854 25.0156 14.91C24.8943 14.9753 24.7963 15.064 24.7216 15.176C24.6469 15.2787 24.5863 15.3953 24.5396 15.526C24.4649 15.7407 24.3903 15.96 24.3156 16.184C24.2503 16.408 24.1803 16.6273 24.1056 16.842C24.0683 16.9727 24.0216 17.0707 23.9656 17.136C23.9096 17.192 23.8069 17.22 23.6576 17.22C23.4803 17.22 23.3916 17.1267 23.3916 16.94C23.3916 16.6973 23.4149 16.422 23.4616 16.114C23.5176 15.7967 23.5503 15.5027 23.5596 15.232C23.5689 15.0827 23.5689 14.9333 23.5596 14.784C23.5596 14.6253 23.5736 14.476 23.6016 14.336C23.6109 14.2707 23.6436 14.238 23.6996 14.238C23.8023 14.238 23.9049 14.252 24.0076 14.28C24.1196 14.308 24.2269 14.3313 24.3296 14.35C24.4416 14.3593 24.5536 14.3687 24.6656 14.378C24.7869 14.378 24.9083 14.3827 25.0296 14.392C25.5243 14.4013 26.0376 14.4107 26.5696 14.42C27.1109 14.42 27.6243 14.42 28.1096 14.42C28.6603 14.42 29.2389 14.4153 29.8456 14.406C30.4523 14.3967 31.0309 14.392 31.5816 14.392C31.6376 14.392 31.6936 14.392 31.7496 14.392C31.8149 14.392 31.8756 14.3873 31.9316 14.378C32.0343 14.3593 32.1323 14.3313 32.2256 14.294C32.3283 14.2567 32.4309 14.238 32.5336 14.238C32.5803 14.238 32.6129 14.2613 32.6316 14.308C32.6596 14.4387 32.6783 14.5927 32.6876 14.77C32.6969 14.938 32.7063 15.0873 32.7156 15.218C32.7436 15.4793 32.7716 15.75 32.7996 16.03C32.8369 16.3007 32.8556 16.5713 32.8556 16.842ZM42.0876 21.336C42.0876 21.4853 42.0783 21.6347 42.0596 21.784C42.0409 21.9333 42.0223 22.0873 42.0036 22.246C41.9663 22.5727 41.9243 22.8993 41.8776 23.226C41.8309 23.5527 41.7936 23.8793 41.7656 24.206C41.7656 24.2993 41.7469 24.3787 41.7096 24.444C41.6629 24.5093 41.5929 24.5467 41.4996 24.556C41.4063 24.5747 41.3223 24.584 41.2476 24.584C41.1356 24.584 41.0236 24.5793 40.9116 24.57C40.7996 24.57 40.6829 24.57 40.5616 24.57C39.9736 24.5607 39.3856 24.556 38.7976 24.556C38.2096 24.556 37.6216 24.556 37.0336 24.556H35.4376C35.2323 24.556 35.0269 24.556 34.8216 24.556C34.6256 24.556 34.4249 24.5607 34.2196 24.57C34.1169 24.5793 34.0143 24.584 33.9116 24.584C33.8089 24.5933 33.7063 24.598 33.6036 24.598C33.5196 24.598 33.4449 24.5747 33.3796 24.528C33.3236 24.4813 33.2956 24.416 33.2956 24.332C33.2956 24.2387 33.3236 24.1687 33.3796 24.122C33.4449 24.0753 33.5149 24.052 33.5896 24.052C33.6643 24.052 33.7389 24.0567 33.8136 24.066C33.8976 24.0753 33.9769 24.08 34.0516 24.08C34.2009 24.08 34.3176 24.0613 34.4016 24.024C34.4856 23.9773 34.5276 23.87 34.5276 23.702C34.5276 22.2553 34.5276 20.8087 34.5276 19.362C34.5276 17.906 34.5229 16.4593 34.5136 15.022C34.5136 14.91 34.4903 14.84 34.4436 14.812C34.4063 14.7747 34.3363 14.756 34.2336 14.756C34.1309 14.756 34.0236 14.7607 33.9116 14.77C33.8089 14.7793 33.7016 14.784 33.5896 14.784C33.5243 14.784 33.4636 14.7607 33.4076 14.714C33.3516 14.6673 33.3236 14.6067 33.3236 14.532C33.3236 14.3547 33.4169 14.266 33.6036 14.266C33.7063 14.266 33.8136 14.2707 33.9256 14.28C34.0376 14.2893 34.1496 14.2987 34.2616 14.308C34.4856 14.3173 34.7049 14.3267 34.9196 14.336C35.1436 14.336 35.3676 14.336 35.5916 14.336C35.7783 14.336 35.9603 14.336 36.1376 14.336C36.3243 14.336 36.5063 14.3313 36.6836 14.322C36.8143 14.3127 36.9403 14.3033 37.0616 14.294C37.1829 14.2753 37.3043 14.266 37.4256 14.266C37.5749 14.266 37.6496 14.3453 37.6496 14.504C37.6496 14.5693 37.6309 14.6347 37.5936 14.7C37.5563 14.756 37.5003 14.784 37.4256 14.784C37.3043 14.784 37.1829 14.7793 37.0616 14.77C36.9496 14.7607 36.8283 14.756 36.6976 14.756C36.5949 14.756 36.5296 14.784 36.5016 14.84C36.4829 14.8867 36.4736 14.9567 36.4736 15.05C36.4736 15.3953 36.4689 15.736 36.4596 16.072C36.4596 16.408 36.4596 16.7487 36.4596 17.094C36.4596 18.1767 36.4596 19.264 36.4596 20.356C36.4689 21.448 36.4736 22.5353 36.4736 23.618C36.4736 23.7113 36.4969 23.8 36.5436 23.884C36.5903 23.968 36.6603 24.024 36.7536 24.052C36.8749 24.08 37.0009 24.094 37.1316 24.094C37.2623 24.094 37.3883 24.094 37.5096 24.094C38.2096 24.094 38.8163 24.024 39.3296 23.884C39.8429 23.744 40.2769 23.4873 40.6316 23.114C40.9956 22.7313 41.2943 22.1807 41.5276 21.462C41.5556 21.378 41.5929 21.3033 41.6396 21.238C41.6863 21.1633 41.7563 21.126 41.8496 21.126C41.9056 21.126 41.9569 21.1447 42.0036 21.182C42.0596 21.2193 42.0876 21.2707 42.0876 21.336ZM48.8065 20.398C48.5452 19.6047 48.2745 18.816 47.9945 18.032C47.7238 17.248 47.4625 16.4593 47.2105 15.666C46.9398 16.4593 46.6692 17.248 46.3985 18.032C46.1372 18.816 45.8712 19.6047 45.6005 20.398H48.8065ZM53.0065 24.416C53.0065 24.556 52.9178 24.626 52.7405 24.626C52.6845 24.626 52.6285 24.626 52.5725 24.626C52.5165 24.626 52.4558 24.6213 52.3905 24.612C52.1572 24.5933 51.9145 24.584 51.6625 24.584C51.4199 24.584 51.1772 24.584 50.9345 24.584C50.6265 24.584 50.3185 24.584 50.0105 24.584C49.7025 24.584 49.3899 24.5933 49.0725 24.612C49.0352 24.6213 48.9978 24.626 48.9605 24.626C48.9232 24.626 48.8858 24.626 48.8485 24.626C48.7178 24.626 48.6525 24.5607 48.6525 24.43C48.6525 24.318 48.6898 24.2527 48.7645 24.234C48.8485 24.206 48.9418 24.1967 49.0445 24.206C49.1472 24.2153 49.2312 24.22 49.2965 24.22C49.4645 24.22 49.5859 24.1873 49.6605 24.122C49.7445 24.0473 49.7865 23.9213 49.7865 23.744C49.7865 23.6413 49.7539 23.464 49.6885 23.212C49.6232 22.9507 49.5439 22.666 49.4505 22.358C49.3572 22.05 49.2638 21.7653 49.1705 21.504C49.0865 21.2333 49.0258 21.042 48.9885 20.93H45.4185C45.3998 20.986 45.3578 21.112 45.2925 21.308C45.2272 21.504 45.1478 21.7327 45.0545 21.994C44.9705 22.2553 44.8865 22.512 44.8025 22.764C44.7185 23.016 44.6485 23.2353 44.5925 23.422C44.5365 23.5993 44.5085 23.7067 44.5085 23.744C44.5085 23.9213 44.5552 24.0427 44.6485 24.108C44.7418 24.1733 44.8585 24.2107 44.9985 24.22C45.1385 24.22 45.2738 24.22 45.4045 24.22C45.4512 24.22 45.4885 24.2527 45.5165 24.318C45.5445 24.374 45.5585 24.4253 45.5585 24.472C45.5585 24.528 45.5352 24.57 45.4885 24.598C45.4512 24.626 45.4092 24.64 45.3625 24.64C45.0545 24.64 44.7465 24.6307 44.4385 24.612C44.1398 24.6027 43.8412 24.598 43.5425 24.598C43.3932 24.598 43.2438 24.6027 43.0945 24.612C42.9452 24.6213 42.7912 24.626 42.6325 24.626C42.5858 24.626 42.5392 24.6073 42.4925 24.57C42.4458 24.5327 42.4225 24.4907 42.4225 24.444C42.4225 24.3413 42.4598 24.276 42.5345 24.248C42.6092 24.22 42.6932 24.2107 42.7865 24.22C42.8892 24.22 42.9732 24.22 43.0385 24.22C43.1598 24.22 43.2578 24.1733 43.3325 24.08C43.4165 23.9773 43.4772 23.8793 43.5145 23.786C44.0652 22.4047 44.5878 21.0187 45.0825 19.628C45.5772 18.228 46.0578 16.8233 46.5245 15.414C46.5618 15.3113 46.6085 15.1667 46.6645 14.98C46.7205 14.7933 46.7485 14.6533 46.7485 14.56C46.7485 14.504 46.7345 14.4573 46.7065 14.42C46.6878 14.3733 46.6785 14.3313 46.6785 14.294C46.6785 14.2567 46.7252 14.2287 46.8185 14.21C46.9118 14.1913 47.0098 14.1773 47.1125 14.168C47.2152 14.1587 47.2805 14.154 47.3085 14.154C47.5045 14.126 47.6958 14.098 47.8825 14.07C48.0785 14.042 48.2745 14.0187 48.4705 14L51.9005 23.674C51.9752 23.898 52.0732 24.0427 52.1945 24.108C52.3252 24.164 52.4979 24.192 52.7125 24.192C52.7965 24.192 52.8665 24.206 52.9225 24.234C52.9785 24.2527 53.0065 24.3133 53.0065 24.416ZM63.8903 14.504C63.8903 14.6813 63.8016 14.77 63.6243 14.77C63.5496 14.77 63.475 14.7653 63.4003 14.756C63.3256 14.7467 63.251 14.742 63.1763 14.742C63.139 14.742 63.097 14.7467 63.0503 14.756C63.0036 14.756 62.957 14.756 62.9103 14.756C62.817 14.756 62.7563 14.8167 62.7283 14.938C62.7003 15.05 62.6863 15.176 62.6863 15.316C62.6863 15.4467 62.6863 15.54 62.6863 15.596V24.318C62.6863 24.3833 62.677 24.4393 62.6583 24.486C62.649 24.5327 62.6023 24.5607 62.5183 24.57C62.3876 24.5887 62.2476 24.5933 62.0983 24.584C61.949 24.584 61.809 24.5887 61.6783 24.598C61.6036 24.3553 61.4963 24.122 61.3563 23.898C61.2256 23.674 61.0856 23.4593 60.9363 23.254C60.0776 22.0033 59.1676 20.7947 58.2063 19.628C57.2543 18.4613 56.3396 17.262 55.4623 16.03C55.4623 17.29 55.4576 18.55 55.4483 19.81C55.4483 21.0607 55.4483 22.316 55.4483 23.576C55.4483 23.66 55.4576 23.7673 55.4763 23.898C55.5043 24.0193 55.5743 24.08 55.6863 24.08C55.817 24.08 55.9476 24.0753 56.0783 24.066C56.2183 24.0567 56.349 24.052 56.4703 24.052C56.545 24.052 56.5916 24.0893 56.6103 24.164C56.6383 24.2293 56.6523 24.2853 56.6523 24.332C56.6523 24.3973 56.6336 24.458 56.5963 24.514C56.5683 24.57 56.517 24.598 56.4423 24.598C56.2836 24.598 56.125 24.5887 55.9663 24.57C55.8076 24.5513 55.649 24.542 55.4903 24.542C55.2756 24.542 55.0563 24.5467 54.8323 24.556C54.6083 24.556 54.389 24.5653 54.1743 24.584C54.0903 24.5933 54.0063 24.598 53.9223 24.598C53.8476 24.6073 53.773 24.612 53.6983 24.612C53.5116 24.612 53.4183 24.514 53.4183 24.318C53.4183 24.2433 53.4463 24.1827 53.5023 24.136C53.5583 24.08 53.619 24.052 53.6843 24.052C53.7776 24.052 53.8663 24.0613 53.9503 24.08C54.0343 24.0893 54.123 24.094 54.2163 24.094C54.3563 24.094 54.459 24.0753 54.5243 24.038C54.599 23.9913 54.6363 23.884 54.6363 23.716C54.6363 22.428 54.6456 21.14 54.6643 19.852C54.6923 18.564 54.7063 17.276 54.7063 15.988C54.7063 15.8667 54.7063 15.75 54.7063 15.638C54.7063 15.526 54.7063 15.4093 54.7063 15.288C54.7063 15.1667 54.683 15.0453 54.6363 14.924C54.599 14.8027 54.5056 14.742 54.3563 14.742C54.2443 14.742 54.1276 14.7467 54.0063 14.756C53.8943 14.7653 53.7776 14.77 53.6563 14.77C53.4976 14.77 53.4183 14.6813 53.4183 14.504C53.4183 14.336 53.5023 14.252 53.6703 14.252C53.913 14.252 54.1556 14.2567 54.3983 14.266C54.641 14.2753 54.879 14.28 55.1123 14.28C55.327 14.28 55.5416 14.28 55.7563 14.28C55.9803 14.2707 56.1996 14.266 56.4143 14.266C56.965 15.0127 57.5436 15.736 58.1503 16.436C58.7663 17.1267 59.3543 17.8407 59.9143 18.578C60.241 19.0167 60.5723 19.4553 60.9083 19.894C61.2443 20.3327 61.585 20.7667 61.9303 21.196C61.9303 20.2067 61.9303 19.2173 61.9303 18.228C61.9396 17.2387 61.9443 16.2493 61.9443 15.26C61.9443 15.176 61.9303 15.0733 61.9023 14.952C61.8836 14.8213 61.8136 14.756 61.6923 14.756H61.3143C61.2583 14.756 61.2023 14.7653 61.1463 14.784C61.0903 14.7933 61.0343 14.798 60.9783 14.798C60.801 14.798 60.7123 14.7 60.7123 14.504C60.7123 14.392 60.745 14.3267 60.8103 14.308C60.8756 14.28 60.955 14.266 61.0483 14.266C61.235 14.266 61.417 14.2707 61.5943 14.28C61.781 14.2893 61.963 14.294 62.1403 14.294C62.383 14.294 62.6256 14.2847 62.8683 14.266C63.1203 14.2473 63.3676 14.238 63.6103 14.238C63.685 14.238 63.7503 14.266 63.8063 14.322C63.8623 14.3687 63.8903 14.4293 63.8903 14.504ZM72.9521 19.32C72.9521 18.788 72.8915 18.256 72.7701 17.724C72.6581 17.192 72.4715 16.7067 72.2101 16.268C71.9488 15.8293 71.6035 15.4793 71.1741 15.218C70.7448 14.9473 70.2175 14.812 69.5921 14.812C68.9575 14.812 68.3321 14.826 67.7161 14.854V23.422C67.7161 23.6647 67.7535 23.8373 67.8281 23.94C67.9028 24.0427 68.0708 24.094 68.3321 24.094C68.6495 24.094 68.9808 24.08 69.3261 24.052C69.6808 24.024 70.0215 23.9633 70.3481 23.87C70.6841 23.7673 70.9781 23.618 71.2301 23.422C71.8368 22.9273 72.2755 22.3113 72.5461 21.574C72.8168 20.8367 72.9521 20.0853 72.9521 19.32ZM74.9821 19.124C74.9821 19.7213 74.8935 20.3093 74.7161 20.888C74.5388 21.4667 74.2775 22.0033 73.9321 22.498C73.5961 22.9833 73.1761 23.394 72.6721 23.73C72.3455 23.9447 71.9628 24.122 71.5241 24.262C71.0855 24.3927 70.6375 24.486 70.1801 24.542C69.7321 24.598 69.3121 24.626 68.9201 24.626C68.5935 24.626 68.2668 24.612 67.9401 24.584C67.6228 24.5653 67.3008 24.556 66.9741 24.556C66.7408 24.556 66.5028 24.556 66.2601 24.556C66.0268 24.5653 65.7888 24.5793 65.5461 24.598C65.4528 24.6073 65.3641 24.612 65.2801 24.612C65.1961 24.6213 65.1121 24.626 65.0281 24.626C64.8601 24.626 64.7761 24.5513 64.7761 24.402C64.7761 24.3087 64.8181 24.248 64.9021 24.22C64.9861 24.192 65.0795 24.1733 65.1821 24.164C65.2848 24.1453 65.3641 24.1267 65.4201 24.108C65.5788 24.0333 65.6815 23.9167 65.7281 23.758C65.7748 23.5993 65.7981 23.4453 65.7981 23.296C65.7981 22.4467 65.7981 21.602 65.7981 20.762C65.7981 19.922 65.7981 19.082 65.7981 18.242C65.7981 17.7567 65.7981 17.276 65.7981 16.8C65.8075 16.3147 65.7981 15.834 65.7701 15.358C65.7701 15.3393 65.7655 15.302 65.7561 15.246C65.7561 15.1807 65.7561 15.1433 65.7561 15.134C65.7281 15.022 65.6535 14.9473 65.5321 14.91C65.4108 14.8727 65.2801 14.8587 65.1401 14.868C65.0001 14.868 64.8835 14.868 64.7901 14.868C64.7155 14.868 64.6455 14.854 64.5801 14.826C64.5148 14.7887 64.4821 14.7233 64.4821 14.63C64.4821 14.4527 64.5708 14.364 64.7481 14.364C64.9815 14.364 65.2101 14.3733 65.4341 14.392C65.6675 14.4013 65.9008 14.406 66.1341 14.406C66.7968 14.406 67.4595 14.3827 68.1221 14.336C68.7941 14.28 69.4615 14.252 70.1241 14.252C71.1321 14.252 72.0001 14.448 72.7281 14.84C73.4561 15.232 74.0115 15.792 74.3941 16.52C74.7861 17.248 74.9821 18.116 74.9821 19.124ZM83.4562 21.98C83.4562 22.5213 83.3349 22.974 83.0922 23.338C82.8495 23.6927 82.5275 23.9727 82.1262 24.178C81.7342 24.3833 81.3049 24.528 80.8382 24.612C80.3715 24.696 79.9142 24.738 79.4662 24.738C79.1209 24.738 78.7895 24.6867 78.4722 24.584C78.1549 24.4907 77.8329 24.3833 77.5062 24.262C77.3475 24.206 77.1889 24.1733 77.0302 24.164C76.8809 24.1453 76.7222 24.136 76.5542 24.136C76.5262 23.912 76.4982 23.6927 76.4702 23.478C76.4422 23.254 76.4095 23.03 76.3722 22.806C76.3535 22.6473 76.3302 22.4933 76.3022 22.344C76.2742 22.1947 76.2602 22.0453 76.2602 21.896C76.2602 21.7653 76.2835 21.658 76.3302 21.574C76.3862 21.49 76.4842 21.448 76.6242 21.448C76.7549 21.448 76.8529 21.476 76.9182 21.532C76.9929 21.5787 77.0489 21.6627 77.0862 21.784C77.1515 21.952 77.2029 22.1247 77.2402 22.302C77.2869 22.4793 77.3429 22.6567 77.4082 22.834C77.5669 23.2727 77.8235 23.6227 78.1782 23.884C78.5422 24.1453 78.9669 24.276 79.4522 24.276C80.1055 24.276 80.6049 24.0893 80.9502 23.716C81.3049 23.3333 81.4822 22.82 81.4822 22.176C81.4822 21.8027 81.4029 21.4947 81.2442 21.252C81.0855 21 80.8802 20.7853 80.6282 20.608C80.3762 20.4307 80.1055 20.2627 79.8162 20.104C79.5455 19.9547 79.2702 19.8147 78.9902 19.684C78.7102 19.5533 78.4349 19.418 78.1642 19.278C77.8655 19.1193 77.5715 18.9233 77.2822 18.69C77.0022 18.4473 76.7689 18.172 76.5822 17.864C76.4049 17.5467 76.3162 17.206 76.3162 16.842C76.3162 16.226 76.4749 15.7173 76.7922 15.316C77.1189 14.9147 77.5342 14.616 78.0382 14.42C78.5515 14.224 79.0835 14.126 79.6342 14.126C79.9889 14.126 80.3295 14.1773 80.6562 14.28C80.9922 14.3733 81.3189 14.4853 81.6362 14.616C81.7389 14.6533 81.8322 14.6813 81.9162 14.7C82.0095 14.7187 82.1075 14.728 82.2102 14.728C82.2849 14.728 82.3549 14.728 82.4202 14.728C82.4855 14.7187 82.5509 14.7093 82.6162 14.7C82.6442 14.9987 82.6769 15.2973 82.7142 15.596C82.7515 15.8947 82.7889 16.1933 82.8262 16.492C82.8355 16.5387 82.8402 16.59 82.8402 16.646C82.8495 16.6927 82.8542 16.7393 82.8542 16.786C82.8542 16.9167 82.8262 17.038 82.7702 17.15C82.7142 17.2527 82.6069 17.304 82.4482 17.304C82.3269 17.304 82.2382 17.276 82.1822 17.22C82.1262 17.164 82.0749 17.0847 82.0282 16.982C81.9162 16.6927 81.8089 16.408 81.7062 16.128C81.6035 15.848 81.4542 15.5867 81.2582 15.344C81.0529 15.0827 80.7962 14.8913 80.4882 14.77C80.1802 14.6393 79.8629 14.574 79.5362 14.574C79.2189 14.574 78.9529 14.6627 78.7382 14.84C78.5235 15.008 78.3649 15.2273 78.2622 15.498C78.1595 15.7687 78.1082 16.0487 78.1082 16.338C78.1082 16.786 78.2249 17.136 78.4582 17.388C78.7009 17.6307 78.9995 17.8547 79.3542 18.06C79.5502 18.1627 79.7462 18.2653 79.9422 18.368C80.1475 18.4613 80.3482 18.5547 80.5442 18.648C81.0109 18.8627 81.4635 19.124 81.9022 19.432C82.3502 19.7307 82.7189 20.09 83.0082 20.51C83.3069 20.9207 83.4562 21.4107 83.4562 21.98Z" fill="white"/>
</svg>
