<svg width="7" height="7" viewBox="0 0 7 7" fill="none" xmlns="http://www.w3.org/2000/svg">
<g clip-path="url(#clip0_62_226)">
<path fill-rule="evenodd" clip-rule="evenodd" d="M3.9375 0.583415C3.76834 0.583415 3.60209 0.600331 3.44196 0.632998C3.36615 0.648392 3.29956 0.693269 3.25685 0.757758C3.21413 0.822247 3.19878 0.901065 3.21417 0.976873C3.22956 1.05268 3.27444 1.11927 3.33893 1.16199C3.40342 1.20471 3.48224 1.22006 3.55804 1.20466C3.9254 1.12972 4.30673 1.16539 4.65382 1.30715C5.00091 1.44891 5.29817 1.69041 5.50802 2.0011C5.71788 2.31179 5.8309 2.67773 5.8328 3.05265C5.83469 3.42756 5.72538 3.79463 5.51868 4.10743C5.31199 4.42023 5.01718 4.66472 4.67155 4.80998C4.32591 4.95525 3.94496 4.99477 3.57686 4.92356C3.20877 4.85234 2.87005 4.67358 2.60354 4.40987C2.33703 4.14617 2.1547 3.80936 2.07959 3.44204C2.07196 3.4045 2.05702 3.36884 2.03562 3.33707C2.01421 3.30531 1.98676 3.27808 1.95482 3.25692C1.92289 3.23577 1.88711 3.22112 1.84951 3.21379C1.81192 3.20647 1.77325 3.20663 1.73571 3.21425C1.69817 3.22187 1.66251 3.23681 1.63074 3.25822C1.59898 3.27962 1.57175 3.30708 1.5506 3.33901C1.52944 3.37094 1.51479 3.40673 1.50746 3.44432C1.50014 3.48192 1.5003 3.52059 1.50792 3.55812C1.57896 3.90597 1.72388 4.23451 1.93288 4.5215L1.99033 4.59733L0.925169 5.6625C0.872303 5.71486 0.841451 5.78546 0.838927 5.85982C0.836404 5.93419 0.862401 6.00671 0.911596 6.06254C0.960791 6.11837 1.02946 6.15329 1.10356 6.16014C1.17765 6.167 1.25157 6.14527 1.31017 6.09941L1.33759 6.07491L2.40275 5.00975C2.71325 5.25445 3.07776 5.42134 3.46587 5.49651C3.85399 5.57169 4.25445 5.55295 4.63385 5.44188C5.01326 5.33081 5.36059 5.13061 5.64689 4.858C5.93319 4.58539 6.15014 4.24826 6.27965 3.87475C6.40916 3.50124 6.44747 3.10217 6.39138 2.71084C6.33529 2.31952 6.18643 1.94727 5.95723 1.62518C5.72802 1.30308 5.4251 1.04046 5.07376 0.859242C4.72242 0.678021 4.33283 0.583448 3.9375 0.583415ZM1.45834 0.291748C1.40377 0.291748 1.3503 0.307054 1.304 0.335927C1.2577 0.3648 1.22043 0.406082 1.19642 0.455081L1.18242 0.489206L1.1445 0.599456C1.10449 0.71676 1.04 0.824224 0.955328 0.914731C0.870654 1.00524 0.767717 1.07673 0.653335 1.12446L0.599377 1.14487L0.489127 1.1825C0.43453 1.20112 0.386682 1.23552 0.351635 1.28134C0.316587 1.32716 0.295915 1.38235 0.292231 1.43992C0.288547 1.49749 0.302017 1.55485 0.330938 1.60477C0.359859 1.65468 0.402933 1.6949 0.45471 1.72033L0.489127 1.73433L0.599377 1.77225C0.716681 1.81227 0.824144 1.87675 0.914652 1.96142C1.00516 2.0461 1.07665 2.14903 1.12438 2.26341L1.14479 2.31737L1.18242 2.42762C1.20108 2.4822 1.2355 2.53003 1.28134 2.56505C1.32718 2.60006 1.38237 2.6207 1.43994 2.62436C1.4975 2.62801 1.55486 2.61451 1.60476 2.58557C1.65465 2.55662 1.69484 2.51353 1.72025 2.46175L1.73425 2.42762L1.77217 2.31737C1.81219 2.20007 1.87667 2.09261 1.96134 2.0021C2.04602 1.91159 2.14895 1.8401 2.26334 1.79237L2.31729 1.77196L2.42754 1.73433C2.48214 1.7157 2.52999 1.68131 2.56504 1.63549C2.60008 1.58967 2.62076 1.53448 2.62444 1.47691C2.62812 1.41934 2.61465 1.36198 2.58573 1.31206C2.55681 1.26215 2.51374 1.22193 2.46196 1.1965L2.42754 1.1825L2.31729 1.14458C2.19999 1.10456 2.09253 1.04008 2.00202 0.955408C1.91151 0.870733 1.84002 0.767797 1.79229 0.653415L1.77188 0.599456L1.73425 0.489206C1.7146 0.431628 1.67744 0.381635 1.62796 0.346228C1.57848 0.310821 1.51918 0.291772 1.45834 0.291748ZM1.45834 1.22391C1.52733 1.31074 1.60601 1.38942 1.69284 1.45841C1.60572 1.52744 1.52756 1.60561 1.45834 1.69291C1.38931 1.6058 1.31114 1.52764 1.22383 1.45841C1.31066 1.38942 1.38934 1.31074 1.45834 1.22391Z" fill="white"/>
</g>
<defs>
<clipPath id="clip0_62_226">
<rect width="7" height="7" fill="white" transform="matrix(-1 0 0 1 7 0)"/>
</clipPath>
</defs>
</svg>
