<svg width="18" height="18" viewBox="0 0 18 18" fill="none" xmlns="http://www.w3.org/2000/svg">
<path fill-rule="evenodd" clip-rule="evenodd" d="M2.598 2.598C1.5 3.6975 1.5 5.4645 1.5 9C1.5 12.5355 1.5 14.3033 2.598 15.4012C3.6975 16.5 5.4645 16.5 9 16.5C12.5355 16.5 14.3033 16.5 15.4012 15.4012C16.5 14.304 16.5 12.5355 16.5 9C16.5 5.4645 16.5 3.69675 15.4012 2.598C14.304 1.5 12.5355 1.5 9 1.5C5.4645 1.5 3.69675 1.5 2.598 2.598ZM5.6475 7.1025C5.54087 7.00314 5.39983 6.94905 5.25411 6.95162C5.10838 6.95419 4.96934 7.01322 4.86628 7.11628C4.76322 7.21934 4.70419 7.35838 4.70162 7.50411C4.69905 7.64983 4.75314 7.79087 4.8525 7.8975L6.57225 9.61725C6.81836 9.86319 7.15206 10.0013 7.5 10.0013C7.84794 10.0013 8.18164 9.86319 8.42775 9.61725L9.61725 8.42775C9.63467 8.41029 9.65536 8.39644 9.67814 8.38698C9.70092 8.37753 9.72534 8.37266 9.75 8.37266C9.77466 8.37266 9.79908 8.37753 9.82186 8.38698C9.84464 8.39644 9.86533 8.41029 9.88275 8.42775L11.3918 9.9375H10.875C10.7258 9.9375 10.5827 9.99676 10.4773 10.1023C10.3718 10.2077 10.3125 10.3508 10.3125 10.5C10.3125 10.6492 10.3718 10.7923 10.4773 10.8977C10.5827 11.0032 10.7258 11.0625 10.875 11.0625H12.75C12.8992 11.0625 13.0423 11.0032 13.1477 10.8977C13.2532 10.7923 13.3125 10.6492 13.3125 10.5V8.625C13.3125 8.47582 13.2532 8.33274 13.1477 8.22725C13.0423 8.12176 12.8992 8.0625 12.75 8.0625C12.6008 8.0625 12.4577 8.12176 12.3523 8.22725C12.2468 8.33274 12.1875 8.47582 12.1875 8.625V9.1425L10.6778 7.63275C10.4316 7.38681 10.0979 7.24865 9.75 7.24865C9.40206 7.24865 9.06836 7.38681 8.82225 7.63275L7.63275 8.82225C7.61533 8.83971 7.59464 8.85356 7.57186 8.86302C7.54908 8.87247 7.52466 8.87734 7.5 8.87734C7.47534 8.87734 7.45092 8.87247 7.42814 8.86302C7.40536 8.85356 7.38467 8.83971 7.36725 8.82225L5.6475 7.1025Z" fill="#DE534B"/>
</svg>
